<svg viewBox="0 0 380 600" xmlns="http://www.w3.org/2000/svg">
  <defs>
    <!-- Ombra interna sottile -->
  </defs>

  <!-- Sfondo trasparente -->

  <!-- ===== CORNICE ESTERNA (stile placca Vimar) ===== -->
  <!-- Placca esterna -->
  <rect x="12" y="12" width="356" height="576" rx="32" ry="32"
        fill="none" stroke="#000000" stroke-width="3.5"/>
  <!-- Cornice interna -->
  <rect x="40" y="40" width="300" height="520" rx="22" ry="22"
        fill="none" stroke="#000000" stroke-width="2"/>

  <!-- ===== CONTENUTO (tasti) ===== -->
  <g transform="translate(50,60)">
    <!-- ===== TASTO SUPERIORE ===== -->
    <g>
      <rect x="14" y="12" width="252" height="210" rx="14" ry="14"
            fill="none" stroke="#000000" stroke-width="1"/>
    </g>

    <!-- Simbolo luce (sole) grande -->
    <g stroke="#000000" stroke-width="3.2" stroke-linecap="round" fill="none">
      <circle cx="140" cy="108" r="13" />
      <g>
        <line x1="140" y1="84" x2="140" y2="72"/>
        <line x1="140" y1="84" x2="140" y2="72" transform="rotate(45 140 108)"/>
        <line x1="140" y1="84" x2="140" y2="72" transform="rotate(90 140 108)"/>
        <line x1="140" y1="84" x2="140" y2="72" transform="rotate(135 140 108)"/>
        <line x1="140" y1="84" x2="140" y2="72" transform="rotate(180 140 108)"/>
        <line x1="140" y1="84" x2="140" y2="72" transform="rotate(225 140 108)"/>
        <line x1="140" y1="84" x2="140" y2="72" transform="rotate(270 140 108)"/>
        <line x1="140" y1="84" x2="140" y2="72" transform="rotate(315 140 108)"/>
      </g>
    </g>

    <!-- ===== TACCA / FORO CENTRALE ===== -->
    <circle cx="140" cy="240" r="14" fill="none" stroke="#000000" stroke-width="1.5"/>
    <circle cx="140" cy="240" r="6" fill="#000000"/>

    <!-- ===== TASTO INFERIORE ===== -->
    <g>
      <rect x="14" y="258" width="252" height="210" rx="14" ry="14"
            fill="none" stroke="#000000" stroke-width="1"/>
    </g>

    <!-- Simbolo luce (sole) piccolo -->
    <g stroke="#000000" stroke-width="2.6" stroke-linecap="round" fill="none">
      <circle cx="140" cy="378" r="9" />
      <g>
        <line x1="140" y1="361" x2="140" y2="352"/>
        <line x1="140" y1="361" x2="140" y2="352" transform="rotate(45 140 378)"/>
        <line x1="140" y1="361" x2="140" y2="352" transform="rotate(90 140 378)"/>
        <line x1="140" y1="361" x2="140" y2="352" transform="rotate(135 140 378)"/>
        <line x1="140" y1="361" x2="140" y2="352" transform="rotate(180 140 378)"/>
        <line x1="140" y1="361" x2="140" y2="352" transform="rotate(225 140 378)"/>
        <line x1="140" y1="361" x2="140" y2="352" transform="rotate(270 140 378)"/>
        <line x1="140" y1="361" x2="140" y2="352" transform="rotate(315 140 378)"/>
      </g>
    </g>
  </g>
</svg>
