<svg id="Layer_1" data-name="Layer 1" xmlns="http://www.w3.org/2000/svg" viewBox="0 0 511.84 512.67"><defs><style>.cls-1{fill:#231f20;}.cls-2{fill:#282525;}.cls-3{fill:#383637;}.cls-4{fill:#424041;}.cls-5{fill:#1c1819;}.cls-6{fill:#211d1e;}.cls-7{fill:#343132;}.cls-8{fill:#2d2b2c;}.cls-9{fill:#2a2728;}.cls-10{fill:#2f2d2e;}.cls-11{fill:#282526;}.cls-12{fill:#343232;}.cls-13{fill:#292728;}.cls-14{fill:#2c292a;}.cls-15{fill:#363434;}.cls-16{fill:#353334;}.cls-17{fill:#2a2828;}.cls-18{fill:#2e2c2d;}.cls-19{fill:#2e2c2c;}.cls-20{fill:#191516;}.cls-21{fill:#191617;}.cls-22{fill:#181415;}.cls-23{fill:#181416;}.cls-24{fill:#151212;}.cls-25{fill:#fff;}.cls-26{fill:#3d3b3b;}.cls-27{fill:#110e0f;}.cls-28{fill:#1d1b1c;}.cls-29{fill:#171314;}.cls-30{fill:#fefefe;}.cls-31{fill:#221e1f;}.cls-32{fill:#171213;}.cls-33{fill:#cac9c9;}.cls-34{fill:#211e1f;}.cls-35{fill:#1f1c1d;}.cls-36{fill:#919296;}.cls-37{fill:#c3c4c5;}.cls-38{fill:#b9babc;}.cls-39{fill:#9fa0a4;}.cls-40{fill:#98999d;}.cls-41{fill:#a7a8ac;}.cls-42{fill:#d6d6d8;}.cls-43{fill:#aeafb2;}.cls-44{fill:#aaabae;}.cls-45{fill:#cececf;}.cls-46{fill:#c6c6c8;}.cls-47{fill:#e9e9ea;}.cls-48{fill:#acadb0;}.cls-49{fill:#201c1d;}.cls-50{fill:#252223;}.cls-51{fill:#bfc0c2;}.cls-52{fill:#c6c7c8;}.cls-53{fill:#b4b5b7;}.cls-54{fill:#dededf;}.cls-55{fill:#d3d3d5;}.cls-56{fill:#c9cacb;}.cls-57{fill:#e0e0e1;}.cls-58{fill:#cecfd0;}.cls-59{fill:#dbdcdc;}.cls-60{fill:#2d2a2b;}.cls-61{fill:#f7f7f8;}.cls-62{fill:#f6f6f7;}.cls-63{fill:#f6f7f8;}.cls-64{fill:#f3f3f4;}.cls-65{fill:#e9eaeb;}.cls-66{fill:#eee;}.cls-67{fill:#3b393a;}.cls-68{fill:#352f2d;}.cls-69{fill:#3a312c;}.cls-70{fill:#373435;}.cls-71{fill:#f4f4f5;}.cls-72{fill:#423934;}.cls-73{fill:#e5e5e6;}.cls-74{fill:#d9dadb;}.cls-75{fill:#d2d3d4;}.cls-76{fill:#221f1f;}.cls-77{fill:#afb0b3;}.cls-78{fill:#fcfbfa;}.cls-79{fill:#5d4329;}.cls-80{fill:#040303;}.cls-81{fill:#413630;}.cls-82{fill:#ceced0;}.cls-83{fill:#e0e0e0;}.cls-84{fill:#d6d7d8;}.cls-85{fill:#171415;}.cls-86{fill:#353233;}.cls-87{fill:#fdfdfd;}.cls-88{fill:#f1f0f1;}.cls-89{fill:#e4e4e5;}.cls-90{fill:#bfbfc2;}.cls-91{fill:#dfdfe0;}.cls-92{fill:#d5d5d7;}.cls-93{fill:#d0d1d1;}.cls-94{fill:#050404;}.cls-95{fill:#956227;}.cls-96{fill:#4b4848;}.cls-97{fill:#5e4732;}.cls-98{fill:#493e38;}.cls-99{fill:#564331;}.cls-100{fill:#966327;}.cls-101{fill:#c5c6c8;}.cls-102{fill:#b9babd;}.cls-103{fill:#49403c;}.cls-104{fill:#3a322e;}.cls-105{fill:#3f332b;}.cls-106{fill:#493c34;}.cls-107{fill:#4b3c30;}.cls-108{fill:#4b4643;}.cls-109{fill:#fdf9cd;}.cls-110{fill:#ffe194;}.cls-111{fill:#ffdc9b;}.cls-112{fill:#faac4c;}.cls-113{fill:#eb9623;}.cls-114{fill:#e98324;}.cls-115{fill:#faa81d;}.cls-116{fill:#e37b26;}.cls-117{fill:#ece4db;}.cls-118{fill:#e59230;}.cls-119{fill:#fff4c1;}.cls-120{fill:#fdbf6b;}.cls-121{fill:#fbb35a;}.cls-122{fill:#fecc81;}.cls-123{fill:#fff2bc;}.cls-124{fill:#f79221;}.cls-125{fill:#674724;}.cls-126{fill:#283440;}.cls-127{fill:#293541;}.cls-128{fill:#222f3b;}.cls-129{fill:#2d3945;}.cls-130{fill:#323f4b;}.cls-131{fill:#394753;}.cls-132{fill:#3e4b58;}.cls-133{fill:#3f4c58;}.cls-134{fill:#44515e;}.cls-135{fill:#36434f;}.cls-136{fill:#4a5764;}.cls-137{fill:#44525e;}.cls-138{fill:#4f5d6a;}.cls-139{fill:#1a2733;}.cls-140{fill:#505e6b;}.cls-141{fill:#acb4bd;}.cls-142{fill:#aeb5bd;}.cls-143{fill:#57636e;}.cls-144{fill:#697783;}.cls-145{fill:#596775;}.cls-146{fill:#5d6b78;}.cls-147{fill:#707e8a;}.cls-148{fill:#63707d;}.cls-149{fill:#596774;}.cls-150{fill:#8d99a4;}.cls-151{fill:#828f9b;}.cls-152{fill:#7e8993;}.cls-153{fill:#778490;}.cls-154{fill:#7f8a94;}.cls-155{fill:#2f3b47;}.cls-156{fill:#dadbdc;}.cls-157{fill:#cdcecf;}.cls-158{fill:#f5f2ef;}.cls-159{fill:#5c4d41;}.cls-160{fill:#5e4e41;}.cls-161{fill:#5b4a3c;}.cls-162{fill:#5c4c3f;}.cls-163{fill:#614f40;}.cls-164{fill:#564a42;}.cls-165{fill:#625040;}.cls-166{fill:#674c30;}.cls-167{fill:#5f4325;}.cls-168{fill:#634c32;}.cls-169{fill:#624c34;}.cls-170{fill:#5e4830;}.cls-171{fill:#644829;}.cls-172{fill:#5a3f23;}.cls-173{fill:#5c4834;}.cls-174{fill:#fff0b7;}.cls-175{fill:#fff5c3;}.cls-176{fill:#ffdb8d;}.cls-177{fill:#fee29a;}.cls-178{fill:#ffd987;}.cls-179{fill:#fec65a;}.cls-180{fill:#ffd77f;}.cls-181{fill:#ffd074;}.cls-182{fill:#febe46;}.cls-183{fill:#ffcd6e;}.cls-184{fill:#ffc963;}.cls-185{fill:#fec151;}.cls-186{fill:#fbae20;}.cls-187{fill:#ffcb67;}.cls-188{fill:#fdb734;}.cls-189{fill:#fdbb40;}.cls-190{fill:#ffe0a0;}.cls-191{fill:#ffd28b;}.cls-192{fill:#fcb961;}.cls-193{fill:#fec676;}.cls-194{fill:#ffd994;}.cls-195{fill:#ffd590;}.cls-196{fill:#ffcf86;}.cls-197{fill:#fbaf52;}.cls-198{fill:#faa744;}.cls-199{fill:#f9a139;}.cls-200{fill:#f09d23;}.cls-201{fill:#ef8922;}.cls-202{fill:#f4a321;}.cls-203{fill:#fcb027;}.cls-204{fill:#f2ebdf;}.cls-205{fill:#ffedb0;}.cls-206{fill:#fdeaa9;}.cls-207{fill:#fee7a4;}.cls-208{fill:#fee5a0;}.cls-209{fill:#f89729;}.cls-210{fill:#f99c33;}.cls-211{fill:#ffe4a7;}.cls-212{fill:#fee9ae;}.cls-213{fill:#ffecb2;}.cls-214{fill:#2f3b46;}.cls-215{fill:#3a4753;}.cls-216{fill:#56626d;}.cls-217{fill:#83909c;}.cls-218{fill:#9aa5af;}.cls-219{fill:#768490;}.cls-220{fill:#96a2ac;}.cls-221{fill:#62707d;}.cls-222{fill:#ffd279;}.cls-223{fill:#fcb42f;}.cls-224{fill:#fdb83c;}.cls-225{fill:#feca7c;}.cls-226{fill:#f9a33d;}</style></defs><path class="cls-1" d="M242.08,570.23a2.85,2.85,0,0,1-.08,2.2,156.08,156.08,0,0,0-1.53,21.49,9.81,9.81,0,0,1-.23,3.58l-2.49,37a3.15,3.15,0,0,0-.41,1.12c-.42,1.62.33,3.89-1,4.77s-3.33.18-5,.18c-6.63,0-13.27,0-19.9.09-1-.9.06-1.67.16-2.5a35.53,35.53,0,0,0,1-6c.05-4.57.73-9.1.84-13.66q1.26-14.21,2.51-28.42c.87-1.76.82-3.66.92-5.56.24-4.46.67-8.91.82-13.38l0,.06c1.21-5.27,1.23-10.65,1.63-16,.08-1.18-.24-2.4.24-3.56.35-6.48.86-12.94,1.75-19.37,1.13-2.77-.13-5.74.67-8.54v0c1-.84-.32-2.41,1-3.15.08,0,.23,0,.27.09s.24.29.23.2c-.41-2.57-.08-5.17-.25-7.76.18-1.54.63-2.72,2.53-2.72,7.76,0,15.51-.05,23.26,0a3.51,3.51,0,0,1,1.71.54q7.89,21,15.79,42c3.57,9.54,7.1,19.1,10.64,28.61,1.16.09,1.17-.74,1.41-1.36,8.35-22.24,16.76-44.46,25-66.74,1-2.73,2.34-3.64,5.24-3.54,7,.23,14,.09,21,.05,1.35,0,2.29.06,2.45,1.81,1.63,17.83,3.33,35.66,5,53.49a8.47,8.47,0,0,1-.1,1.5c.69,1.61-.34,3.43.61,5v0c.62,2.82-.14,5.71.53,8.52-.11,2.45.28,4.91-.13,7.37,0,.17.28-.32.53-.14,1.14.83,0,2.27.87,3.17a1.57,1.57,0,0,1,0,1.5c.76,2.26-.48,4.73.69,7,.88,6.21,1.34,12.45,1.74,18.71s.43,12.36,1.77,18.44l.13.13-.08.16a7.38,7.38,0,0,1,0,4h0c-8.33,0-16.66-.13-25,0a1.33,1.33,0,0,1-1.22-.7,8.16,8.16,0,0,1-.07-4c-.71-6.55-.63-13.15-1.29-19.7.49-3.43-.36-6.93.38-10.36.08-.4.13-.65.08-.25-.34-.11-.26.44-.59.37-1.44-1,.08-2.72-1-3.76v.06c-.44-3.11-.06-6.23-.22-9.34-.05-1,.43-2-.42-2.87l0,0c-.41-4.69.11-9.46-1.12-14.09-.45-6.13-.89-12.27-1.34-18.46-1.24.08-1.18,1.21-1.47,2q-15,39.31-30,78.66c-.58,1.53-.89,2.95-3.17,2.93s-2.44-1.76-3-3.16q-14.91-39.69-29.79-79.41c-.17-.45-.42-.87-.68-1.4-1.11,1-.12,2.31-1,3.12-1,2.17-.23,4.45-.46,6.67C242.2,568.06,242.48,569.17,242.08,570.23Z" transform="translate(-49.9 -128.76)"/><path class="cls-1" d="M526.8,511c12.84,2.27,21.5,9.57,26.16,21.7.6,2.1.62,4.35,1.74,6.3l.17.14-.09.2a94.62,94.62,0,0,1,0,14.58l.09.15-.11.13c-1.23,2.06-.93,4.55-1.86,6.69-2.75,8.26-8.28,14.18-15.87,18.62a59.67,59.67,0,0,1,5.36,4c5.17,4.83,7.38,11.29,9.18,17.84,3.41,12.46,6.56,25,10,37.46.61,2.22-.14,2.35-1.93,2.33q-10.79-.09-21.57,0a2.55,2.55,0,0,1-3-2.2c-3.35-11.63-6.84-23.23-10.33-34.83-1.72-5.7-4.65-10.51-10.25-13.24a4.43,4.43,0,0,0-3-1c-5.93.08-11.89-.58-17.81.32-.65,1.13-.38,2.37-.38,3.56q0,20.94,0,41.88c0,1.29.3,2.64-.45,3.85-1,.85-2.29.72-3.49.72-5.78,0-11.55,0-17.32,0-3.95,0-4.51-.59-4.51-4.66q0-59.52,0-119.06c0-1.33-.34-2.83,1.2-3.8.47-.3-.8-.52-.44-1.11h0c3.67-.59,7.38-.82,11.07-1.12,2.63.2,5.3-.49,7.94.12,0,0-.3-.27-.19-.52.81-1.16,2.29.06,3.14-.91l0,0a231.49,231.49,0,0,1,24.43,0h0C518.59,510.15,522.74,510.24,526.8,511Z" transform="translate(-49.9 -128.76)"/><path class="cls-1" d="M457.4,637.45c1.32,3.63,1.32,3.63-2.47,3.63-7.58,0-15.16-.05-22.74,0-1.8,0-2.63-.46-3.09-2.38-1.63-6.85-3.92-13.53-5.28-20.46-.66-3.59-.66-3.59-4.16-3.59-10.52,0-21,0-31.55,0-1.09,0-2.54-.61-3.05,1.12-2.21,7.77-4.46,15.53-6.59,23.32a2.23,2.23,0,0,1-2.53,2c-7.7,0-15.41-.09-23.11,0-2.52,0-1.65-1.27-1.28-2.48,3.51-11.28,7-22.57,10.54-33.84q11.49-36.57,23-73.13c2.13-6.73,4.33-13.44,6.5-20.15,7.78-1.48,15.64-.43,23.45-.76,1.17,0,2.2,1.84,3.39.19,3.29,10.49,6.64,21,9.88,31.48q14.16,45.9,28.26,91.82c.33,1.06.54,2.15.8,3.22-.72,1.65-1.87,2.24-3.76,2.2-6.87-.14-13.74,0-20.62-.07-.89,0-2,.33-2.51-.49.28.87,1.26.5,2,.5,7.28,0,14.56-.08,21.83.09C456.21,639.74,456.71,638.65,457.4,637.45Z" transform="translate(-49.9 -128.76)"/><path class="cls-1" d="M50.3,511.7c-1-1.6.12-1.69,1.24-1.69,8.71,0,17.43.05,26.15-.05,2,0,2,1.4,2.34,2.55,3,10.7,5.93,21.41,8.89,32.12q7.35,26.58,14.73,53.15a14.77,14.77,0,0,0,.62,1.52c1.72-3.64,2.38-7.21,3.36-10.64q11-38.17,21.74-76.39c.47-1.65,1.21-2.31,2.95-2.29q11.42.11,22.81,0c2,0,2.22.65,1.66,2.36q-12.12,37.49-24.18,75c-5.35,16.64-10.73,33.26-15.94,49.94-.88,2.79-2,4.07-5.17,3.91-6-.32-12-.15-17.93-.06-1.81,0-2.64-.5-3.21-2.32q-12.69-40.32-25.54-80.58-7.15-22.53-14.26-45.07a14.11,14.11,0,0,1-.27-1.47c2.34,0,1.52,2,2.05,3.07a2.83,2.83,0,0,1,3.14-3.09c7.16-.06,14.33,0,21.49,0a1.93,1.93,0,0,1,1.79.92,2.18,2.18,0,0,1,.32,2.37,2.38,2.38,0,0,0-.53-2.69c-.71-.81-1.67-.63-2.56-.61-7.58.11-15.18-.32-22.75.25C52.22,512,51.3,511.19,50.3,511.7Z" transform="translate(-49.9 -128.76)"/><path class="cls-1" d="M195.76,575.45c0,20.86-.07,41.73.08,62.6,0,2.94-.89,3.44-3.54,3.38-7.5-.18-15-.15-22.5,0-2.1,0-2.51-.64-2.5-2.59q.07-63.36,0-126.72c0-2.17.77-2.46,2.63-2.44,7.71.09,15.41.14,23.11,0,2.36-.05,2.8.69,2.79,2.9C195.73,533.51,195.76,554.48,195.76,575.45Z" transform="translate(-49.9 -128.76)"/><path class="cls-1" d="M250.69,453.34a6.78,6.78,0,0,1-5,0c-5.88-2.29-12.09-1.38-18.15-1.72-10.19-.57-20.38-1.32-30.58-1.65-12.37-.73-24.74-1.53-37-3.3-.33-.83-.07-1.34.79-1.55,3.73.35,7.5.23,11.95,1.15-5.33-1.47-10.61.25-14.86-3.38.64-1.91,2.12-2.14,3.55-2.31a59.43,59.43,0,0,1,7.31-.17q137.67,0,275.34-.05c2.9,0,6.06.93,8.62-1.41,1.81-3,1.05-6.24,1.05-9.37q.06-145.54,0-291.09c0-1.88-.07-3.76.08-5.63.12-1.47.77-2.48,2.4-2.58s2.93.53,3.35,2.29a21.27,21.27,0,0,1,.26,5q0,151.76.11,303.49c0,3.8-1.18,5.15-4.79,4.84-1.08-.09-2.28-.28-3.13.76-11.53,1.77-23.14,2.6-34.77,3.26-13.16.58-26.29,1.71-39.45,2.17-2.38.08-4.88-.44-7,1.18a6.59,6.59,0,0,1-5,0c-9.64,1.05-19.32.16-29,.47-3.16.1-6.33-.36-9.46.36-11.94.59-23.89-.16-35.84.39a2.84,2.84,0,0,1-2.05,0l.11.05c-2.17-1.62-4.66-.7-7-.78C271.94,453.47,261.3,454.38,250.69,453.34Z" transform="translate(-49.9 -128.76)"/><path class="cls-2" d="M452,446.7c8.43-.58,6.69-6.82,6.69-12.06V140.29a27.11,27.11,0,0,0,0-3.93c-.26-1.83,1.15-5-1.89-5-3.81-.05-1.32,3.21-1.33,4.67q-.19,149.7-.1,299.41a10.34,10.34,0,0,1-1.15,5.42c-1.95,1-4.06.52-6.08.52q-142,0-284,0c-2.12,0-4.51,1-6.39-.94a3.08,3.08,0,0,1,2.53-2,52.52,52.52,0,0,1,8.41-.27q85.17,0,170.35,0,22.08.06,44.16,0,31,.06,62,0c7,0,7.42-.4,7.43-7.26q0-145.28,0-290.54c0-2.22.32-4.55-1.3-6.45-2.69-2-5.82-1.21-8.74-1.21q-137.73-.06-275.46,0a82.12,82.12,0,0,1-9-.19,4.13,4.13,0,0,1-2.85-1.65c1.11-2.37,3.26-1.37,4.94-1.37q147.68-.08,295.36,0c1.47,0,3-.32,4.41.48,1.63,1.77.76,3.94.77,5.89q.07,151,0,302C460.74,446.45,460.74,446.45,452,446.7Z" transform="translate(-49.9 -128.76)"/><path class="cls-3" d="M493.27,589.45c5.63,0,11.25,0,16.87,0,1.6,0,3.19.08,4.36,1.42-6.18-1.67-12.49-.61-18.73-1-1.83-.1-1.9.87-1.9,2.23,0,5.78,0,11.55,0,17.32,0,9.72-.05,19.44,0,29.16,0,1.95-.49,2.63-2.55,2.6q-11.1-.2-22.19,0c-2.28,0-2.65-.87-2.64-2.86q.06-62.27.05-124.54c0-.83-.68-2.21,1.11-2.23a13,13,0,0,1,.29,4.22q0,60.27,0,120.53c0,3.61,0,3.62,3.69,3.62,6,0,11.95,0,17.92,0,1.08,0,2.25.31,3.19-.55.37-8.38.09-16.75.15-25.13.05-7.27,0-14.54,0-21.81C493,591.43,492.72,590.39,493.27,589.45Z" transform="translate(-49.9 -128.76)"/><path class="cls-4" d="M459.93,129.88c-3.19.05-6.38.14-9.57.14q-143.91,0-287.82,0c-2.32,0-4.9-1-7,1,1.8,2,1.51,4.56,1.51,7q0,149.94,0,299.87c-.45,3.05-.82,6.07,3,7.44l-.08,1.3c-4.79,1-6.15-1-6.14-5.75q.15-153.21,0-306.41c0-4.46,1.22-5.75,5.66-5.75q148.2.18,296.41.15C457.22,128.91,458.89,128.21,459.93,129.88Z" transform="translate(-49.9 -128.76)"/><path class="cls-5" d="M493.2,639.89c-.39.61-1,.58-1.62.58-7.3,0-14.6,0-21.9,0-1,0-2.15.29-2.14-1.62.12-18.44.14-36.88.16-55.32q0-33.43,0-66.87c0-1.7,0-3.4,0-5.1a.36.36,0,0,1,.54,0c.74,1.18,2.11.33,3.45,1.18-3.07-.3-3.44,1.14-3.43,3.5q.11,59.88,0,119.78c0,2.7.72,3.46,3.41,3.39,7-.19,14-.07,21-.07A1.28,1.28,0,0,1,493.2,639.89Z" transform="translate(-49.9 -128.76)"/><path class="cls-6" d="M418.46,511v3.27a4,4,0,0,0-4.4-2.64c-5.88.11-11.75,0-17.63.05-1.74,0-3.82-.68-4.63,1.94l-.18-2.05c0-1.46,1.06-1.51,2.12-1.51h23.09C417.53,510,418.29,510,418.46,511Z" transform="translate(-49.9 -128.76)"/><path class="cls-7" d="M250.58,511c-7.7,0-15.4.11-23.09,0-2.48-.05-4.08.43-4.28,3.16a17.35,17.35,0,0,1-.07,6.62c-1.1.72,0,2.38-1.28,3,.31-3.81.66-7.61.91-11.42.11-1.75.8-2.42,2.63-2.4,7.55.09,15.11,0,22.67.05C249,510,250.17,509.59,250.58,511Z" transform="translate(-49.9 -128.76)"/><path class="cls-8" d="M211.39,640.61c4.17-1.31,8.44-.46,12.66-.67,1.92-.09,3.85,0,5.77,0s4,.52,5.73,0c2.18-.62.21-3.24,1.45-4.58.27-.29.5-.61.75-.92-.31,6.65-.31,6.65-6.88,6.65-5.54,0-11.08,0-16.62,0C213.29,641.07,212.22,641.51,211.39,640.61Z" transform="translate(-49.9 -128.76)"/><path class="cls-9" d="M317.45,639.92c7.15,0,14.3,0,21.45,0a14.46,14.46,0,0,1,4.76.66c-.26.59-.79.53-1.28.53q-11.53,0-23.07,0C318.51,641.08,317.31,641.51,317.45,639.92Z" transform="translate(-49.9 -128.76)"/><path class="cls-10" d="M385.06,615.82c-.07-1.56,1.05-1.45,2.07-1.45,11.32,0,22.64,0,34,0,3,0,2.86,1.9,2.73,3.92-.61-2.87-2.42-3.39-5.19-3.34-10.07.2-20.15.07-30.22.09C387.24,615,386,614.67,385.06,615.82Z" transform="translate(-49.9 -128.76)"/><path class="cls-11" d="M326.81,453.26l38.95.08c-7,1.42-14.11.73-21.17,1.11-17.33.92-34.67,1.21-52,1-1.11,0-2.27.05-3.13-.88l1.53-.37c9.92-.82,19.86-.11,29.78-.39C322.78,453.76,324.88,454.37,326.81,453.26Z" transform="translate(-49.9 -128.76)"/><path class="cls-9" d="M316.28,615.55a4.94,4.94,0,0,1,.5,1.72c-.46,6.25,1.09,12.44.6,18.69-1.14-6.05-1-12.21-1.5-18.32-.43-5.12-.65-10.25-1-15.38,1.46.83,0,2.72,1.31,3.61A35.66,35.66,0,0,1,316.28,615.55Z" transform="translate(-49.9 -128.76)"/><path class="cls-11" d="M197,450c14.92-1,29.75,1.88,44.67,1a3.76,3.76,0,0,1,4.06,2.33C229.41,452.54,213.14,451.89,197,450Z" transform="translate(-49.9 -128.76)"/><path class="cls-11" d="M370.77,453.31a3.79,3.79,0,0,1,4.07-2.3c14.16.84,28.23-2,42.39-1.05-11.55,1.61-23.19,2.1-34.81,2.77C378.54,453,374.65,453.12,370.77,453.31Z" transform="translate(-49.9 -128.76)"/><path class="cls-12" d="M240.24,597.5c-.37-8,.38-15.87,1.12-23.78a1.62,1.62,0,0,1,.64-1.29Q241.13,585,240.24,597.5Z" transform="translate(-49.9 -128.76)"/><path class="cls-13" d="M479.88,511c-3.91-.47-7.75.79-11.65.53,7.24-1.56,14.6-2,22-2.43-.63,1.29-2.31.14-3,1.29C484.8,511.23,482.26,510.15,479.88,511Z" transform="translate(-49.9 -128.76)"/><path class="cls-13" d="M514.58,509.17l-24.43,0A119.44,119.44,0,0,1,514.58,509.17Z" transform="translate(-49.9 -128.76)"/><path class="cls-14" d="M219.45,551.62a108,108,0,0,1-1.15,18.32,1.48,1.48,0,0,1-.72,1.24C218.14,564.65,218.41,558.1,219.45,551.62Z" transform="translate(-49.9 -128.76)"/><path class="cls-15" d="M339.38,590.67c-1.23-.68-.16-2.3-1.25-3-.82-2.17.24-4.52-.61-6.69l.06-9.18C338.52,578,338.91,584.35,339.38,590.67Z" transform="translate(-49.9 -128.76)"/><path class="cls-9" d="M343.62,636.28c-1.83-4.68-1.54-9.63-1.83-14.5-.08-1.31,0-2.63.06-3.94C342.78,624,343.16,630.12,343.62,636.28Z" transform="translate(-49.9 -128.76)"/><path class="cls-14" d="M217.6,571.12c.66,5.71-.9,11.34-.55,17a1.88,1.88,0,0,1-1.19,1.91Z" transform="translate(-49.9 -128.76)"/><path class="cls-11" d="M250.69,453.34c11.44,0,22.89-.08,34.33-.07,1.6,0,3.46-.56,4.53,1.35A307.37,307.37,0,0,1,250.69,453.34Z" transform="translate(-49.9 -128.76)"/><path class="cls-15" d="M213.35,618.48c.6,4.75-.54,9.42-.56,14.14-.2.29-.42.28-.63,0A93.16,93.16,0,0,1,213.35,618.48Z" transform="translate(-49.9 -128.76)"/><path class="cls-13" d="M526.8,511c-4.12-.31-8.33,0-12.23-1.82A46.46,46.46,0,0,1,526.8,511Z" transform="translate(-49.9 -128.76)"/><path class="cls-16" d="M313.19,576.07c1.81,4.58,1.14,9.36,1.12,14.09C313.24,585.52,313.72,580.76,313.19,576.07Z" transform="translate(-49.9 -128.76)"/><path class="cls-17" d="M554.77,553.9q0-7.29,0-14.58A35.29,35.29,0,0,1,554.77,553.9Z" transform="translate(-49.9 -128.76)"/><path class="cls-16" d="M314.28,590.11c1.52,2,.54,4.37.73,6.56a53.35,53.35,0,0,1-.09,5.65A89,89,0,0,1,314.28,590.11Z" transform="translate(-49.9 -128.76)"/><path class="cls-18" d="M242.08,570.23c.21-3.31-1-6.71.69-9.92A64.53,64.53,0,0,1,242.08,570.23Z" transform="translate(-49.9 -128.76)"/><path class="cls-7" d="M221.87,523.71c-.17,2.85.91,5.8-.67,8.54A48.86,48.86,0,0,1,221.87,523.71Z" transform="translate(-49.9 -128.76)"/><path class="cls-17" d="M552.89,560.87c.37-2.3.11-4.77,1.86-6.69A17.74,17.74,0,0,1,552.89,560.87Z" transform="translate(-49.9 -128.76)"/><path class="cls-17" d="M554.7,539c-1.81-1.76-1.6-4.08-1.74-6.3A17.57,17.57,0,0,1,554.7,539Z" transform="translate(-49.9 -128.76)"/><path class="cls-8" d="M212.16,632.63h.63a8.75,8.75,0,0,1-1.24,5.49C211.75,636.28,212,634.45,212.16,632.63Z" transform="translate(-49.9 -128.76)"/><path class="cls-19" d="M340.11,599.13c-1.56-2.19-.52-4.64-.69-7A31.25,31.25,0,0,1,340.11,599.13Z" transform="translate(-49.9 -128.76)"/><path class="cls-15" d="M337.59,571.79c-1.35-1.53-.56-3.31-.61-5A13.89,13.89,0,0,1,337.59,571.79Z" transform="translate(-49.9 -128.76)"/><path class="cls-9" d="M343.65,640.58c0-1.33,0-2.67,0-4C344,637.91,344.5,639.25,343.65,640.58Z" transform="translate(-49.9 -128.76)"/><path class="cls-20" d="M316.28,615.55c0-3.23,0-6.45,0-9.68v-2.29C316.51,607.57,317.54,611.58,316.28,615.55Z" transform="translate(-49.9 -128.76)"/><path class="cls-21" d="M238.85,598.86V609.4h-.3V598.6Z" transform="translate(-49.9 -128.76)"/><path class="cls-22" d="M337.52,580.93c1.28,2.13.31,4.47.61,6.69,0,.58-.05,1.15-.08,1.72h-.53Z" transform="translate(-49.9 -128.76)"/><path class="cls-23" d="M223.14,520.73q0-3.32.07-6.63c1.3,2.75,0,5.62.73,8.6C222.77,522.12,223.32,521.32,223.14,520.73Z" transform="translate(-49.9 -128.76)"/><path class="cls-24" d="M313,557.85v4.69h-.25v-4.7Z" transform="translate(-49.9 -128.76)"/><path class="cls-25" d="M496.4,531.73c6.44-.68,12.91-1.16,19.3.14,8.39,1.71,13.6,7.58,14.14,15.5.64,9.3-3.6,16.29-11.78,19.39-.75.29-1.52.53-2.28.8a10.44,10.44,0,0,1-5.5,1.25c-4.85-.11-9.71-.1-14.57,0-2.08,0-2.8-.66-2.78-2.8.09-10,0-20,0-30C493,532.25,493,532.25,496.4,531.73Z" transform="translate(-49.9 -128.76)"/><path class="cls-26" d="M496.4,531.73c-2.89.18-3.5,1.73-3.45,4.51.2,9.8.14,19.62,0,29.43,0,2,.52,2.63,2.52,2.54,6.76-.3,13.55.49,20.28-.65l-1.24,1.2a152.18,152.18,0,0,1-21.88,0c0-11.51,0-23-.12-34.54C492.5,531,494.52,531.63,496.4,531.73Z" transform="translate(-49.9 -128.76)"/><path class="cls-27" d="M493.2,639.89c-.18-.19-.37-.38-.55-.58q0-23.2,0-46.41c0-1.16-.47-2.45.59-3.45Q493.24,614.68,493.2,639.89Z" transform="translate(-49.9 -128.76)"/><path class="cls-28" d="M492.66,568.75h21.88c.26.64-.21.63-.59.63H494.27A1.75,1.75,0,0,1,492.66,568.75Z" transform="translate(-49.9 -128.76)"/><ellipse class="cls-29" cx="456.2" cy="401.42" rx="11.93" ry="0.18"/><path class="cls-21" d="M479.88,511c2.34-1.27,4.87-.3,7.3-.61l1.72.08V511Z" transform="translate(-49.9 -128.76)"/><path class="cls-30" d="M405,548.12c2.13,8.06,4.28,16.13,6.39,24.2,1.77,6.74,3.44,13.51,5.29,20.23.5,1.83.15,2.35-1.71,2.33q-11-.09-21.9,0c-1.51,0-2-.42-1.6-2q5.56-19.36,11.09-38.75c.75-1.54.79-3.26,1.22-4.89h0C404.39,549.08,403.86,547.73,405,548.12Z" transform="translate(-49.9 -128.76)"/><path class="cls-31" d="M457.4,637.45c.16,1.74-.43,2.54-2.37,2.51-7.6-.09-15.19-.06-22.78,0-1.63,0-2.58-.39-2-2.74.44,1.66,1.24,2.17,2.64,2.15,7-.08,14-.32,20.95.13,2.19.14,1.83-2.48,3.58-2Z" transform="translate(-49.9 -128.76)"/><ellipse class="cls-32" cx="354.3" cy="467.1" rx="17.52" ry="0.18"/><path class="cls-33" d="M403.81,549.29a6.29,6.29,0,0,1-1.22,4.89C402.43,552.41,403.23,550.88,403.81,549.29Z" transform="translate(-49.9 -128.76)"/><path class="cls-33" d="M405,548.12l-1.22,1.18a1.76,1.76,0,0,1,.82-2C404.94,547.11,405.14,547.7,405,548.12Z" transform="translate(-49.9 -128.76)"/><path class="cls-34" d="M50.3,511.7c.55-.77,1.39-.69,2.18-.69q12.08,0,24.14,0c1.32,0,2.5,0,2.35,1.83-1.29-.8-2.73-.6-4.13-.6H57.59c-4.52,0-4.64.13-4.2,4.43a6.25,6.25,0,0,1-.14,1.24c-2-1.77-.92-4.71-3-6.23Z" transform="translate(-49.9 -128.76)"/><path class="cls-34" d="M78.86,512.48c.81,1.25.87,2,.45,2.84C78.66,514.51,79.13,513.62,78.86,512.48Z" transform="translate(-49.9 -128.76)"/><path class="cls-35" d="M160,445.37c-4.79.71-4.76-2.35-4.43-5.65a2,2,0,0,1,1.18-.67l.69.08.6.36c1.8,2.59,4.48,1.31,6.72,1.31q144.71.1,289.41.06c-2.05,2-4.64,1.08-7,1.09q-141.15.07-282.3,0H159c5.72,2.58,11.69,3.36,17.75,4C171.14,446.06,165.52,447.57,160,445.37Z" transform="translate(-49.9 -128.76)"/><path class="cls-27" d="M326.81,453.26c-2.24,2-5,1-7.46,1-9.46.09-18.92,0-28.38-.08,4.23-2.07,8.71-.73,13-.87C311.61,453.08,319.22,453.26,326.81,453.26Z" transform="translate(-49.9 -128.76)"/><path class="cls-36" d="M453,132.4c1.36,2,.9,4.35.9,6.57q0,146.84.13,293.67c0,5.23-1.14,7.11-6.72,7-21.38-.31-42.76-.12-64.15-.11a1.27,1.27,0,0,1,.64-1.68c4.24-1.52,8.64-.51,13-.84q4.54,0,9.07,0,6.12,0,12.24,0c3.74,0,7.48,0,11.22,0,4.29,0,8.59,0,12.88,0,2.62-.61,6.09,1.73,7.72-2.26a39.25,39.25,0,0,0,.25-6.76q0-142.08,0-284.17c0-8.5-.33-8.83-8.86-8.91-3.13.2-6.25-.26-9.38,0-2.72,0-5.43-.13-8.15-.05-3.73,0-7.45,0-11.18,0-2.76-.22-5.69.52-8.12-1.47a1.25,1.25,0,0,1,.77-1.71c14.7-.17,29.4,0,44.1-.06C450.56,131.65,452,131.23,453,132.4Z" transform="translate(-49.9 -128.76)"/><path class="cls-27" d="M156.63,439.74l-1,0q0-154.32,0-308.63l2.14,0,.51,1c0,.37.05.75.07,1.12-.17,98.93,0,197.86-.1,296.8C158.18,433.27,159,436.79,156.63,439.74Z" transform="translate(-49.9 -128.76)"/><path class="cls-37" d="M160,439.56l-1.95-.07v0c-1.56-1.59-.79-3.57-.79-5.35q-.06-148.26,0-296.5c0-1.81-.67-3.77.72-5.42l0,.17c1-1,1.78-.85,2.52.27a6.4,6.4,0,0,1,.32,2.13c-.29,15-.1,30-.11,45q-.09,128.82-.06,257.64A4,4,0,0,1,160,439.56Z" transform="translate(-49.9 -128.76)"/><path class="cls-4" d="M160,132.48l-2-.07-.27-1.36,290.72,0c1.6,0,3.46-.57,4.56,1.32l-48.41-.06c-4.49,2.63-9.41,1-14.13,1.38-2.38.2-4.8.05-7.21.06-7.51,0-15,0-22.54,0-6.81,0-13.62,0-20.43,0q-14.72,0-29.43,0-71.05,0-142.1,0C165.8,133.74,162.7,134.37,160,132.48Z" transform="translate(-49.9 -128.76)"/><path class="cls-38" d="M160,439.56l0-.83c2-2.21,4.79-1.9,7.37-1.9,55.3,0,110.6-.17,165.9.21a11.73,11.73,0,0,1,5,.7,1.6,1.6,0,0,1,.9,1.82Z" transform="translate(-49.9 -128.76)"/><path class="cls-39" d="M339.18,439.56c0-.27.06-.54.1-.81,3.41-3,7.54-1.2,11.33-1.73,9.22.05,18.45,0,27.68,0,1.8.11,3.67.06,4.93,1.72,0,.26-.05.52-.07.79Z" transform="translate(-49.9 -128.76)"/><path class="cls-1" d="M158,132.24c-.05,12.38-.13,24.76-.13,37.14q0,131.7,0,263.39c0,2.25.14,4.49.21,6.74l-1.41.23q0-150.35.05-300.67C156.68,136.79,155.55,134.14,158,132.24Z" transform="translate(-49.9 -128.76)"/><path class="cls-39" d="M431.65,133.42l9,0c4,.15,5.4,1.94,4.37,6-.74,2.89-.31,6-.31,9q0,138.21-.12,276.41c0,6.11.3,11.1,7.34,12.71-2.89,2.11-6.13.69-9.21.93-3.41-1.45-8,1.08-10.6-3.21q-.09-45.57,0-91.14,0-99-.08-198C432,141.85,433.67,137.56,431.65,133.42Z" transform="translate(-49.9 -128.76)"/><path class="cls-40" d="M451.93,437.49c-9,0-9,0-9-8.77V143c0-1.69-.59-3.72.15-5,1.85-3.22-.77-3.52-2.41-4.58,11.28-.2,11.28-.2,11.28,10.54Z" transform="translate(-49.9 -128.76)"/><path class="cls-41" d="M431.65,133.42c1.13,1.55,3.15.67,5,1.49-3.73,1.53-2.73,4.42-2.73,6.84q0,86.35,0,172.72,0,57.12,0,114.22c0,2.6.38,5.28-1.12,7.67-1.11,1.17-2.53,1.06-3.95,1-1.12-.23-2.09-.62-2.24-2,.22-95.93,0-191.86.1-287.79a72.21,72.21,0,0,1,.23-9.54c.27-.88,1.36-1.92-.59-2.39-1.17-.28-2.67-.39-2.55-2.23Z" transform="translate(-49.9 -128.76)"/><path class="cls-38" d="M404.61,133.22l7.88.16c1.29,1.37,3.77-.68,4.73,1.65a12.59,12.59,0,0,0-3.21,9.71c.4,6.12-.57,12.31.75,18.38.63,2.91-.77,4.15-3.31,4.74a7.48,7.48,0,0,1-3.9-.66c-4-1.45-8.17-.68-12.25-.74-9.17-.12-18.35,0-27.52-.06-2.39,0-4.91.4-7-1.29-.34-3,2.06-2.61,3.7-2.81a78.08,78.08,0,0,1,8.38-.16c4.85,0,9.7,0,14.55,0,3.93,0,7.87,0,11.8,0,3-.4,5.71,1.51,9.08.88.39,0-.35-.9-.24-.16,0,.16-.15.24-.51.23-1.1,0-2.24.22-3.22-.53-.12-9-.79-18.08.64-27.1-.59-.06-1.63.57-2.75.36-1.55-.33-3.33-.36-3.39-2.62A8.14,8.14,0,0,1,404.61,133.22Z" transform="translate(-49.9 -128.76)"/><path class="cls-42" d="M383.22,438.77l-4.69-.33c-2.86-.93-5.83-.08-8.72-.51-1.61-.75-3.77,0-5-1.84,1.54-8.56,1.2-17.14.11-25.71,1.53-1.49,3.48-1.37,5.38-1.44a11.49,11.49,0,0,1,4.43.68c2.9,1.54,3.25,4.29,3.36,7.16.21,5.21-.37,10.41-.05,15.63.12,1.88.56,2.4,2.42,2.78,4.79,1,9.64.71,14.46,1.13a5,5,0,0,1,1.51.68,1,1,0,0,1,.4.94c0,.35-.11.52-.19.52Z" transform="translate(-49.9 -128.76)"/><path class="cls-37" d="M396.7,437.49h-1.12c-2.12-1.62-5.06.66-7.07-1.48a83,83,0,0,0,.69-20.71c-.4-5.83.26-6.64,6.26-6.31a8.17,8.17,0,0,1,3.26.74c2.65,1.57,2.82,4.23,2.89,6.88.13,4.5.06,9,0,13.49,0,2.13-.06,4.26,2.82,4.63,3.27.15,6.4,1.39,9.7,1.28a7.35,7.35,0,0,1,3.5.87,1,1,0,0,1,.4,1.53l-12.47.05C402.73,437.25,399.55,438.89,396.7,437.49Z" transform="translate(-49.9 -128.76)"/><path class="cls-43" d="M417,134.43c-1.55-.15-3.28.5-4.5-1.05l11.28,0c.88,2,3.8-.26,4.49,2.15a5.88,5.88,0,0,1-1.88,1.32c-2.61,1.09-1.85,3.43-1.88,5.36-.21,10.31-.26,20.62.26,30.92.09,1.86.44,3.74-1.17,5.24-2.61-.39-2-3.53-4-4.38-.45-.31-.86-.64-1.27-1-1.44-2-4.77-3-3.29-6.43,2.44-1,1.57-3.08,1.57-4.81,0-6.7.27-13.42-.13-20.09C416.35,139.18,418.62,136.94,417,134.43Z" transform="translate(-49.9 -128.76)"/><path class="cls-40" d="M404.61,133.22l-5.66.18a4.14,4.14,0,0,1-1.62,1c-4.48.41-9,1-13.38-.48a1.76,1.76,0,0,1-.8-1.65l21.43,0Z" transform="translate(-49.9 -128.76)"/><path class="cls-44" d="M429.38,436.36h3.39a27.16,27.16,0,0,1,10,2.07l-13.42,0a1.55,1.55,0,0,1-.55-1.05A1.62,1.62,0,0,1,429.38,436.36Z" transform="translate(-49.9 -128.76)"/><path class="cls-38" d="M429.38,437.49a5.62,5.62,0,0,1-.08.92H418.07c0-.31,0-.61,0-.92a4.81,4.81,0,0,1,3.61-1.47A16.36,16.36,0,0,1,429.38,437.49Z" transform="translate(-49.9 -128.76)"/><path class="cls-45" d="M396.7,437.49c3,.43,6.11-1,8.91,1h-8.93C396.69,438.14,396.7,437.81,396.7,437.49Z" transform="translate(-49.9 -128.76)"/><path class="cls-25" d="M350.4,438.48l-11.12.27c-19.85-.05-39.71-.13-59.56-.13q-59.85,0-119.69.11c-1.8-1.68-1-3.88-1.05-5.85q0-146.83,0-293.68c0-1.95-.85-4.16,1-5.82,1.72-1.13,3.65-.59,5.48-.59q62.13,0,124.27,0c7.46,1.16,15,.21,22.48.58,1.54.08,3.94-.52,4,1.77.05,1.67-2.21,2-3.61,1.9-5.62-.24-7.11,2.73-6.73,7.74.27,3.55.13,7.14.05,10.7-.08,3.73,1.43,5.6,5.32,5.46a63.87,63.87,0,0,1,7.32.07c3-.06,5.95-.09,8.92,0,1.67.1,3.34-.11,5,0,2.37.18,4.93-.32,6.75,1.86a1.53,1.53,0,0,1-.92,1.72c-2.71,1.09-5.56.7-8.35.7q-58.75,0-117.53,0c-2.6,0-5.26-.35-7.78.6A18.47,18.47,0,0,1,203,167c-7.44,2.82-10.25,7.94-10,16.1.5,20.39.15,40.81.18,61.22,0,2.59-.36,5.3,1.56,7.49,4.65,6.14,11.18,10.31,16.49,15.76,2.67,2.83,5.44,5.55,8.24,8.25,14.27,13.28,27.86,27.27,42.3,40.37,6.4,5.75,12.2,12.11,18.41,18.06a64.09,64.09,0,0,1,6.42,7.06c5.14,6,10.38,12.18,16.74,16.56,4.75,3.26,4.82,4.52,3.28,10-1.77,6.34-3.33,14.09,1.55,20.87,2.2,3.06-1,4-3.45,4.53-2.74-.35-4.25-2.33-5.75-4.32-2.46-3.14-4.7-6.53-8.83-7.78-5.49-2.08-8.85-6.9-13-10.57-12.62-11.19-25.11-22.53-37.66-33.8-14.51-13-29.08-26-43.58-39-.69-.63-1.43-1.28-2.4-.43-.72,8.29-.31,16.54-.29,24.78.06,24-.34,48,.22,72,1.36,5.75,4,10.44,10.19,12.16,34.56.46,69.11,0,103.66.23,8.82.05,17.64-.58,26.44.44a3.22,3.22,0,0,1,2.38,3.24c-.95,1.24-2.34,1.46-3.75,1.66-3,.26-6,0-9,.13q-6.19.11-12.38,0c-3.64-.06-5.06,1.62-5,5.12.1,3.75.13,7.51,0,11.25-.15,4.89,2.66,6.65,6.93,7,8.06.64,16.12.49,24.2.33a73,73,0,0,1,9,.13C347.83,436.1,350,435.87,350.4,438.48Z" transform="translate(-49.9 -128.76)"/><path class="cls-46" d="M290.79,133.4l-130.77,0c0-.3,0-.6,0-.9a33.9,33.9,0,0,1,3.87-.42q72.47,0,144.92,0c.74,0,1.49.12,2.23.19.36.77.13,1.27-.69,1.51C303.82,133.67,297.29,134.36,290.79,133.4Z" transform="translate(-49.9 -128.76)"/><path class="cls-38" d="M311.08,133.19c0-.3,0-.61-.05-.91h29.31a1.18,1.18,0,0,1-.49,1.66c-2.16,1.16-4.52.79-6.81.92-4.7-.05-9.4.12-14.09-.09C316.48,133.47,313.55,134.44,311.08,133.19Z" transform="translate(-49.9 -128.76)"/><path class="cls-41" d="M383.15,132.31c0,.28,0,.57,0,.85-.23.24-.45.49-.67.74-4.1,1.77-8.43.59-12.65,1-2.91-.16-5.91.43-8.71-.9a1.19,1.19,0,0,1-.5-1.66Z" transform="translate(-49.9 -128.76)"/><path class="cls-43" d="M360.63,132.3c0,.3,0,.6,0,.9-2.29,2.39-5.29,1.39-8,1.69-4.12-.3-8.49,1.18-12.25-1.7,0-.3,0-.61,0-.91Z" transform="translate(-49.9 -128.76)"/><path class="cls-47" d="M332.46,410.45h3.37c1.95-1.92,4.46-1.5,6.82-1.5a10.41,10.41,0,0,0,5.76-1.61,31.72,31.72,0,0,1,12.8-.19c1.47.73,3.25,1.22,2.86,3.48-1.28,1.21-2.91,1.27-4.52,1.39-2.79.18-5.62-.31-8.3.28,1.52,6.08.77,12.24.67,18.34-.05,3.11.9,4.41,4,4.74a106.74,106.74,0,0,1,13.77,2.11c3,.44,6.09-.94,8.88,1l-28.13,0c-4.35-2.07-9-.49-13.43-1-1.36-1.45-3.93.53-5-1.76C332.14,427.29,331.35,418.85,332.46,410.45Z" transform="translate(-49.9 -128.76)"/><path class="cls-48" d="M429.38,437.49l-7.87,0a2.94,2.94,0,0,1-.59-2c2.16-11.16.84-22.43.9-33.64,0-3.74.41-7.44.4-11.17-.09-42.17.06-84.34-.29-126.5,0-3.26.94-6.8-1.64-9.68a4.6,4.6,0,0,1-.58-2.07c.39-25.26.26-50.52,0-75.78,0-1.29-.45-2.6.42-3.79,2.36.51,2.34,2.77,3.07,5.66,0-13.57,0-25.85,0-38.13,0-2.14-.83-4.74,2.77-4.79,1.75,2.34,1.09,5.07,1.09,7.63,0,54.79.14,109.58,0,164.37-.07,23.45.93,46.89.54,70.33-.32,19.49-.56,39-.48,58.47h2.25Z" transform="translate(-49.9 -128.76)"/><path class="cls-44" d="M427.13,436.36c-1-.17-1.51-.48-1.46-1.8.23-5.42.5-10.87.29-16.29-.69-18,1.89-35.9,1.17-53.88-2.37-59-.59-118.1-1.1-177.15-.15-17.22,0-34.45,0-51.68h2.25q0,146.57,0,293.13C428.25,431.29,428.64,434,427.13,436.36Z" transform="translate(-49.9 -128.76)"/><path class="cls-49" d="M194.81,253.93c-3.13-1.35-3.36-4-3.36-6.94.07-22.41,0-44.82.05-67.23,0-7.87,2.89-11.5,10.79-13.95,2.45-1.34,5.13-.94,7.73-.94q55.74,0,111.47,0c7.88,0,15.79-.65,23.61-.3,20.6.92,41.2.83,61.8.88A3.89,3.89,0,0,1,409,166c.76.63,1.54,1.13,2.53.41.95.37,2.16-.2,2.95.8,1.29,2.1,4.13,2.88,4.71,5.57a17.86,17.86,0,0,1,1.72,8.65q-.09,34.2,0,68.38c-.67,3.51-2.89,6-5.62,8-1.81,1.35-3.79,2.05-4.74-1.07-.05-2.37,1.48-3.71,3.19-4.92,3.11-1.25,2.36-3.66,1.8-6-.32-19.71-.06-39.4-.15-59.09,0-2.62.24-5.27-1.17-7.68-2.51-5.67-7-7.92-13-7.92q-95.71,0-191.43,0a16.66,16.66,0,0,0-13.22,6.19,3.18,3.18,0,0,1-1.84.5c-1.84.62-.26,1.88-.43,2.81a22.31,22.31,0,0,0,0,3.92q0,28.39,0,56.79c0,2.41-.41,4.89.7,7.19.93,1.11,2.09,2.11,2.3,3.63C197.59,254.16,196.73,254.81,194.81,253.93Z" transform="translate(-49.9 -128.76)"/><path class="cls-50" d="M409,166H207.92c-1.88,0-3.75-.12-5.63-.18a5.72,5.72,0,0,1,.58-.87c1.91-1.21,4-.6,6-.6q61.79-.06,123.58,0c7.28,0,14.47-1.75,21.79-1.05,2.2.21,4.55-.24,6.35,1.56,14.21.06,28.42.09,42.62.24C405.17,165.08,407.37,164.12,409,166Z" transform="translate(-49.9 -128.76)"/><path class="cls-51" d="M402.34,134.43h6.6c-3.15,1.1-3.18,3.39-3.3,6.06-.32,7.37,1.27,14.83-1,22.09-1.47,1-3.13.38-4.7.56-1.24-.18-2.72.52-3.61-1-.48-6.71.13-13.42-.18-20.12C395.9,137.47,397.19,134.46,402.34,134.43Z" transform="translate(-49.9 -128.76)"/><path class="cls-52" d="M402.34,134.43c-3.6,1.12-4.63,3.41-4.66,7.25-.06,7,1.42,14-1,20.9-1.83,1.12-3.84.33-5.74.56-2.5-.58-1.6-2.65-1.65-4.13-.18-6,.13-12-.08-17.94-.17-4.81,1.65-7,6.46-6.76a7.94,7.94,0,0,0,2.09-.86l1.16,0C399.82,134.62,401.12,134.39,402.34,134.43Z" transform="translate(-49.9 -128.76)"/><path class="cls-47" d="M360.62,164.82q-59.43.15-118.88.28c-13,0-25.91-.1-38.87-.16,1.79-2.1,4.21-1.17,6.34-1.17q65-.11,130-.09c4.09-3,9.07-.45,13.37-2.17a31.18,31.18,0,0,1,6.82-.52c2.56.11,5.12-.05,7.68,0,1.92.16,3.9,0,5.64,1.06a1.2,1.2,0,0,1,.33,1.68C368.92,164.32,364.6,162.63,360.62,164.82Z" transform="translate(-49.9 -128.76)"/><path class="cls-53" d="M414.52,167.19l-3-.8c.67-.73,2.87-.14,2.28-1.66-2.93-7.56-.45-15.39-1.41-23-.5-3.88.95-6.16,4.56-7.28h3.56c-2.7,3-3.6,25.14-1.59,34C417.24,168.62,416.12,166.57,414.52,167.19Z" transform="translate(-49.9 -128.76)"/><path class="cls-54" d="M373,163.75l0-1.14a3.34,3.34,0,0,1,1.51-1.06c2.43-.65,4.92-.44,7.39-.46,1.88,0,3.77,0,5.46,1a1.13,1.13,0,0,1,.29,1.62Z" transform="translate(-49.9 -128.76)"/><path class="cls-55" d="M387.67,163.7c0-.36,0-.72,0-1.09a1.57,1.57,0,0,1,2.28,0h6.76l3.35,0c.39.24.51.47.38.71s-.26.35-.39.35Z" transform="translate(-49.9 -128.76)"/><path class="cls-56" d="M400.05,163.68c0-.35,0-.71,0-1.06l4.54,0h4.29l0,1.1Z" transform="translate(-49.9 -128.76)"/><path class="cls-57" d="M369.65,437.48a115.18,115.18,0,0,1-16.16-.87c-3.14-.46-3.27-1.43-3.11-4.12.33-5.4.65-10.91-.05-16.23s1.1-6.6,5.81-5.84a22.27,22.27,0,0,0,3.37,0c2.61,1.37,2.61,3.87,2.67,6.3.11,4.29.21,8.58,0,12.86-.16,2.88.66,5.09,3,6.75C366.7,436.52,368.47,435.84,369.65,437.48Z" transform="translate(-49.9 -128.76)"/><path class="cls-58" d="M388.82,436.36c2.25.36,4.78-.92,6.76,1.12-6.36.41-12.62-.46-18.75-1.45-1.31-8.34,1.83-17.14-1.54-25.58l.71-.67a12.24,12.24,0,0,1,8.52-.14c3.07,1.35,3.53,4.08,3.57,7,.06,5,.22,10-.13,15.06C387.85,433.33,387.31,435,388.82,436.36Z" transform="translate(-49.9 -128.76)"/><path class="cls-59" d="M365.14,436.36c-3.62.6-4.78-.35-4.71-4.53.13-7.11,1.48-14.36-.92-21.38H364a.76.76,0,0,1,1.15,0c1,1.26,2.34,2.23,2.29,4.25q-.22,8.7,0,17.41C367.49,434.13,366.18,435.09,365.14,436.36Z" transform="translate(-49.9 -128.76)"/><path class="cls-57" d="M365.15,410.45H364l-2.28-1.9c2.08-2.56,4.72-1.83,7.34-1.27,1.28.67,2.17,1.56,1.72,3.17Z" transform="translate(-49.9 -128.76)"/><path class="cls-54" d="M370.78,410.44l-1.14-1.9c1.55-2.08,3.45-1.8,5.46-.81a1.89,1.89,0,0,1,.19,2.72h-4.51Z" transform="translate(-49.9 -128.76)"/><path class="cls-53" d="M375.23,408.53H361.72l-13.52,0a24.85,24.85,0,0,1-13.47,0q-63-.11-126.08-.24c-2.34,0-4.9.84-7-1a4.29,4.29,0,0,1,2.89-1.58c7.87-.4,15.74-.17,23.6-.17q87.71,0,175.4,0a19.26,19.26,0,0,0,5.3-.38c1.68-.35,3.43-.49,4.87-1.58.39-.29.79-.55,1.19-.81,1.66-.8,2-2.8,3.41-3.81a2.46,2.46,0,0,1,1.62.45c2.05,1.89,1,4,.65,6.21-1.58,9.22-1,18.5-.39,27.76a6.32,6.32,0,0,0,1.31,3c0,.37,0,.74,0,1.11l-3.4,0h-3.37c-3.07-.45-4.15-2.07-3.94-5.26.47-7.07-.36-14.19.45-21.23.41-3.61-1.81-.85-2.64-1.36a51.43,51.43,0,0,1-9.77-.19,61.18,61.18,0,0,0-11.24.2C383.5,409,379.25,410,375.23,408.53Z" transform="translate(-49.9 -128.76)"/><path class="cls-38" d="M409,408.29l4.3-1.15c-2,9.33,0,18.68-1.21,27.9-.22,1.67,2.18,1.14,2.63,2.44l-10.15-1.13c-1.18-8.28-.15-16.62-.6-24.92C404.57,408.64,407.7,409.91,409,408.29Z" transform="translate(-49.9 -128.76)"/><path class="cls-51" d="M404.6,410.45a62.79,62.79,0,0,1,0,25.9c-3.62.61-4.78-.34-4.71-4.52.13-7.11,1.48-14.37-.93-21.39l.65-.61C401.37,409.24,403.09,409,404.6,410.45Z" transform="translate(-49.9 -128.76)"/><path class="cls-45" d="M387.59,408.53l11.27,0a1.15,1.15,0,0,1,.09,1.94h-8.78c1.69,8,.77,15.69.64,23.36,0,.86-1.3,1.7-2,2.56-1.38-.38-3.61,1.52-2.71-2.76,1.32-6.25.36-13,.46-19.49,0-1.81-1.48-2.47-2.27-3.67C385.06,409.22,386.62,409.38,387.59,408.53Z" transform="translate(-49.9 -128.76)"/><path class="cls-60" d="M420.29,251.62c0-23.73.08-47.45,0-71.17a53.68,53.68,0,0,0-1.08-7.69c.31,0,.63,0,.94.06a23,23,0,0,1,1.58,8.16c-.08,22.21,0,44.43-.08,66.65,0,1.74.73,3.81-1.3,5.08-.35-.22-.47-.45-.38-.71S420.18,251.62,420.29,251.62Z" transform="translate(-49.9 -128.76)"/><path class="cls-46" d="M397.79,133.45l-1.11,1c-2.82.9-5.87.49-8.68,1.49-1.84-.35-4.28.43-4.75-2.49l-.09-.28Z" transform="translate(-49.9 -128.76)"/><path class="cls-35" d="M410.22,406a4.86,4.86,0,0,1-4.48,1.09c-9.78-1.41-19.62-.22-29.42-.68-1.91-.09-4.11,1-5.72-1,1.42-2.75,4.08-2.17,6.37-2.22,7.26-.13,14.54-.34,21.78,0,7.58.39,13-2.37,16.28-9.21a9.8,9.8,0,0,0,1.52-5.86q0-41,0-81.94c0-1.28.27-2.65-.79-3.67-3.36.77-5.29,3.51-7.57,5.59q-32.37,29.59-65,58.92c-10.86,9.79-21.68,19.62-32.57,29.37-3.29,3-5.95,3-9.28,0-19.63-17.41-39.38-34.68-59-52.1q-21-18.67-42.24-37.11a32.53,32.53,0,0,1-3.59-3.55,16.9,16.9,0,0,0-2.87-2.24c-1.45-1.86-.24-4.29-1.3-6.25.21-.76.49-1.38,1.45-.82q36.06,32.15,72.12,64.29c8.1,7.21,16.28,14.31,24.43,21.46,3.88,1.87,6.33,5.35,9.26,8.29a11.54,11.54,0,0,0,4.44,4c2.47,1.31,3.77-.59,4.92-2.08a29.31,29.31,0,0,1,5.21-5.46c5.54-3.75,9.4-9.33,14.58-13.47,5.19-3.4,8.73-8.62,13.55-12.43,4.57-2.55,7-7.39,11.13-10.42,5.93-3.2,9.44-9.11,14.66-13.11,3.88-2.36,6.63-6,9.88-9A42.78,42.78,0,0,1,381.9,323c5.17-3.73,9.29-8.53,13.51-13.23,6.06-3,9.54-8.88,14.74-12.83a26,26,0,0,0,5.05-4.44c1.41-1.49,2.87-2.6,4.57-.31,1.21,2.06,1,4.35,1,6.58.06,4.49.16,9,0,13.47C420,333.14,422.09,354,422,375c0,7.3-.07,14.58-1.56,21.76a5,5,0,0,1-1.75,2.61c-.21.32-.41.65-.62,1-.72,1.5-2.16,2.38-3.18,3.62l.06-.05C413.41,404.68,411.69,405.09,410.22,406Z" transform="translate(-49.9 -128.76)"/><path class="cls-61" d="M314.55,386c-2.17,2.18-4.3,4.38-6.5,6.51-1.28,1.24-2.68,2.07-4,0a4.48,4.48,0,0,0,4-2.62c-5.54-1.63-5.56-20.64-.73-27-8.64-5.86-15.59-13.42-22.06-21.52a2.76,2.76,0,0,1,2.35-.1c4.27,3.08,7.61,7.16,11.34,10.81,7.06,6.92,7,7,13.82.17,2.25-2.25,4.44-4.55,6.77-6.71,1.93-1.79,3.91-3.54,6.8-3.46,4,1.92,1,4.07-.32,5.08-9,7.1-4.76,16.95-5.58,25.71-.3,3.19,3.58-.38,4.13,2.59C322.09,379.41,317.87,382.3,314.55,386Z" transform="translate(-49.9 -128.76)"/><path class="cls-62" d="M332.46,436.36c1.55.16,3.32-.52,4.51,1.12-9.28-.49-18.59.85-27.89-.92-3.63-.7-4.74-2.42-4.78-5.55-.05-5.59.09-11.2-.05-16.79-.08-3,1.32-3.86,4.07-3.8,5,.11,10.08,0,15.12,0,2.39,1.23,2.59,3.49,2.68,5.77a60.89,60.89,0,0,1,0,9.55C325.53,431.06,326.21,435.29,332.46,436.36Z" transform="translate(-49.9 -128.76)"/><path class="cls-63" d="M311.08,133.19l7.87.19c4.43,1.12,8.93.19,13.4.52a1.64,1.64,0,0,1,1.54.83c0,.31-.09.62-.13.94l-.74.61a11.09,11.09,0,0,1-4.69.84c-7.65.38-7.45.42-7.82,8-.28,5.83,1.62,11.89-1.58,17.45-14.65,0-14.71,0-14.61-14.43,0-3.88-1.5-8.45.72-11.47s7-.2,11.07-1.75c-8.76-1.65-17.21,1-25.32-1.55Z" transform="translate(-49.9 -128.76)"/><path class="cls-64" d="M318.93,162.6c0-6.85.29-13.72-.09-20.55-.28-4.93,1-7.4,6.35-6.52a24,24,0,0,0,3.89,0c2.92,6.39,2.23,22.78-1.13,27Z" transform="translate(-49.9 -128.76)"/><path class="cls-65" d="M339.22,162.61l-6.76,0c-.5-9.05-2.14-18.14,1.12-27h0c2.07-1.71,4.48-1,6.79-1,3.26,1.37,3.88,4.23,4,7.29.17,5.18,0,10.36,0,15.54,0,3-1,5.07-4.36,5.16Z" transform="translate(-49.9 -128.76)"/><path class="cls-66" d="M332.46,436.36c-7.9,0-7.7,0-8-8.1-.19-5.94,1.24-12-1.06-17.81h9A62.84,62.84,0,0,1,332.46,436.36Z" transform="translate(-49.9 -128.76)"/><path class="cls-67" d="M193.85,301.2c1.27,0,2.66-.43,3.31,1.21-.75,4.27-.43,8.57-.42,12.85,0,27.17-.26,54.33.21,81.49-2.27,3.67-3-.46-4.49-.87-1.47-1.59-.89-3.56-.89-5.37q0-46.38.09-92.75c0-1.07-2.1-4.56,2.13-3.33l-.95,1.2c.79,1.42.4,2.94.4,4.42q0,44.74,0,89.49a17.65,17.65,0,0,0,.08,3.94c-.12-15.06,0-30.66-.05-46.25q0-20.26,0-40.52C193.31,304.87,192.8,303,193.85,301.2Z" transform="translate(-49.9 -128.76)"/><path class="cls-68" d="M261.35,317.22c-7.51-5.64-13.71-12.69-20.55-19.05-7.57-7-14.87-14.35-22.3-21.55-.6-1.95.92-2.33,2.17-2.91a61.2,61.2,0,0,1,19,16.47,4.79,4.79,0,0,0,3.45,3.36c6,3.49,11.17,7.75,14.1,14.23-1.36.82-1.22,1.39-.11,2.6C258.93,312.33,262.23,313.54,261.35,317.22Z" transform="translate(-49.9 -128.76)"/><path class="cls-69" d="M193.82,177.24l1.31.09c2,2.41,1.46,5.33,1.47,8.07q.09,27.53,0,55c0,3.38.57,5.6,4.62,4.63a3.64,3.64,0,0,1,1.62.58c.07.16.26.36.21.48-2.32,6.76-2.24,6.66,3.94,12.06,2.67,2.34,6.25,4.17,6.36,8.51-.63,1.31-1.25,2.64-3.13,2l-15.4-14.77c.65-.2,1.67-.15,1.59-1.1a2.44,2.44,0,0,0-2.58-2.36c-.8-1.19-.53-2.53-.53-3.82q0-32.79,0-65.6C193.29,179.77,193,178.42,193.82,177.24Z" transform="translate(-49.9 -128.76)"/><path class="cls-66" d="M333.58,135.56c0,7,0,14.08,0,21.12,0,2.06,0,4.08-1.14,5.91H328c2.18-8.93.68-18,1.13-27Z" transform="translate(-49.9 -128.76)"/><path class="cls-19" d="M261.35,317.22c-1.74-4.05-6.11-5.91-8.24-9.73,1.46-.92,2.49.78,3.76.44a4.46,4.46,0,0,1,2.45,1.67c1.78,2.11,4.2,3.56,6,5.68a15.57,15.57,0,0,0,5,5.27,7,7,0,0,1,1.06,1,9.36,9.36,0,0,0,6.24,4.59,4,4,0,0,1,1.26.86c.82,3.31,4.91,4.53,5.22,8.17a3.24,3.24,0,0,1-2.29.73,5.52,5.52,0,0,1-2.29-1C273.28,329.21,266.84,323.7,261.35,317.22Z" transform="translate(-49.9 -128.76)"/><path class="cls-70" d="M210.21,268.7l2.81-2.46c4.43.73,6.88,3.49,7.9,7.71l-2.42,2.67Z" transform="translate(-49.9 -128.76)"/><path class="cls-35" d="M192.46,395.88c1.86-.37,2.41,1.42,3.58,2.18,2.63,2.4,5.45,4.56,8.3,6.69a1.84,1.84,0,0,1-.37,2.17l-2.32.32C196.19,405.38,193.21,401.53,192.46,395.88Z" transform="translate(-49.9 -128.76)"/><path class="cls-66" d="M334.73,408.51H348.2c-3.58,4.14-8.3.91-12.37,1.92Z" transform="translate(-49.9 -128.76)"/><path class="cls-61" d="M299.6,388.47a46.51,46.51,0,0,1-9.26-8.29C295.05,381.13,297.53,384.56,299.6,388.47Z" transform="translate(-49.9 -128.76)"/><path class="cls-71" d="M352.74,162.61c-4.36,2.28-9,.58-13.54,1.07,0-.36,0-.71,0-1.07v0c3.24-.83,6.43-1.89,9.85-1.54A5.17,5.17,0,0,1,352.74,162.61Z" transform="translate(-49.9 -128.76)"/><path class="cls-72" d="M279.46,335h2.21c2.55,1.87,6.63,2.58,5.47,7.24l-1.87-.89Q282.36,338.17,279.46,335Z" transform="translate(-49.9 -128.76)"/><path class="cls-73" d="M349.37,162.59H339.22c3-1.16,4.43-3,4-6.57-.77-6.8,1.28-13.84-1.76-20.46.14-.12.36-.38.4-.35.54.31.7-.13.35-.18-2.86-.39-5.82.59-8.63-.6h0c-.37-.22-.49-.44-.38-.67s.23-.35.35-.35l6.82-.22,12.38.21c1.67,1.45,4.46-.89,5.81,1.69-6.9,2.16-6.77,7.67-6.47,13.37a78.45,78.45,0,0,1-.07,8.94C351.9,159.51,351.51,161.5,349.37,162.59Z" transform="translate(-49.9 -128.76)"/><path class="cls-66" d="M333.56,133.41c0,.34,0,.68,0,1-4.87-.59-9.9,1.26-14.64-1.05Z" transform="translate(-49.9 -128.76)"/><path class="cls-74" d="M358.38,134.43c-1.89-.26-4,.71-5.62-1l7.89-.19,9,.21c2.86,1.17,6.08-.19,9,.91-.28,2.32-1.91,2.27-3.27,2.61-4.25-.43-6.17,1.2-5.89,5.74.29,4.84.09,9.72.08,14.58,0,2.08.06,4.18-2.18,5.34h-7.88c-1.07-7.91-.38-15.84-.27-23.77,0-.55,0-1.29.38-1.59C363.09,134.52,358.72,135.38,358.38,134.43Z" transform="translate(-49.9 -128.76)"/><path class="cls-75" d="M374.16,135.56h3.92c-3-2.22-6.25.14-8.4-2.15l13.56,0c1.22,1.5,2.93.83,4.44,1,.36,2.2-1.78,2-2.79,2.83-1.52,1.3-2.66,3.07-2,4.87,1.91,5.06-1.13,10.2.57,15.28a5.19,5.19,0,0,1-1.43,5.17h-7.88c-2.06-2.31-2-5.21-1.74-7.93C373,148.28,370.69,141.65,374.16,135.56Z" transform="translate(-49.9 -128.76)"/><path class="cls-76" d="M287.14,342.22c-.59-3.34-4.2-4.41-5.47-7.24H284c2.93.78,4.33,3.47,6.51,5.18,3,3,6,6,9,9,4.93,4.85,5.32,4.83,10.21,0,.52-.51,1.1-1,1.66-1.46,2.4-2.22,4.48-4.76,6.86-7a13.58,13.58,0,0,1,5.27-4.84c5.08-2.34,7.86-7.19,11.66-10.92,5.51-5.69,12.48-9.68,17.89-15.47,4.61-4.79,9-9.84,13.7-14.51,5.42-2.62,9.2-7.18,13.36-11.29,2.86-2.8,6-5.39,7.68-9.18,1.31-2,2.79-3.85,5.22-4.58,5.12-1.7,8.64-5.39,12-9.4,1.68-2,2.86-4.93,6.33-4.49.27,2.23,1.32,2.44,2.88,1.06,2-1.82,4-3.68,6.07-5.52,0,.36,0,.73.08,1.09a6,6,0,0,1-.17,1l0,.78c-1.13,2.44-3.2,4-5.21,5.64-3.24,2.08-5.65,5.07-8.4,7.7-.52.57-1.07,1.11-1.62,1.64-4.21,4.16-9.21,7.45-13.09,12a43.63,43.63,0,0,0-5.07,5.62c-5.29,4.24-10.61,8.45-15.18,13.49-2,1.93-4,3.92-6,6-4.66,4.52-10,8.25-14.32,13.18-1.67,1.58-3.3,3.2-4.88,4.88-4.46,4.76-10.07,8.25-14.34,13.22-2.05,1.93-3.86,4.18-6.75,5-5.36,4.87-10.89,9.57-16,14.67-2.54,2.53-4,2.89-6.66.08C297.73,352.17,292.34,347.28,287.14,342.22Z" transform="translate(-49.9 -128.76)"/><path class="cls-77" d="M418.68,399.33l.55-1.35a5.59,5.59,0,0,0,1.09-1.75,41.91,41.91,0,0,0,1.18-10.59c.09-30.21-.78-60.42-.48-90.64,0-2.22.33-4.57-1.6-6.31a7.78,7.78,0,0,1-2.78-5.31,220.57,220.57,0,0,1,0-22.27c.15-3,2.75-4.79,3.61-7.42l-.06,0c4.06.58,3.55,3.67,3.55,6.47V389.55c0,13.43,0,26.87,0,40.31,0,2.5.07,4.89-2.28,6.5-1.87,0-3.38-.32-3.37-2.69,0-9,0-18,.09-27C418.25,404.22,422.38,402,418.68,399.33Z" transform="translate(-49.9 -128.76)"/><path class="cls-78" d="M202.85,246.1c-3.33-1.5-4.5,2.8-7.72,2.86V177.33c2.67-5.76,7-7.72,13.46-7.7q96.81.3,193.62,0c7,0,11.49,2.39,13.85,8.88.8,18.07.13,36.15.34,54.22,0,3.73.08,7.46,0,11.18-.05,1.56.83,3.65-1.17,4.49s-2.92-1.06-4.06-2.22a10.77,10.77,0,0,1-1.69-2.22c-1.11-2.69-.76-5.54-.79-8.34-.18-17.63.29-35.26-.27-52.87a5.82,5.82,0,0,0-2.8-3.43c-4.17-1.18-8.42-.32-12.63-.54-5.78.23-11.58-.58-17.33.57a10.29,10.29,0,0,1-3.95,0c-4.59-1.13-9.26-.41-13.89-.57q-14.78,0-29.54,0c-3.52-.08-7,0-10.56,0-6.73,0-13.45.07-20.17,0q-9.66,0-19.31,0-28.68,0-57.35,0c-1.94.14-3.88-.12-5.82-.08s-4-.29-5.94.56a5.67,5.67,0,0,0-3.3,3.52c-.43,19.25-.48,38.47.08,57.68.57,1.69,1.7,3.15,2.09,4.92a3.09,3.09,0,0,1-1.37,2.93C204.45,249.09,203.75,247.44,202.85,246.1Z" transform="translate(-49.9 -128.76)"/><path class="cls-79" d="M410.5,243.72c1.84,1.18,2.46,3.73,5.56,4.61v-69.8c1.86,1.67,1,3.88,1,5.82.13,21.35.17,42.69.23,64,.79,2.27-1.23,2.57-2.42,3.45a1.93,1.93,0,0,1-1.51,0c-2.06-2.45-4-2.58-6.44-.24-2,2-3.63,4.73-6.91,5.08a2,2,0,0,1-1.63-1.54c.33-3.61,3.58-5.09,5.5-7.55C405.86,245.91,407.45,243.56,410.5,243.72Z" transform="translate(-49.9 -128.76)"/><path class="cls-80" d="M193.82,177.24v73.23a7.32,7.32,0,0,1-1-2.47q-.1-35.38-.06-70.78c0-.32.11-.88.28-.93C193.82,176.07,193.67,176.81,193.82,177.24Z" transform="translate(-49.9 -128.76)"/><path class="cls-81" d="M413.49,251.52l1.2,0c.36.25.48.51.36.77s-.23.39-.34.39a7.09,7.09,0,0,0-3.37,3.36c-5.35,3.72-8,10.14-13.86,13.45-1.43.82-2.37,2.42-4.26,1.15-.08-3.74,3-5.43,5.26-7.37C403.28,259.15,407.14,253.72,413.49,251.52Z" transform="translate(-49.9 -128.76)"/><path class="cls-76" d="M414.71,252.72c0-.39,0-.77,0-1.16.79-1.13,2.4-1.59,2.62-3.18C419.32,251.55,416.19,251.64,414.71,252.72Z" transform="translate(-49.9 -128.76)"/><path class="cls-82" d="M382.05,162.59c-.72-6.92.71-13.86-1-20.89-.83-3.45,2.43-6.6,6.62-7.26h9c-6.66.5-6.41,5-6.3,10,.12,6,.8,12.12-.43,18.13l-2.28,0Z" transform="translate(-49.9 -128.76)"/><path class="cls-83" d="M358.38,134.43H365c-3.24.92-4.41,2.58-4.46,6.08-.12,7.36,1.31,14.82-1,22.07l-6.78,0-3.37,0c2.3-6.3,1-12.83,1-19.23,0-5,0-9,6.71-8C357.45,135.4,357.94,134.75,358.38,134.43Z" transform="translate(-49.9 -128.76)"/><path class="cls-84" d="M374.16,135.56q0,13.51,0,27l-1.15,0-5.62,0c2-7,.79-14.16.75-21.2C368.12,136.29,369.77,135.06,374.16,135.56Z" transform="translate(-49.9 -128.76)"/><path class="cls-42" d="M387.59,408.53c-.18,2.2-1.86,1.84-3.29,1.91h-9l-.06-1.92Z" transform="translate(-49.9 -128.76)"/><path class="cls-85" d="M204,406.92v-2.05c2.09-2.14,4.82-1.85,7.41-1.85,51,0,102.05-.22,153.07.12,2.24,0,4.56-.17,6.33,1.67s4.21,1.06,6.33,1.09c7.81.1,15.62,0,23.43.06,1.78,0,3.78-.61,5.2,1.16-19.29.06-38.58.17-57.87.17q-69.15,0-138.3-.1C207.7,407.18,205.84,407,204,406.92Z" transform="translate(-49.9 -128.76)"/><path class="cls-37" d="M399,410.44l-.09-1.94,10.16-.21c-.34,3-2.73,1.88-4.42,2.16Z" transform="translate(-49.9 -128.76)"/><path class="cls-86" d="M414.88,403.93a5.5,5.5,0,0,1,3.18-3.62C418,402.4,416.64,403.34,414.88,403.93Z" transform="translate(-49.9 -128.76)"/><path class="cls-86" d="M410.22,406a5.09,5.09,0,0,1,4.72-2.15A4.51,4.51,0,0,1,410.22,406Z" transform="translate(-49.9 -128.76)"/><path class="cls-87" d="M370.78,404.81c-4.11-.09-8.23-.26-12.34-.27q-75.3,0-150.59,0c-1.3,0-2.59.22-3.88.34-3.42-1.37-6.44-3.2-7.93-6.81-1.09-4.76-1.1-9.6-1.09-14.46.05-25.53,0-51.06.1-76.59,0-1.62-1.6-4.48,2.11-4.6Q227,329,256.76,355.48c15.28,13.57,30.67,27,45.93,40.61,2.1,1.87,3.46,2.79,6,.45Q361.35,348.7,414.14,301a5.06,5.06,0,0,0,.63-.91c2.89-.14,2.75,2,2.75,3.84q0,43.38,0,86.75c0,1.55-.09,3-1.55,4-3.09,7.46-6.48,9.77-14.46,9.84Q386.16,404.64,370.78,404.81Z" transform="translate(-49.9 -128.76)"/><path class="cls-88" d="M325.35,342.72a23.52,23.52,0,0,1,5.83-5.56,21,21,0,0,0,2.37-1.5c2.48-1.67,3.22-.25,2.61,1.87-1.93,6.65-.71,13.42-1.06,20.12-.11,2.19,0,2.19,2.38,4.17,1.36,1.13.27,2-.4,2.77-2.45,2.81-5.37,5.18-7.86,8A100.06,100.06,0,0,1,314.55,386c2-4.53,6.78-6.75,9.57-11.13-2.27-.43-2.89,2-5.18,2,0-7.47-.11-14.87,0-22.27.09-4.32,4.4-5.78,6.49-8.75C326.11,344.92,329.36,343.57,325.35,342.72Z" transform="translate(-49.9 -128.76)"/><path class="cls-47" d="M329.22,372.55c1.55-4.21,6-6,8.51-10.34-2.8,1.17-4.48,1.38-4.25-2.26.38-5.76.16-11.56.08-17.35,0-2.33.22-4.48,2.93-6.41-2.63-.68-3.71,1.64-5.31,1l14.45-13.6c3.2-.91,3.56.76,2,2.74-6.3,7.89-1.93,17-3.14,25.4,5.43,4,0,5.89-1.71,8.49A86.65,86.65,0,0,1,329.22,372.55Z" transform="translate(-49.9 -128.76)"/><path class="cls-89" d="M342.75,360.19c.19-2.45,3-3.19,3.71-5.63-2.26.54-3.57.49-3.43-2.53.32-6.57.27-13.17,0-19.73-.12-2.91,1.54-4.35,3.22-6,1.22-1.22,2.22-2.38-.6-2.71l4.77-4.41c2.54-1.34,4.19-3.7,6.3-5.53.81-.69,1.7-1.91,2.82-.86.93.87.36,2.1-.21,3.1a6.79,6.79,0,0,1-1.36,1.78c-3.29,2.85-3.83,6.56-3.82,10.67,0,5.5.59,11.06-.49,16.54,1.72-.29,3.6-4.35,5.53-1.6,1.29,1.85-2.18,3.35-3.5,5a8.27,8.27,0,0,1-1.8,1.34C350.49,353.47,347.18,357.41,342.75,360.19Z" transform="translate(-49.9 -128.76)"/><path class="cls-90" d="M391.07,280.89a119.11,119.11,0,0,1,13.33-12.47c3.71-1.08,2.87,1.82,2.86,3.53-.05,6.48.27,13-.14,19.46-.22,3.43,1.3,3.95,4,3.8,1.28,1.37-.52,2-.73,3-4.73,4.29-8.33,9.9-14.59,12.38a1.66,1.66,0,0,1-.54-1.48c1.44-1.87,1.46-3.91,1.4-6.26-.23-8.84-1.14-17.74.51-25.4.81-1.78-.36-1.33.39-1.25C396.48,279.25,395.3,282.17,391.07,280.89Z" transform="translate(-49.9 -128.76)"/><path class="cls-91" d="M353.87,349.59l5.45-6.5c-3.22.31-4.07,3.3-6.58,4,0-7.74.25-15.3-.08-22.82-.24-5.26,4.88-6.75,7-11.14-4.2,1.09-5.22,6-9.24,6a132.82,132.82,0,0,1,14.46-13.6,1.17,1.17,0,0,1,1.55-.06c1,1.81.1,3.26-1,4.57-6.07,7.42-2.41,16.11-3.16,24.22-.13,1.45,1.05,1.74,2.34,1s2.65-1.49,4.15-.41a1.29,1.29,0,0,1-.09,1.58C364,341.14,359.62,346.14,353.87,349.59Z" transform="translate(-49.9 -128.76)"/><path class="cls-92" d="M366.25,305.71l-1.39-.16,5.88-5.53a1,1,0,0,1,1.12-.34c.46.15.09.94.34.84.49-.2.24-.87.41-1.33,2.94-2.68,4.51-7.09,9.35-7.36a2,2,0,0,1,.49,1.44c-4.9,5.22-5.25,11.73-4.64,18.25.39,4.25-1.78,9,2,12.77.62.62-.69,2-1.1,3a57.52,57.52,0,0,1-10.06,9.22l-.17-1.52c.34-1.75,2.3-2.22,2.81-3.39-3.14,2.64-4.34.82-4.38-2.5-.08-6.28-.42-12.57.22-18.84C367.32,308.66,368.13,306.9,366.25,305.71Z" transform="translate(-49.9 -128.76)"/><path class="cls-53" d="M410.37,298.19l1-2.66c-.25-10.4-.65-20.8-.29-31.2a6,6,0,0,1,.68-1.39c.69-1,1.84-1.48,2.51-2.48a3.1,3.1,0,0,0,.24-1.28,16.37,16.37,0,0,1,5.76-5.49c-3.44,9.14-1.74,18.67-2.18,28-.11,2.41.35,4.4,2.29,5.92a5.72,5.72,0,0,1-1.13,2.61,3.39,3.39,0,0,1-1.06,1C415.6,293.58,413.63,296.6,410.37,298.19Z" transform="translate(-49.9 -128.76)"/><path class="cls-86" d="M418.18,291.23a8.22,8.22,0,0,1,0-1.11c2.09-1.41,3.52-1.16,3.81,1.6a36.78,36.78,0,0,1,0,3.93q0,46.88,0,93.76c0,3-.23,5.94-1.78,8.62l-.54.1-.52-.15a206.69,206.69,0,0,0,1-38c-1.32-21.29-.71-42.58-.94-63.87A9.76,9.76,0,0,0,418.18,291.23Z" transform="translate(-49.9 -128.76)"/><path class="cls-56" d="M395.56,309.06c.08.5.15,1,.22,1.51-3.23,5.83-8.72,9.37-13.62,13.51-1.19-2.88,1.6-4.06,2.55-6,1.43-4.93-.11-9.92.28-14.87.36-4.61-.41-9.27.55-13.87.28-1.16,1.2-2,1.72-3a7.76,7.76,0,0,1,1.11-1.94c1-1,1.85-2.89,3.49-2.2s1,2.63.87,4.06c-.38,6.55.1,13.12-.28,19.67C392.3,308.58,393.47,309.05,395.56,309.06Z" transform="translate(-49.9 -128.76)"/><path class="cls-93" d="M385.43,319.19c-.68,1.9-3,2.71-3.27,4.89a7.35,7.35,0,0,1-3.42,3.19c2.33-2.93-2.34-2.73-2.22-5.17.36-6.93-.42-13.87.26-20.82.37-3.79,2.28-6.15,5.27-8a3.74,3.74,0,0,1,1.05,3.07c0,7.14.51,14.28-.13,21.41C382.78,319.84,385.14,317.78,385.43,319.19Z" transform="translate(-49.9 -128.76)"/><path class="cls-11" d="M416,394.68a59.22,59.22,0,0,0,.61-6.06q.06-41.67,0-83.35c0-1.79,1.32-4.33-1.8-5.15.8-1.7,1.93-2.72,3-.37.57,1.28.36,2.94.36,4.43q0,42.45,0,84.91C418.05,391.06,419.34,393.82,416,394.68Z" transform="translate(-49.9 -128.76)"/><path class="cls-94" d="M193.85,301.2v92.12h-1q0-48.84,0-97.69C195.92,297,193.1,299.42,193.85,301.2Z" transform="translate(-49.9 -128.76)"/><path class="cls-66" d="M333.59,134.43h11.32c-.88,1.85-2.35.81-3.44,1.13h-7.89Z" transform="translate(-49.9 -128.76)"/><path class="cls-95" d="M220.92,274a36.11,36.11,0,0,0-7.9-7.71c-3-4.79-8.13-7.41-11.75-11.6-4-4.57-4.13-4.53,1.58-7.39,5.11,2.51,8,7.7,12.85,10.56,5.57,5.33,11.22,10.57,17.07,15.6,3.88,4.36,8.48,8,12.53,12.17,1.52,2,3.88,3.1,5.6,4.9,3,2.79,5.41,6.19,9.34,7.83a6.08,6.08,0,0,1,1.14,1.07c2.47,3.33,5.65,6,8.51,8.95,2.19,2.34,4.35,4.69,7.5,5.8a8.61,8.61,0,0,1,2.13,2.21c4.57,4.93,8.58,10.47,14.86,13.54a13.43,13.43,0,0,1,3.45,3.56c1.58,2.29,3.88,3.93,5.54,6.12,2.51,3.3,3.64,6.78.54,10.42-3.68.57-5.09-2.62-7.26-4.48-1.84-1.58-3.43-3.45-5.28-5a82.68,82.68,0,0,1-13-13.14l-1.1-.27c-2-2.14-4.79-3.41-6.67-5.72v0c-2.16-1.32-4.12-2.83-5.15-5.26a22.32,22.32,0,0,0-7.13-6.26l-1.4-1.9c-4.16-5.24-8.7-10.07-14.43-13.64-1.28-1-2.77-1.73-3.4-3.35C233.81,284.41,226.77,279.82,220.92,274Z" transform="translate(-49.9 -128.76)"/><path class="cls-96" d="M239,290.94c1.42.82,3.09,1.4,3.4,3.35Q238.93,294.44,239,290.94Z" transform="translate(-49.9 -128.76)"/><path class="cls-97" d="M215.17,258.55c-5.16-2.63-8.52-7.21-12.32-11.31V246.1l3.39,2.07c4.81,1.26,7.7,4.6,9.63,9A2.27,2.27,0,0,1,215.17,258.55Z" transform="translate(-49.9 -128.76)"/><path class="cls-72" d="M278.33,327.32l13.37,12.19a2.33,2.33,0,0,1-2.09,1.1A18.66,18.66,0,0,1,284,335C281.84,332.61,278,331.48,278.33,327.32Z" transform="translate(-49.9 -128.76)"/><path class="cls-98" d="M270.56,321.33c3.23.74,5.87,2.16,6.67,5.72C273.34,327.09,271.27,325,270.56,321.33Z" transform="translate(-49.9 -128.76)"/><path class="cls-99" d="M258.27,309.83c4.18-.08,5.47,3.57,7.72,6-.39.54-.79.54-1.19,0C262.37,314.11,259.73,312.61,258.27,309.83Z" transform="translate(-49.9 -128.76)"/><path class="cls-98" d="M264.8,315.83l1.18,0,4.57,5.54C267.25,321,265.52,318.92,264.8,315.83Z" transform="translate(-49.9 -128.76)"/><path class="cls-100" d="M413.49,251.52c-6.7,6.45-14.35,11.9-20.27,19.16L388.68,275c-3.05,3.38-6.33,6.55-9.48,9.83a105,105,0,0,1-11.56,9.82c-4.83,5.32-10.43,9.85-15.37,15.05-5.46,5.43-11.42,10.3-17.12,15.46-4.6,6.31-11.84,9.81-16.75,15.79-2.64,2.1-4.64,4.86-7.16,7.1-1.6.8-2.9,2.74-5.1,1.4a12.31,12.31,0,0,1,.06-8.86,7.72,7.72,0,0,1,.84-1.41,5.52,5.52,0,0,1,1.9-1.49c4.67-2.31,7.94-6.29,11.61-9.8,1.39-1.47,3-2.68,4.48-4.08,5.34-4.37,9.64-9.83,14.93-14.26,3.7-2.19,6.19-5.87,9.86-8.1,2.9-2.42,5.42-5.23,8.07-7.9,9.83-8.71,19.45-17.66,29-26.71,2.63-2.35,4.84-5.16,7.81-7.15,1.88-1.1,3.28-3,5.52-3.53l6.87-6.38C410.09,247,412.48,246.63,413.49,251.52Z" transform="translate(-49.9 -128.76)"/><path class="cls-101" d="M395.56,309.06c-1.78.49-2.4,2.86-4.77,2.89.86-9.72-.49-19.4.86-29.09-2.35.32-2.42,2.82-4,3.73a1,1,0,0,1-1.37-.21c.61-2.69,2.76-4.05,4.8-5.49,4-.34,5-4.77,8.35-6-3.07,9.77-1.91,19.8-1,29.55C398.79,308.1,398.06,308.44,395.56,309.06Z" transform="translate(-49.9 -128.76)"/><path class="cls-102" d="M412.48,262.86c.55,9.81-1.44,19.72,1.28,29.45.52,1.85-1.19,2.45-2.4,3.22-2.38-.14-3.32,2.22-5.57,3.14,0-9.28-.05-18.38.06-27.49,0-1.37.56-2.61-1.45-2.76l1.19-1.1C408.34,266.54,409.14,262.74,412.48,262.86Z" transform="translate(-49.9 -128.76)"/><path class="cls-103" d="M306.53,349.55,311,347.2a1.52,1.52,0,0,1,1.22,1.31c-.77.8-1.59,1.56-2.31,2.39-4.17,4.8-5.46,5-9.83.61-3.57-3.55-7-7.26-10.45-10.9a2.08,2.08,0,0,1,2.09-1.1l11.46,10.38C304.37,350.55,305.32,348.74,306.53,349.55Z" transform="translate(-49.9 -128.76)"/><path class="cls-104" d="M334.81,324.86C339.88,319,346,314.28,351.6,309c1.23-.53,1.86.13,2.29,1.17-5,6.45-12.38,10.12-18,15.77A2,2,0,0,1,334.81,324.86Z" transform="translate(-49.9 -128.76)"/><path class="cls-105" d="M334.81,324.86l1,1.11c-4,7-11.64,10.12-16.93,15.75a1.87,1.87,0,0,1-1.05-1.07C322.63,334.44,329,330,334.81,324.86Z" transform="translate(-49.9 -128.76)"/><path class="cls-106" d="M353.89,310.2,351.6,309c4.44-5.74,10.5-9.7,15.81-14.48.32.22.43.44.33.67s-.2.34-.31.34A121.84,121.84,0,0,1,353.89,310.2Z" transform="translate(-49.9 -128.76)"/><path class="cls-105" d="M367.43,295.56c0-.34,0-.67,0-1,2.94-4.27,7.28-7,11.11-10.36a1.75,1.75,0,0,1,2.42.1C377.09,288.83,373.47,293.65,367.43,295.56Z" transform="translate(-49.9 -128.76)"/><path class="cls-93" d="M386.27,286.38l1.37.21a2.13,2.13,0,0,1-1.08,2.19c-1.29,1.4-1.54,4.21-4.51,3.37-4.26,1.19-6.38,4.83-9,7.88-.34.53-.71.58-1.11.07l-1.18-.08C375.66,295.18,380,289.67,386.27,286.38Z" transform="translate(-49.9 -128.76)"/><path class="cls-107" d="M380.94,284.29l-2.42-.1c3.12-3.34,5.81-7.17,10.16-9.15C387.43,279.24,384.19,281.77,380.94,284.29Z" transform="translate(-49.9 -128.76)"/><path class="cls-108" d="M317.87,340.65l1.05,1.07-6.72,6.79L311,347.2A25.43,25.43,0,0,1,317.87,340.65Z" transform="translate(-49.9 -128.76)"/><path class="cls-53" d="M412.48,262.86c-2.61,1-3.56,4.58-6.89,4.46,2.7-3,5.29-6.13,8.91-8.14.11.16.21.32.31.48C415.19,261.57,413.42,261.92,412.48,262.86Z" transform="translate(-49.9 -128.76)"/><path class="cls-48" d="M420.29,398c2.27-11.85,1.18-23.84,1.22-35.76.07-22.61-.19-45.22-.34-67.83,0-2,1-4.92-3-4.32a3.26,3.26,0,0,1,2.18-2.47c2.78.39,2.24,2.56,2.24,4.35q0,50,0,100C422.63,394.36,422.32,396.52,420.29,398Z" transform="translate(-49.9 -128.76)"/><path class="cls-109" d="M308.82,338.71l-1,.42a7.71,7.71,0,0,1-4.51-6.79c-.93-3.69-.78-7.45-.78-11.19q0-66,0-132.08c0-3.19,1.1-6.93-2.74-9.06a7.28,7.28,0,0,1-1.81-.95,1.35,1.35,0,0,1-.41-1.79h20.3a1.51,1.51,0,0,1-.57,1.63c-1.3,1-3,.83-4.36,1.73-1.75,1.9-1.21,4.26-1.21,6.45q-.07,69.09-.06,138.19c0,2.82.52,5.59.55,8.4C312.15,336.08,310.71,337.55,308.82,338.71Z" transform="translate(-49.9 -128.76)"/><path class="cls-110" d="M219.77,177.33l58.58-.06c1.31,1.06,3.53,0,4.47,1.93-1.13,17.9-.4,35.83-.5,53.74-.14,24.33,0,48.66-.07,73,0,2.08,1,4.6-1.6,6.08-4.09.46-6.78-.8-6.72-5.46,1.87-1.5,1.63-3.61,1.63-5.67q-.07-57.4,0-114.81c0-1.85.29-3.77-.82-5.44-1.27-.87-2.75-.62-4.15-.76-.87,0-1.74,0-2.62,0-2.06,0-4.11,0-6.17,0-1.17,0-2.34,0-3.51,0l-3.48,0h-3.44c-1.14,0-2.27,0-3.41,0l-4.19,0a18.82,18.82,0,0,0-4.9.57,8.4,8.4,0,0,1-2.55.12,26.64,26.64,0,0,0-6.84-.64,58.63,58.63,0,0,1-7.26-.2C221,179.28,219.66,179,219.77,177.33Z" transform="translate(-49.9 -128.76)"/><path class="cls-111" d="M328,177.28l30.4-.06a1.08,1.08,0,0,1-.1,1.56,4.47,4.47,0,0,1-1.59.75,37.24,37.24,0,0,1-6.15.32c-1.17,0-2.33,0-3.5,0-1.73,0-3.47,0-5.2,0-1.4,0-2.81,0-4.21,0l-1.62.1a2.16,2.16,0,0,0-1.86,1.43c-.26,41.45,0,82.88-.11,124.3a17,17,0,0,0,1.28,6c-.19,3-1.47,4.86-4.85,4.32-3.76-2.06-3-5.72-3-9q-.07-58.82,0-117.63a91.81,91.81,0,0,0-.4-10.09A4.77,4.77,0,0,1,328,177.28Z" transform="translate(-49.9 -128.76)"/><path class="cls-112" d="M372.13,178.15l2.9,0a1.17,1.17,0,0,1,1.69.36,6.76,6.76,0,0,1-.51,3.94c-.81,6.7-.33,13.43-.35,20.15-.08,20.94,0,41.87,0,62.81,0,2.41-.25,4.87,1,7.1.55,4.27-2.27,6.09-5.53,7.58-3.86-2.14-3.37-5.9-3.37-9.37,0-27.66-.14-55.32.16-83,0-3.31-2.67-6.61-.15-9.91A11.61,11.61,0,0,1,372.13,178.15Z" transform="translate(-49.9 -128.76)"/><path class="cls-113" d="M205,180.06c.64-1.19,1.39-2.21,3-1.83,1.77-.48,3.53-.76,5.26.14.48,21.38.14,42.76.16,64.13,0,1.7-.16,3.39-1.48,4.7-1.93,1.09-3.47.77-4.53-1.27L205,242.77c-1.05-6.68-.47-13.41-.43-20.11C204.68,208.46,204,194.25,205,180.06Z" transform="translate(-49.9 -128.76)"/><path class="cls-114" d="M410.5,243.72l-5.74,4.82a3.12,3.12,0,0,1-2.16-2.15c.55-20.79.44-41.58.14-62.37,0-1.83-.7-4.35,2.27-5a4.28,4.28,0,0,1,3.47,4.51c.07,18.73,0,37.45.06,56.18,0-2.85,0-5.71,0-8.58,0-15,0-30,0-45.06,0-1.83-.58-3.75.53-5.49,1.93,1.26,1.5,3.27,1.5,5.06Q410.6,214.69,410.5,243.72Z" transform="translate(-49.9 -128.76)"/><path class="cls-115" d="M219.77,177.33l2.23,1c.67.63,1.4,1.16,1.32,2.29-1.64,22.82-.38,45.66-.75,68.49a22.81,22.81,0,0,0,.61,5.57c.54,2.4-.28,3.64-2.91,3.29-2.8-1.21-4.69-3.06-4.49-6.38-.07-23.54.39-47.07-.26-70.59a6.36,6.36,0,0,0-1-1.53,2.29,2.29,0,0,1-.41-1.7Z" transform="translate(-49.9 -128.76)"/><path class="cls-116" d="M409.11,180.6v61C407.29,240,408,238.34,408,237q-.11-25.24,0-50.48c0-3-.37-5.59-3.42-7a1.09,1.09,0,0,1,0-1.4,1.83,1.83,0,0,1,2.18.29A3.51,3.51,0,0,1,409.11,180.6Z" transform="translate(-49.9 -128.76)"/><path class="cls-117" d="M216.28,252.77A11.38,11.38,0,0,0,221,257.2c1.16,1,2.89,1.41,3.57,3a2.87,2.87,0,0,1,.09,1.59,2.76,2.76,0,0,1-1.8,1.48c-3.79-.57-5.7-3.38-7.48-6.33l-9.11-8.79,1.13-2.24,3.09,1.33a7.18,7.18,0,0,1,4.08,2.56A5,5,0,0,1,216.28,252.77Z" transform="translate(-49.9 -128.76)"/><path class="cls-118" d="M205,180.06q0,31.37.07,62.71c-1.68-1.13-1.51-2.88-1.51-4.56q0-26.43,0-52.87C203.53,183.46,203.51,181.56,205,180.06Z" transform="translate(-49.9 -128.76)"/><path class="cls-119" d="M281.74,178.37c-1.22-.09-2.56.18-3.39-1.1h19.16c0,.37,0,.73,0,1.1a4.07,4.07,0,0,1-3,1.3,22.57,22.57,0,0,1-2.47.08c-.81,0-1.62,0-2.43,0s-1.62,0-2.43,0a13.69,13.69,0,0,1-3.26-.28A7.25,7.25,0,0,1,281.74,178.37Z" transform="translate(-49.9 -128.76)"/><path class="cls-120" d="M376.43,178.41l-1.4-.22c6-2.28,12.18-.74,18.29-.9a1.05,1.05,0,0,1-.15,1.51,5.27,5.27,0,0,1-2.43.86,34.23,34.23,0,0,1-3.51.17q-2.26,0-4.53.06C380.52,179.79,378.22,180.17,376.43,178.41Z" transform="translate(-49.9 -128.76)"/><path class="cls-121" d="M393.28,178.26c0-.32,0-.65,0-1,4.5.14,9.12-1.26,13.45,1.1l-2.18.22a11.41,11.41,0,0,1-4.75,1.28C397.52,179.9,395.11,180.24,393.28,178.26Z" transform="translate(-49.9 -128.76)"/><path class="cls-122" d="M372.13,178.15l-4.72.31a5.68,5.68,0,0,1-2.36,1.16,15.15,15.15,0,0,1-4.46,0,3.46,3.46,0,0,1-2.27-1.32c0-.35,0-.71.05-1.07C363,177.6,367.67,175.88,372.13,178.15Z" transform="translate(-49.9 -128.76)"/><path class="cls-123" d="M328,177.28l0,1.08a4,4,0,0,1-2.05,1.15,19.56,19.56,0,0,1-3.9.15,13.51,13.51,0,0,1-2.28-.2,4.46,4.46,0,0,1-1.41-.53l-.51-.57c0-.36,0-.73,0-1.09Z" transform="translate(-49.9 -128.76)"/><path class="cls-118" d="M214.12,177.73v.55a.86.86,0,0,1-1.22.22l-4.93-.27C209.92,176.89,212,177.3,214.12,177.73Z" transform="translate(-49.9 -128.76)"/><path class="cls-124" d="M393.28,178.26l6.82.24c3.12,2.45,2.73,6.06,2.71,9.32-.1,18.72.56,37.46-.32,56.18a3.71,3.71,0,0,0,1,3.09l1.29,1.45-5.93,6.21c-.62,2.52-2.38,4.06-4.54,5.25a2.23,2.23,0,0,1-2.24-.38c1.16-3.9.68-7.92.64-11.88-.2-18.88.1-37.77-.09-56.65,0-3.67.74-7.5-2.53-10.48-.89-.81.15-1.63,1-2.12Z" transform="translate(-49.9 -128.76)"/><path class="cls-125" d="M394.11,259.27l4.73-4.52,1.35,1.45a12.38,12.38,0,0,1-4.67,4.33C395,260.18,394.24,260.08,394.11,259.27Z" transform="translate(-49.9 -128.76)"/><path class="cls-126" d="M409.46,396c-.81,2.12-2.57,3-4.62,3.38a20.72,20.72,0,0,1-4.5.73c-1.94-1-5.23.46-5.77-3.13,1-1.3,2.72-1.31,4.05-2,1.58-1.78.9-3.94.9-5.92,0-19.44.15-38.88-.07-58.32,0-3.43.35-6.38,4.12-7.64,4.71-2.4,5.85-1.89,6,3.34.26,9.16.1,18.34.08,27.51C409.61,367.91,409.8,381.94,409.46,396Z" transform="translate(-49.9 -128.76)"/><path class="cls-127" d="M207.33,323.76a30.24,30.24,0,0,1,6.9,6.36c.34,1.51,3.82,1.86,1.62,4.33-1.89.62-2.38,2-2.37,3.87,0,17.87,0,35.74.06,53.61,0,1.3,0,2.68,1.57,3.19,1.17.24,2.37.24,3.54.48a4.3,4.3,0,0,1,2.38,1.24c-.31,3.28-3.34,1.79-4.94,2.81-1.49,0-3,.34-4.44-.33-3.73-1.4-6.34-3.74-6.71-8,.36-20.17,0-40.35.18-60.52C205.14,328.29,204.58,325.49,207.33,323.76Z" transform="translate(-49.9 -128.76)"/><path class="cls-128" d="M409.46,396c-2.36-1.62-1.44-4.08-1.45-6.19-.07-20.58,0-41.16,0-61.74v-5.79l-4.49,1.46c-.68-.45-.74-1-.18-1.54l5.89-6.63c2.91,1,2.11,2.51,2.11,3.64q.07,34.71,0,69.42C411.34,391.22,411.29,393.81,409.46,396Z" transform="translate(-49.9 -128.76)"/><path class="cls-129" d="M403.3,322.16l.18,1.54c-1.61,1-2.64,1.85-2.6,4.29.32,22.2.28,44.39.58,66.59,0,2.45-1,2.32-2.51,2.34-3.23-1.85-2.72-5.07-2.73-8-.09-15.83,0-31.67-.13-47.51,0-2,1.5-5.14-2.38-5.76a5.18,5.18,0,0,1-1.84-.13c-.94-.45-1.49-1.07-1-2.17A85.27,85.27,0,0,1,403.3,322.16Z" transform="translate(-49.9 -128.76)"/><path class="cls-130" d="M218.62,396.93h-3.38c-1.8-2-1.67-4.45-1.67-6.88q0-24.06,0-48.13c0-3,0-6,2.79-8.08-.71-1.24-1.42-2.47-2.12-3.71a42.42,42.42,0,0,1,9,8c-2.88,3.22-2.76,7.13-2.8,11.1-.14,14,.3,28-.15,42C220.2,393.27,220.53,395.43,218.62,396.93Z" transform="translate(-49.9 -128.76)"/><path class="cls-131" d="M378.48,344.7l2.36-2c5.31-1.55,6.15-1,6.2,5.13.14,16.05,0,32.1.08,48.14-1.31,1-1.29,1.06.1,1.9.79.48.7,1.13.15,1.78-3.39,1.19-6.84.62-10.27.42-1.76-1.1-3.11-2.26-.57-4,3-.37,3.86-2.06,3.79-5-.29-13-.09-26.05,0-39.07C380.34,349.26,378.07,347.38,378.48,344.7Z" transform="translate(-49.9 -128.76)"/><path class="cls-132" d="M225.56,340.17a23.61,23.61,0,0,1,6.69,5.86c-2.81,3.07-2.52,6.84-2.5,10.6.06,11.39.21,22.77,0,34.16,0,2.83.5,6.29-3.79,6.95-3-.59-3.15-2.95-3.17-5.22-.12-15-.1-30,0-45a13.07,13.07,0,0,1,1.75-5.86A3,3,0,0,1,225.56,340.17Z" transform="translate(-49.9 -128.76)"/><path class="cls-133" d="M378.48,344.7c2.51,1.71,3.09,4,3.06,7-.14,13.81-.17,27.62.14,41.42.08,3.58-1.28,4.14-4.15,3.76-2.22-1.84-1.62-4.41-1.71-6.78-.49-13.6.65-27.24-.75-40.82-.11-1.09,1-1.54,1.19-2.43A3.72,3.72,0,0,1,378.48,344.7Z" transform="translate(-49.9 -128.76)"/><path class="cls-134" d="M376.26,346.89c1.53,14.45.31,28.95.75,43.41.07,2.21.35,4.42.52,6.62-1.73,0-2,.7-1,2-.73,1.26-2,1.27-3.21,1.33a32.72,32.72,0,0,1-5.42-.19c-1.36-.6-2.85-1.09-2.71-3a4,4,0,0,1,3-1.44c2.47-.09,3.57-1.2,3.64-3.85.29-11-.31-22,.24-33,.16-3-4.46-3-2.43-6C371.59,350.6,373.53,348.3,376.26,346.89Z" transform="translate(-49.9 -128.76)"/><path class="cls-135" d="M386.56,396.93c-1.39-2.2-1.13-4.66-1.13-7.08V343c-1.68-1-3.25,2.19-4.59-.31a35.24,35.24,0,0,1,9-8.12c1.4,1.79-.61,3-.78,4.5.26,1.65,1.33,3,1.33,4.78,0,17.67.39,35.34-.17,53C389,398,387.78,397.77,386.56,396.93Z" transform="translate(-49.9 -128.76)"/><path class="cls-136" d="M369.57,352.8c6.62,3.53,3.31,9.7,3.46,14.63.26,8.14.07,16.34,0,24.5,0,4.4-1,5.11-4.5,5a7.5,7.5,0,0,1-1.69-5.2c-.16-11.35.21-22.7-.25-34.06a6.12,6.12,0,0,1,.71-2.68A3.4,3.4,0,0,1,369.57,352.8Z" transform="translate(-49.9 -128.76)"/><path class="cls-137" d="M227.64,396.92c2-10.88.21-21.87.92-32.79.27-4.17.69-8.49-.08-12.53-.73-3.79,1.06-4.7,3.77-5.57a3.7,3.7,0,0,1,2.32,2.07,2.11,2.11,0,0,1,.27,1.71c-1.82,6.76-.75,13.67-1.09,20.51-.34,6.67,0,13.38-.12,20.07,0,2.59.07,5.3-2.47,7.05A3,3,0,0,1,227.64,396.92Z" transform="translate(-49.9 -128.76)"/><path class="cls-138" d="M234.42,349.61l.15-1.51a23.17,23.17,0,0,1,6.66,5.85c0,8.55-.5,17.09-.3,25.65.09,3.74,0,7.49,0,11.23,0,2.43.23,4.95-2.08,6.66a3.29,3.29,0,0,1-3.09-.1c-1.56-4.69-.72-9.54-.92-14.32C234.4,371.92,235.5,360.75,234.42,349.61Z" transform="translate(-49.9 -128.76)"/><path class="cls-135" d="M225.56,340.17l-.19,1.55c-2.91,1.35-2.23,4-2.23,6.34,0,14.18,0,28.36,0,42.54,0,2.3.76,5-2.22,6.33h-2.25c1.3-13.78.18-27.6.6-41.39.12-3.87.15-7.75,0-11.61-.16-3.12,1.25-4.86,4-5.78Z" transform="translate(-49.9 -128.76)"/><path class="cls-139" d="M207.33,323.76a29.57,29.57,0,0,0-1.14,8.79q.12,26.55,0,53.1c0,1.94.76,4.16-1.26,5.71-1-14.21-.21-28.42-.41-42.63-.12-8.06-.05-16.11,0-24.17,0-1-.69-2.47,1-2.65C206.49,321.81,207,322.9,207.33,323.76Z" transform="translate(-49.9 -128.76)"/><path class="cls-140" d="M367.29,355c2.36,7.7.91,15.6,1.19,23.41.22,6.17,0,12.35,0,18.53h-3.36l-.65-.45c-1.66-2.12-1.09-4.61-1.2-7-.45-9.46,1.07-19-.74-28.39-.32-1.46.69-2.33,1.47-3.3Z" transform="translate(-49.9 -128.76)"/><path class="cls-141" d="M367.4,399.26l5.41,0a57.76,57.76,0,0,0,16.45-.15,28,28,0,0,1,13.08,1.16,3.44,3.44,0,0,1-3.06,1q-38.46-.52-76.91-1.07c-1.06,0-2.53.32-2.85-1.05-.15-.65.6-1.74,1.23-2.28,3.52-3,6-7.24,10.44-9.18a1.62,1.62,0,0,1,.5,1.4,6.74,6.74,0,0,1-1.94,2.71c-1.35,1.28-2,2.81-1.28,4.55.86,2.11,2.87,1.21,4.44,1.39,1.36,0,2.72,0,4.08-.06.85-.05,1.7,0,2.54,0,1.74,0,3.47,0,5.21,0,1.17,0,2.35,0,3.52,0,1.49,0,3,0,4.47,0,1.21,0,2.43,0,3.64,0,1.87-.07,3.74,0,5.6,0A14.66,14.66,0,0,1,367.4,399.26Z" transform="translate(-49.9 -128.76)"/><path class="cls-142" d="M275,383.3c6.43,3.35,10.26,9.75,16.18,13.7.53.36,1.12,1.37,1,1.86-.38,1.25-1.66,1.32-2.79,1.34-4.32.06-8.64.15-13,.15-13.26,0-26.53-.07-39.79-.11a1.53,1.53,0,0,1,.65-1.61,15.14,15.14,0,0,1,6.39-1H252c1.23,0,2.45,0,3.68,0,1.52,0,3,0,4.55,0h8.89c1.68,0,3.35,0,5,.05,4.21-.48,5.92-3.82,4.09-8.05-.6-1.38-1.85-2.26-2.73-3.43C274.94,385.34,274.34,384.43,275,383.3Z" transform="translate(-49.9 -128.76)"/><path class="cls-143" d="M243.41,399.25l-6.61.11-.4-.59c0-1.68,2-.73,2.51-1.84,1.69-8.85.37-17.79.7-26.68.2-5.49-.52-11,1.62-16.3a3.36,3.36,0,0,1,2.32,2c.37,1,1.47,1.56,1.25,2.95-1.74,11.18-.38,22.45-.94,33.66a4.35,4.35,0,0,0,2,4.28C246.29,398.9,244,398.25,243.41,399.25Z" transform="translate(-49.9 -128.76)"/><path class="cls-144" d="M255.81,399.18l-3.38,0a2.19,2.19,0,0,0-1.71-2.56c-.9-10.79-.28-21.56.08-32.34a1.91,1.91,0,0,1,.61-1.36c2.84,1.22,4.76,3.51,6.73,5.75a53.51,53.51,0,0,0-.14,28.11C258.62,399,256.4,398.26,255.81,399.18Z" transform="translate(-49.9 -128.76)"/><path class="cls-145" d="M245.67,396.93c-3.29.65-3.27-2.09-3.2-3.78.44-10.33.34-20.67-.08-31-.08-2.25,2.67-3.82,1.16-6.22a15.37,15.37,0,0,1,5.54,4.87c-3.47,9-1.18,18.38-1.85,27.56C247,391.28,248,394.41,245.67,396.93Z" transform="translate(-49.9 -128.76)"/><path class="cls-146" d="M361.76,399.28l-5.62,0c-.69-.79-2.59-.56-2.35-2,1.75-10.13-.12-20.36.89-30.51.08-.75.08.22.21-.52a7.24,7.24,0,0,1,3.49-3.11c2.76,1.81,2.59,4.69,2.68,7.45.26,8.31-.43,16.63.4,24.92C361.93,396.74,362.44,398,361.76,399.28Z" transform="translate(-49.9 -128.76)"/><path class="cls-147" d="M255.81,399.18c3.32-1.87-.79-2.65-.7-4.33.41-7.31.39-14.65.09-22-.11-2.59,2.19-2.7,2.94-4.24l2.33,2c.46,1.06,1.77,1.78,1.27,3.21-1.77,7.13-1.08,14.34-.56,21.52.11,1.49.92,2.83-.86,3.79Z" transform="translate(-49.9 -128.76)"/><path class="cls-146" d="M245.67,396.93c0-9.83.1-19.66-.06-29.49-.05-3,.47-5.38,3.48-6.63l2.32,2.08c0,.46-.08.92-.11,1.37a15.49,15.49,0,0,0-1.76,7.64c.21,6.69.08,13.4,0,20.11,0,1.91-.16,3.75,1.76,4.92,1.95-.06,1.71,1,1.12,2.22l-9,.1Z" transform="translate(-49.9 -128.76)"/><path class="cls-144" d="M352.75,399.21l-4.51,0c-.74-.57-1.58-1.13-1.35-2.22,1.67-7.89,1.23-15.79.22-23.69,2-2.29,3.83-4.68,6.66-6-.95,6.12,1,12.13.62,18.27C354.09,390.15,354.28,394.77,352.75,399.21Z" transform="translate(-49.9 -128.76)"/><path class="cls-148" d="M352.75,399.21c-.41-.76-1.36-1.71-1.16-2.25,2.68-7.41,1.26-15.1.71-22.49-.23-3,.56-4.88,1.47-7.19l1.12-1c1.77,10.23,2.22,20.46.06,30.71-.13.64.77,1.51,1.19,2.27Z" transform="translate(-49.9 -128.76)"/><path class="cls-149" d="M360.62,396.93c-2.08-2.26-.91-5-1.08-7.53-.58-8.74,1.11-17.58-1.16-26.26A17.72,17.72,0,0,1,364,357.8l-1.16,3.08c.66,10.37.38,20.75.35,31.13,0,1.8.61,3.77-1.18,5.17A1.19,1.19,0,0,1,360.62,396.93Z" transform="translate(-49.9 -128.76)"/><path class="cls-147" d="M347.11,373.28c.2,1.87,2,2.67,2,5.28-.14,6.88.07,13.77-.86,20.63h-3.39a2.85,2.85,0,0,1-1.62-2.69c.42-6.65-.44-13.33.43-20A7.8,7.8,0,0,1,347.11,373.28Z" transform="translate(-49.9 -128.76)"/><path class="cls-150" d="M275,399.12l-5.63,0c-2.95-6.87-2.56-13.72.11-20.56,2.48.83,4,2.79,5.59,4.71l1.1,2.36a21,21,0,0,0-.16,10.25C276.34,397.3,276.42,398.4,275,399.12Z" transform="translate(-49.9 -128.76)"/><path class="cls-151" d="M269.44,378.59a85.19,85.19,0,0,0-.11,20.56h-4.5c-1.1-.62,2.65-2-.39-2.35-1.38-5.62-.31-11.29-.39-16.94,0-2,1.52-2.76,3.1-3.39Z" transform="translate(-49.9 -128.76)"/><path class="cls-150" d="M337,399.15h-4.5c-3.31-3-.78-6.74-1.18-10.11,0-.43-.07-.86-.1-1.29,2.13-2.35,4.1-4.86,7-6.41a1.59,1.59,0,0,1,1.37,1.64c-1.85,3.06-1.13,6.45-1.25,9.73C338.2,394.92,338.15,397.15,337,399.15Z" transform="translate(-49.9 -128.76)"/><path class="cls-152" d="M267.15,376.47c-4,5.56-1.2,11.88-2,17.81l-.36,2.64c-4.89.89-4-3-3.6-5.17,1-5.28-.75-10.66.93-15.86.24-.77-.67-1.68-.71-2.62l-1-2.64A21.89,21.89,0,0,1,267.15,376.47Z" transform="translate(-49.9 -128.76)"/><path class="cls-153" d="M343.66,376.53c2.35,6.37,1,12.94.92,19.43a8,8,0,0,0,.27,3.23l-5.6-.08c-1-1.17-.36-2.16.35-3.14,3.1-5.3,1.1-10.78.58-16.21A7.77,7.77,0,0,1,343.66,376.53Z" transform="translate(-49.9 -128.76)"/><path class="cls-154" d="M340.18,379.76c3.4,4.26,3.49,14.08.16,17.16-3.14-4.66-1.08-9.73-1.15-14.63l-1-1Z" transform="translate(-49.9 -128.76)"/><path class="cls-140" d="M402.34,400.3c-9.83-.89-19.73.64-29.53-1l3.69-.34h11.18c4.11-2.39,8.22.1,12.33,0l4.83.37Z" transform="translate(-49.9 -128.76)"/><path class="cls-143" d="M236.8,399.36a1.48,1.48,0,0,0-.16.88c-8.31-.7-16.73,1.35-25-.92l4.7-.35a47.57,47.57,0,0,1,12.2-.91c2.67.18,5.52-1.09,8,.93Z" transform="translate(-49.9 -128.76)"/><path class="cls-155" d="M387.68,338.35l2.13-3.78c.35-.4.71-.8,1.07-1.19l1.31,1.59C392.16,338.06,390.86,339.45,387.68,338.35Z" transform="translate(-49.9 -128.76)"/><path class="cls-156" d="M366.25,305.71c3.22-1.11,2.88.9,2.54,2.9-1.33,7.75-.12,15.52-.66,23.29,3.14.43,3.52-3.5,6.78-3.16a25.81,25.81,0,0,1-6.4,6.23c-.37,0-.74.09-1.11.17-2.45.47-3.57,4.81-5.76,3.47-2.45-1.51-.67-5.17-1-7.87-.19-1.67.14-3.39-.07-5.05C359.68,318.22,361,311.41,366.25,305.71Z" transform="translate(-49.9 -128.76)"/><path class="cls-157" d="M382.05,292.15l4.51-3.37c.8,9.21-1.6,18.56,1.32,27.7.41,1.29-1.3,2.09-2.45,2.71l-4.19,1c2-9-.18-18,.81-26.93Z" transform="translate(-49.9 -128.76)"/><path class="cls-156" d="M371.92,300.1c.37,0,.74-.06,1.11-.07a3.4,3.4,0,0,1-2.33,3.33C370.16,301.75,371.71,301.12,371.92,300.1Z" transform="translate(-49.9 -128.76)"/><path class="cls-102" d="M412.48,262.86l2.33-3.2C416.33,262.4,414.29,262.55,412.48,262.86Z" transform="translate(-49.9 -128.76)"/><path class="cls-158" d="M274,306.77c1.41,2,2.8,4,5.43,4.58,1.21.81,2.69,1.21,3.66,2.39.53.48,1,1,1.52,1.53.82.85,1.66,1.67,2.52,2.48A19.34,19.34,0,0,0,291,320.8a36.42,36.42,0,0,1,3.73,3.4c1.17,1.2,2.35,2.39,3.57,3.54,1.67,2.35,4.76,3.34,6,6.15.88,2,3.24,2.91,3.59,5.24l-.07.4c-1.58,2.12-3.14,1.33-4.54-.13-2.12-2.21-4.58-4.06-6.79-6.16l-2.26-2.45c-5.72-4.31-10.26-9.9-15.77-14.43L277.25,315a73,73,0,0,1-7.45-6.5c-3.27-2.86-6.38-5.89-9.46-8.95l-.06-.34c-3.76-2.53-6.48-6.24-10.11-8.92-1.56-1.67-3.66-2.77-5-4.66-1.6-2.64-5.47-3.51-5.66-7.26a2.4,2.4,0,0,1,2.46-1.73c2.35.2,3.7,1.94,5.26,3.37,1,1.07,2.06,2.17,3.12,3.24.51.5,1,1,1.51,1.54s1,1,1.5,1.49c1,1,2,2,3,2.94a16.47,16.47,0,0,0,3.74,3.07,8.89,8.89,0,0,1,1.17.84c.75.62,1.45,1.29,2.14,2,1.72,1.74,3.46,3.46,5.18,5.19q1.71,1.8,3.48,3.56A6.18,6.18,0,0,1,274,306.77Z" transform="translate(-49.9 -128.76)"/><path class="cls-159" d="M296.41,333.24c2.68.16,4,2.34,5.72,3.9s3,3.31,5.61,2.39a24,24,0,0,0-1.21,10c-1.16-.24-1.95,3.18-3.37.34,2.09-3.87,1.64-7.22-1.57-10.41C299.69,337.59,297,336.27,296.41,333.24Z" transform="translate(-49.9 -128.76)"/><path class="cls-160" d="M278.38,316.36c6.44,3.51,11.29,8.77,15.77,14.43C287.07,328,282.69,322.2,278.38,316.36Z" transform="translate(-49.9 -128.76)"/><path class="cls-161" d="M215.35,257l7.57,6.37c4.8,1.63,7.8,5.11,9.85,9.57a2.23,2.23,0,0,1-.69,1.4c-6-4.89-11.91-9.82-16.91-15.75Z" transform="translate(-49.9 -128.76)"/><path class="cls-162" d="M232.08,274.3l.11-1.4c4.28-.22,6.41,2.32,7.68,6q3,3.21,6,6.44c.24,1.1-.26,1.42-1.28,1.2C240.46,282.4,235.69,278.94,232.08,274.3Z" transform="translate(-49.9 -128.76)"/><path class="cls-163" d="M250.31,289.47c3.76,2.81,7.6,5.52,10,9.75-4.94-.72-7.07-5-10.19-8A1.16,1.16,0,0,1,250.31,289.47Z" transform="translate(-49.9 -128.76)"/><path class="cls-164" d="M260.34,299.57c4.52,1.52,6.86,5.6,10.11,8.62,0,.76-.1,1.35-1.09.91C266,306.28,262.34,303.69,260.34,299.57Z" transform="translate(-49.9 -128.76)"/><path class="cls-165" d="M269.36,309.1l1.09-.91c2.49,2.05,5.61,3.47,6.8,6.83C273.39,314.68,271.43,311.82,269.36,309.1Z" transform="translate(-49.9 -128.76)"/><path class="cls-166" d="M250.31,289.47c-.07.57-.14,1.14-.22,1.71-1.74-1.67-4.32-2.35-5.51-4.67l1.28-1.2A10.63,10.63,0,0,1,250.31,289.47Z" transform="translate(-49.9 -128.76)"/><path class="cls-167" d="M370.8,279.85a20.42,20.42,0,0,0,5.71-5.52,5.3,5.3,0,0,1,2-3.13c2.4-1.37,4.07-3.63,6.34-5.17a2.81,2.81,0,0,1,1.49-.23,2.13,2.13,0,0,1,1.46,1.64c-9.29,9.54-19.13,18.48-29.32,27.05-1,.45-1.41-.16-1.75-.93-.19-1.79,1-2.91,2-4.09a21.9,21.9,0,0,1,2.85-2.5,20.14,20.14,0,0,0,4-3.22C367.26,282.39,368.41,280.29,370.8,279.85Z" transform="translate(-49.9 -128.76)"/><path class="cls-168" d="M331.42,316l3.34-3.45a5.14,5.14,0,0,1,2.63-3.19,6.16,6.16,0,0,1,2-.77,1.88,1.88,0,0,1,1.29.53,1,1,0,0,1-.24,1.26c-4.73,5-9.19,10.26-14.81,14.31a1.79,1.79,0,0,1-1.45-1.57c.31-1.91,1.77-3,3-4.33C328.45,317.69,329.47,316.13,331.42,316Z" transform="translate(-49.9 -128.76)"/><path class="cls-169" d="M308.82,338.71c-.24-1.83,1.83-2.35,2.18-3.85,1.17-1.63,2.06-3.47,3.69-4.74a11.49,11.49,0,0,1,1.78-1.41,7.06,7.06,0,0,1,3.55-1.16,2.14,2.14,0,0,1,1.28.71C317.8,332.53,314.65,337.22,308.82,338.71Z" transform="translate(-49.9 -128.76)"/><path class="cls-170" d="M340.44,310.38l-.19-1.54c-.39-1.68.87-2.55,1.74-3.62.82-.84,1.65-1.66,2.47-2.5a9.54,9.54,0,0,1,2.89-2.23,3.71,3.71,0,0,1,2.26,0c.71.4,1.32.84.86,1.79C346.89,304.69,344.76,308.89,340.44,310.38Z" transform="translate(-49.9 -128.76)"/><path class="cls-171" d="M350.47,302.27l-1.56-1.33a3.9,3.9,0,0,1,1.17-2.75c2.31-1.75,3.46-5.17,7.14-5,.42.43.84.85,1.25,1.28A38.32,38.32,0,0,1,350.47,302.27Z" transform="translate(-49.9 -128.76)"/><path class="cls-172" d="M387.8,267.44l-1.27-1.27c-.63-2.42,1.53-3.3,2.63-4.78a5.19,5.19,0,0,1,3-1.78l1.9-.34,1.41,1.26Z" transform="translate(-49.9 -128.76)"/><path class="cls-173" d="M321.3,328.26l-1.65-.2c.05-2.36,1.74-3.49,3.43-4.64a1.47,1.47,0,0,1,1.4.24c.39.34.77.69,1.15,1A9.85,9.85,0,0,1,321.3,328.26Z" transform="translate(-49.9 -128.76)"/><path class="cls-119" d="M304.22,333.89a14.68,14.68,0,0,1-6.77-5.66,91.39,91.39,0,0,1-.61-11.22q0-64.45,0-128.9c0-3.32-.64-6.82,1.77-9.73,5-.87,5.73,1.7,5.72,6.07-.13,46.77,0,93.55-.2,140.33C304.15,327.81,305.82,330.86,304.22,333.89Z" transform="translate(-49.9 -128.76)"/><path class="cls-174" d="M298.64,178.38q.15,74,.34,148.09c0,1.33-.55,1.58-1.52,1.76a8.16,8.16,0,0,1-3.41-3.35,23.5,23.5,0,0,1-1.6-9.86q0-63.69,0-127.38c0-3.19,0-6.38,1.67-9.26h4.51Z" transform="translate(-49.9 -128.76)"/><path class="cls-175" d="M315.63,330.65a10.21,10.21,0,0,1-4.63,4.21,34.63,34.63,0,0,1-1.13-7.14q.09-71.94.07-143.86c0-2.38-1.09-5.7,3.36-5.48,1.82,1.46,1.94,3.43,1.93,5.58-.28,43.91-.07,87.82-.12,131.73C315.1,320.69,315.24,325.67,315.63,330.65Z" transform="translate(-49.9 -128.76)"/><path class="cls-123" d="M315.63,330.65a16.34,16.34,0,0,1-1.8-8.36c.13-46.53.09-93.06.22-139.58,0-1.59-.94-2.83-.75-4.33l4.49,0,0,0c2.2,2.57,1.55,5.7,1.55,8.64q.08,63.9.05,127.81c0,2.8-.3,5.63.52,8.38,1.69,3.47-1.73,4.42-3.15,6.36Z" transform="translate(-49.9 -128.76)"/><path class="cls-176" d="M274,306.77a3.69,3.69,0,0,1-2.28-2.25,53.48,53.48,0,0,1-.65-8.38q.06-53.62,0-107.24c0-4,.09-7.94,3.92-10.49,2,.13,2.59.86,2.58,3.19-.21,40.27-.23,80.55-.31,120.82a9.42,9.42,0,0,0,1.49,6Z" transform="translate(-49.9 -128.76)"/><path class="cls-177" d="M282.83,314.7a8.35,8.35,0,0,1-3.44-3.35c.95-.19,1.57-.4,1.56-1.74q-.22-55-.32-109.91c0-7.12-.66-14.29,1.11-21.33H284c2.08,1.17,1.62,3.16,1.62,5-.07,42.15,0,84.3-.12,126.45C285.49,311.56,287.28,315.05,282.83,314.7Z" transform="translate(-49.9 -128.76)"/><path class="cls-178" d="M275,178.41c-2.21,3.86-2.31,8.06-2.27,12.38.33,37.48-.5,75,.46,112.42,0,1-.69,1.2-1.46,1.31a7.59,7.59,0,0,1-3.42-3.37c.11-2.1-1.06-4.07-.62-6.22q.08-54.62,0-109.18c0-2.86-.25-5.7,2.8-7.34Z" transform="translate(-49.9 -128.76)"/><path class="cls-179" d="M250.08,284.33l-3.58-3.27c-1.57-3.69-1.56-7.57-1.56-11.5,0-27.52.19-55,.05-82.56,0-3.22-.15-6.44,2.93-8.59h3.38c1.5,2.08.52,4.39.52,6.56.07,31.67,0,63.34.05,95C251.87,281.6,253,283.84,250.08,284.33Z" transform="translate(-49.9 -128.76)"/><path class="cls-180" d="M270.44,178.41a17.74,17.74,0,0,0-1.21,6.26c.15,36.09.1,72.18.13,108.28a10,10,0,0,1-1.15,4.84c-2.83.12-3.3-2-3.68-4a38.75,38.75,0,0,1-.25-6.73c0-34.86.06-69.71,0-104.57-.26-2.86,2.4-2.88,3.93-4Z" transform="translate(-49.9 -128.76)"/><path class="cls-181" d="M268.16,178.44a3.32,3.32,0,0,1-3.33,2.18c-.94,2-.55,4.06-.55,6.1q0,52.31,0,104.62c0,1.65,1.11,3.91-1.88,4.33l-2.2-2.13a19.71,19.71,0,0,1-2.69-10.72q.08-47.59,0-95.19c0-3.66.05-7.23,3.92-9.21Z" transform="translate(-49.9 -128.76)"/><path class="cls-182" d="M238.83,179.26c1.3-1.49,3-.86,4.59-.87.61.43,1.34.86,1.3,1.7-1.45,30.52-.22,61.07-.68,91.6,0,1.92,1.37,4.84-2.38,5.23-3.2-.25-5.07-1.82-5.16-5.18,1.1-2.11.84-4.39.84-6.63q0-38.87,0-77.72C237.35,184.61,236.91,181.71,238.83,179.26Z" transform="translate(-49.9 -128.76)"/><path class="cls-183" d="M261.43,178.42a16.77,16.77,0,0,0-2.31,9.42c.13,31.77.22,63.54-.13,95.31,0,3.65,2.59,6.76,1.19,10.39l.06-.11a44,44,0,0,0-4.37-3.55,8.48,8.48,0,0,1-3.47-3.35c2.25-1.79,1.85-4.31,1.85-6.72q0-46.09,0-92.18c0-3.61-.16-7.26,3.81-9.21Z" transform="translate(-49.9 -128.76)"/><path class="cls-184" d="M250.08,284.33c1.78-2.63,0-5.31,0-8,.19-29.91.14-59.81.08-89.72a30.9,30.9,0,0,1,1.16-8.25l3.38,0q0,51.29-.06,102.55c0,2.1.84,5.43-3.45,4.48Z" transform="translate(-49.9 -128.76)"/><path class="cls-185" d="M241.91,276.57c2-2.35.91-5.17.91-7.71.08-28.12.07-56.24-.21-84.36,0-2.2,1.9-3.93.81-6.11l4.5,0a23.73,23.73,0,0,0-1.68,9.56q.15,42.25-.24,84.51c0,2.92,2.34,5.64.5,8.58L242,277.59A.78.78,0,0,1,241.91,276.57Z" transform="translate(-49.9 -128.76)"/><path class="cls-186" d="M224.39,260.57A7.79,7.79,0,0,1,221,257.2c.47-.23,1.36-.51,1.34-.68-2.75-23.81-.24-47.71-1.21-71.55-.09-2.21.58-4.45.9-6.68l7.89,0c.75.69,1.85,1.23,1.14,2.57a7.36,7.36,0,0,1-2.83,1.25c-2.38,1.14-2.11,3.39-2.08,5.37.3,23.54-.91,47.1.69,70.63C226.94,260,227.31,261.86,224.39,260.57Z" transform="translate(-49.9 -128.76)"/><path class="cls-187" d="M251.17,285.45c2.72-.34,2.38-2.41,2.38-4.26,0-32.17.06-64.34-.1-96.52a16.66,16.66,0,0,1,1.23-6.25h3.37a16.77,16.77,0,0,0-2.31,9.45c.13,30.71.08,61.43.06,92.15a23.55,23.55,0,0,0,.91,7.93l-4.31-1.42Z" transform="translate(-49.9 -128.76)"/><path class="cls-188" d="M231,180.62c-.37-.77-.74-1.53-1.12-2.3,2.35-.16,4.71-.39,6.76,1.17a2.12,2.12,0,0,1,.16,2c-1,2.12-.82,4.4-.82,6.63q0,35.72,0,71.43c0,2.43-.12,4.89,1.06,7.14.79,2.08,1.64,4.18-1.2,5.47-3.21.18-4.55-1.9-5.43-4.52,1-4.45,0-8.93,0-13.4q.09-34.61,0-69.21C230.41,183.51,230.15,182,231,180.62Z" transform="translate(-49.9 -128.76)"/><path class="cls-189" d="M236.65,180.62v-1.13l2.18-.23q0,42.42.09,84.85c0,1.87-.45,4,.29,5.55,1.76,3.66-1.78,1.89-2.56,2.85-.29.32-.61.57-.84.45-.64-.32-.44-.86-.24-1.36.93-.84,2.27-1.53,1.08-3.1-1.13-2.26-1.12-4.7-1.12-7.14q0-37.4,0-74.8C235.55,184.53,235.2,182.4,236.65,180.62Z" transform="translate(-49.9 -128.76)"/><path class="cls-120" d="M357.22,293.21l-6.78,5.47c1.53-5.77-.61-11.41-.58-17.15.2-31.41,0-62.82.24-94.23,0-2.92-2.31-6.08.39-8.89h6.76c3,1.9,2.81,4.95,2.81,7.94q.1,47.35-.09,94.69c0,3,2,6.2-.36,9.13Z" transform="translate(-49.9 -128.76)"/><path class="cls-190" d="M331.42,316a6.52,6.52,0,0,1-3.46,3.22c-4.14-1.47-3.93-5-3.93-8.4q0-35.1,0-70.2,0-28.06,0-56.15c0-2.13-.85-4.61,1.65-6.1h2.25a30.58,30.58,0,0,1,1.17,9.38q-.08,60.33-.06,120.66C329.05,311.23,328.84,314,331.42,316Z" transform="translate(-49.9 -128.76)"/><path class="cls-191" d="M342.6,305.69l-2.35,3.15a3.56,3.56,0,0,0-1,.21c-3.67-1.16-3.82-4.19-3.83-7.27,0-12.55,0-25.09,0-37.63-.13-27.7.33-55.41-.25-83.11a4,4,0,0,1,.74-2.62H337c5,1.37,4.94,5.38,4.94,9.43q0,50.82,0,101.64C341.94,294.9,341.72,300.32,342.6,305.69Z" transform="translate(-49.9 -128.76)"/><path class="cls-192" d="M359.61,290.16c-1.62-17.48-.65-35-.67-52.51,0-17-.25-34.05-.08-51.07,0-3-1.35-5.42-1.61-8.18l1.07-.11,2.34.15c3.3,1.88,3.45,5.05,3.47,8.32.12,29.44-.18,58.88,0,88.33a19.66,19.66,0,0,0,.38,5.59c.94,3.18-.4,5.39-2.62,7.37Z" transform="translate(-49.9 -128.76)"/><path class="cls-193" d="M350.49,178.41c1.69,4,1.12,8.16,1.12,12.28q0,45.9,0,91.79c0,3.54-.51,7.21,1,10.5,1.3,2.91-2.77,3.33-2.15,5.7l-1.53,2.26-1.69.52a2.84,2.84,0,0,1-.7-1.95c.11-37.56,0-75.13,0-112.7a11.49,11.49,0,0,0-.59-5,2.38,2.38,0,0,1,1.15-3.45Z" transform="translate(-49.9 -128.76)"/><path class="cls-194" d="M338,310l-3.28,2.56c-2.45-1.81-2.33-4.41-2.32-7.07q0-58.29,0-116.58c0-2.78.47-5.62-.56-8.36-.56-1.51.46-2,1.73-2.13,2.58,2.54,2.24,5.8,2.24,9q0,57.18-.06,114.34C335.77,304.8,336.18,307.54,338,310Z" transform="translate(-49.9 -128.76)"/><path class="cls-195" d="M338,310c-3.3-1.12-3.39-3.69-3.38-6.65.08-38.52,0-77,.08-115.56a30.46,30.46,0,0,0-1.14-9.37h2.26a30.44,30.44,0,0,1,1.14,8.82q-.08,57.29-.05,114.56c0,2.7-.26,5.39,2.28,7.25C339.09,309.69,338.81,310.15,338,310Z" transform="translate(-49.9 -128.76)"/><path class="cls-196" d="M342.6,305.69c-2.6-1.76-2.26-4.45-2.26-7.06,0-37.13,0-74.26.07-111.38,0-3.56-.41-6.59-3.41-8.82h4.49c3.14,2.45,2.68,6,2.68,9.3q0,51.66-.05,103.31c0,4.27.68,8.43.83,12.65A3.42,3.42,0,0,1,342.6,305.69Z" transform="translate(-49.9 -128.76)"/><path class="cls-122" d="M345,303.68c-2.36-2.36-2.39-5.31-2.39-8.4.06-36,0-72,.08-108a30.54,30.54,0,0,0-1.15-8.84l5.62,0c-.37.75-.75,1.49-1.13,2.23.95,2.16.53,4.43.54,6.66q0,52.47,0,105a30.55,30.55,0,0,0,.57,7.81l.12,1.42Z" transform="translate(-49.9 -128.76)"/><path class="cls-197" d="M370.8,279.85c-1.06,1.89-2.83,3-4.55,4.23-1.94-3-1.62-6.47-1.63-9.79-.08-29-.12-58,.09-86.93,0-2.93-2.27-6.1.43-8.92h2.27c3.79,5.48,1.9,11.75,2,17.55.32,25.81.14,51.63-.11,77.45C369.24,275.91,371,277.58,370.8,279.85Z" transform="translate(-49.9 -128.76)"/><path class="cls-198" d="M378.67,271.89a3.16,3.16,0,0,1-2.16,2.44c-2.05-1.7-2.41-3.88-2.4-6.46q.12-40.65,0-81.29c0-2.08,0-4.11,1.15-6a1.93,1.93,0,0,1,2.88.43c1.42,2.42,1,5.1,1,7.7.05,27,0,54.06.06,81.09A3.55,3.55,0,0,1,378.67,271.89Z" transform="translate(-49.9 -128.76)"/><path class="cls-199" d="M377.54,180.62h-2.25c.38-.74.76-1.47,1.13-2.21l6.75.05c2.35,2.52,2.75,5.61,2.69,8.89-.46,23.58.16,47.17-.28,70.75-.05,2.75,1.51,5.54-.11,8.26-1.93,2.26-3.75,4.65-6.8,5.53l0-1.13a21.51,21.51,0,0,0,.65-6.09c-.08-25.76,0-51.52-.06-77.28C379.23,185,379.8,182.45,377.54,180.62Z" transform="translate(-49.9 -128.76)"/><path class="cls-200" d="M212.89,178.5l1.22-.22a9.93,9.93,0,0,0,1.09.19c1.25,2.1.58,4.38.58,6.58q0,30.49,0,61c0,1.64,1.66,4.38-2,4.61l-3.31-3.39c2.22-1.69,1.35-4.12,1.36-6.24.06-18.48,0-37,0-55.43C211.86,183.18,211.56,180.72,212.89,178.5Z" transform="translate(-49.9 -128.76)"/><path class="cls-201" d="M403.47,247.09c-4.51.86-2.14-2.69-2.15-3.92-.16-18.63-.15-37.26-.08-55.89a28.52,28.52,0,0,0-1.14-8.78l4.49.11v51.75C404.59,236,404.89,241.58,403.47,247.09Z" transform="translate(-49.9 -128.76)"/><path class="cls-202" d="M213.77,250.65c2.42-2.32.18-4.89.21-7.29.23-18.88.09-37.77.18-56.66a64.29,64.29,0,0,1,1-8.23c2.49.14,2.29,2,2.29,3.66q0,33.84,0,67.68a3.27,3.27,0,0,1-1.2,3Z" transform="translate(-49.9 -128.76)"/><path class="cls-203" d="M224.39,260.57c2.78-2,.6-4.67.62-6.78.19-22.46-.13-44.91-.17-67.37,0-2.17-.67-5.1,2.8-5.8,2.37,2,1.78,4.8,1.77,7.35-.06,21.53.11,43.07.08,64.6,0,3-.35,6,.71,8.9a3,3,0,0,1-1.21,3.89c-2.72.18-4-1.24-4.39-3.8A8.73,8.73,0,0,1,224.39,260.57Z" transform="translate(-49.9 -128.76)"/><path class="cls-204" d="M224.6,261.56l4.15,3.57c1.31.15,1.71,1.26,2.3,2.18a11.18,11.18,0,0,0,4.52,4.29c.15.55.3,1.1,1.08.91l5.26,4.06a3.18,3.18,0,0,1,.13,1,2.19,2.19,0,0,0-2.17,1.28l-7.68-6-9.27-9.57Z" transform="translate(-49.9 -128.76)"/><path class="cls-205" d="M294.13,178.38c1.07,2.94-.08,5.89-.07,8.83q.17,64.29,0,128.57c0,3,1.69,6.08,0,9.1l-3.42-3.33a18.41,18.41,0,0,1-1.47-8.23q0-63.09,0-126.17c0-3.19-.26-6.48,2.7-8.77Z" transform="translate(-49.9 -128.76)"/><path class="cls-206" d="M291.88,178.38a30.47,30.47,0,0,0-1.16,8.83q.07,62.89-.08,125.81c0,2.83,1.83,5.71,0,8.53a5.88,5.88,0,0,1-4.33-3.5c.84-1.76.67-3.64.66-5.52-.1-41.61,0-83.22,0-124.84,0-3.33-.45-6.85,2.69-9.31Z" transform="translate(-49.9 -128.76)"/><path class="cls-207" d="M289.62,178.38a31.19,31.19,0,0,0-1.16,8.29q.09,62.25.06,124.49a33.4,33.4,0,0,0,.51,5.55c.66,3.77-2,.6-2.73,1.34L284,315.82c1.66-.93,1.23-2.45,1.23-3.94-.13-41.71,0-83.41-.08-125.11,0-3-.16-6,2.26-8.39Z" transform="translate(-49.9 -128.76)"/><path class="cls-208" d="M287.37,178.38a30.66,30.66,0,0,0-1.16,9.4q.07,61,0,122c0,2.1,1.51,5.14-2.22,6l-1.13-1.12c1-.18,1.5-.45,1.5-1.77-.16-42.47-.22-84.94-.41-127.42,0-2.38,1.23-4.76.07-7.15Z" transform="translate(-49.9 -128.76)"/><path class="cls-209" d="M392.21,259.61,390,261.83c-1.64-.68-2-1.51-2.06-3.61-.9-21.51.15-43-.33-64.53-.09-4.31,1.29-8.86-1.93-12.91-1.45-1.83,1.34-1.5,2-2.32l3.38,0c4.74,6.49,2.71,14,2.78,21,.16,17.68-.47,35.37,0,53C393.86,255.42,393.77,257.47,392.21,259.61Z" transform="translate(-49.9 -128.76)"/><path class="cls-210" d="M387.67,178.46c-.24.28-.76.69-.69.83,4,8.88,1.44,18.2,1.66,27.28.41,17.3.14,34.63-.08,51.94,0,1.64,1.37,2.06,1.41,3.32q-1.73,2.16-3.44,4.34c-.35.07-.71.14-1.06.19-2.8-9.28-1-18.78-1.25-28.17-.39-13.93-.09-27.89-.08-41.83,0-6,.75-12-1-17.9Z" transform="translate(-49.9 -128.76)"/><path class="cls-121" d="M365.14,178.44c1.67,6.3,1.11,12.74,1.12,19.14,0,25.69.06,51.37-.05,77.06,0,3.15,1.08,6.3,0,9.44a9.28,9.28,0,0,1-4.38,4c3.47-4.22.7-8.95.76-13.34.29-23.77,0-47.55-.11-71.33,0-5.33-.07-10.68.31-16,.23-3.33-.92-6.09-2.17-8.94Z" transform="translate(-49.9 -128.76)"/><path class="cls-211" d="M325.69,178.37c-1.06,2.94.09,5.89.08,8.84-.11,41.58-.07,83.17-.1,124.75,0,2.71-.19,5.38,2.29,7.26l-3.48,4.44-1.06-.05c-3.59-2.52-2.65-6.37-2.65-9.8q-.11-62.74,0-125.48c0-3.3-1.16-6.69.42-9.94Z" transform="translate(-49.9 -128.76)"/><path class="cls-212" d="M321.2,178.39a30.62,30.62,0,0,1,1.14,9.39q-.06,63.51-.06,127a29.42,29.42,0,0,0,1.14,8.83q-1.87,2.24-3.77,4.45c-1,.5-1.92,1-2.87,1.51l3.27-4.74c-1.36-2.82-1.11-5.85-1.11-8.84q0-63.81,0-127.63c0-3.33-.62-6.65,0-10Z" transform="translate(-49.9 -128.76)"/><path class="cls-213" d="M318.94,178.38a30.94,30.94,0,0,1,1.15,9.39c0,42.89.05,85.78-.21,128.67,0,2.81,2.91,5.59.17,8.39-3.7-.91-2.18-3.94-2.18-6q-.14-70.21-.06-140.42Z" transform="translate(-49.9 -128.76)"/><path class="cls-155" d="M393.32,335c.64-1.13,1.38-2.83,2.7-2.4,1.77.58,1.78,2.63,1.79,4.3,0,8.07,0,16.15,0,24.22q0,14.66,0,29.29c0,2.26-.13,4.52,1.13,6.55h-4.5l-1-.51c-2.08-2.09-1.88-4.8-1.89-7.38-.07-15.52,0-31,0-46.56C391.55,339.83,391.81,337.25,393.32,335Z" transform="translate(-49.9 -128.76)"/><path class="cls-129" d="M400,399l-12.33,0-3.5-1.37c.59-1,1.57-.51,2.38-.65h3.38c1.5-1.37,3-1,4.5,0h0C395.78,399,398.58,397.13,400,399Z" transform="translate(-49.9 -128.76)"/><path class="cls-214" d="M216.35,333.83a18.08,18.08,0,0,0-1.14,7.26q.07,27.92,0,55.83c-2.3.15-3.41-.76-3.4-3.23,0-20.33,0-40.67,0-61.31Z" transform="translate(-49.9 -128.76)"/><path class="cls-215" d="M228.77,398.94l-12.42,0c1.13-1.52,3.52-.23,4.52-2a9.85,9.85,0,0,0,1.15-4.81c0-16,.33-32.05-.25-48.05-.17-4.75,1.89-2.4,3.6-2.35l1.33,1c-4.52,3.2-2.24,7.91-2.34,11.9-.29,12.47-.11,25-.1,37.44,0,2.4-.51,5.17,3.38,4.88H231a.81.81,0,0,1,1.3,0C232.35,399.68,229.8,398,228.77,398.94Z" transform="translate(-49.9 -128.76)"/><path class="cls-130" d="M394.44,396.92h-4.5c-1.26-2-1.14-4.27-1.14-6.51,0-14.93.05-29.85,0-44.77,0-2.17,1.39-5.23-2.53-5.81l1.44-1.49c2.29-.09,3.52-1.58,4.51-3.38h1.13v54.89C393.32,392.27,393.06,394.72,394.44,396.92Z" transform="translate(-49.9 -128.76)"/><path class="cls-140" d="M360.62,396.93h1.13a2.52,2.52,0,0,1,3.39,0l0,0,2.24,2.32-5.64,0Z" transform="translate(-49.9 -128.76)"/><path class="cls-136" d="M232.12,396.94l-1.1,0a9.77,9.77,0,0,0,1.14-5.39c-.48-13.3.83-26.6-.26-39.89-.18-2.16,1.37-1.75,2.52-2,1.12.82,2.7,1.21,2.45,3.17-1.69,13.8-.29,27.67-.87,41.49a20.6,20.6,0,0,1-.47,2.66A2.38,2.38,0,0,1,232.12,396.94Z" transform="translate(-49.9 -128.76)"/><path class="cls-137" d="M232.12,396.94h6.79c.45,2.11-2.1.79-2.38,2.07l-7.76-.06Z" transform="translate(-49.9 -128.76)"/><path class="cls-216" d="M365.14,396.92h-3.39c.87-11,1.18-22-.22-33-.21-1.64,0-2.44,1.35-3.05,3,.47,1.55,2.78,1.62,4.29C365,375.75,363.87,386.36,365.14,396.92Z" transform="translate(-49.9 -128.76)"/><path class="cls-217" d="M339.19,382.29c2.53,4.71.5,9.78,1.15,14.63a2.22,2.22,0,0,0-1.09,2.19l-2.28,0c-.84-4.52.77-9.1-.43-13.65C336.07,383.71,338.6,383.63,339.19,382.29Z" transform="translate(-49.9 -128.76)"/><path class="cls-218" d="M331.29,389c2.94,3.07-.29,6.87,1.18,10.11-2.07-.24-5.35,1.06-5.86-1.35C325.85,394.16,327.57,390.81,331.29,389Z" transform="translate(-49.9 -128.76)"/><path class="cls-219" d="M261.45,373.27c1.15.6,3,1.67,2.43,2.6-3,5.14.42,10.74-1.46,16-.7,1.95-.72,4.5,2.41,5.09,3.81.76-.69,1.49,0,2.23h-4.51c-1.8-7.13-1-14.4-1.1-21.61C259.18,375.77,258.71,373.64,261.45,373.27Z" transform="translate(-49.9 -128.76)"/><path class="cls-220" d="M275,399.12c-.38-3.8-1.15-7.56-.77-11.45.15-1.54.74-1.87,1.94-2,6.37,2.54,3.25,8.22,3.71,12.49C280,399.81,276.69,398.88,275,399.12Z" transform="translate(-49.9 -128.76)"/><path class="cls-221" d="M251.31,396.93c-3.27.64-3.18-2-3.2-3.77-.1-8.67.42-17.36-.06-26-.19-3.46,2.24-1.91,3.25-2.9.45.32,1.33.72,1.28.93C250.4,375.7,252.46,386.38,251.31,396.93Z" transform="translate(-49.9 -128.76)"/><path class="cls-222" d="M262.38,295.67c2.1-2.41.06-4.94.08-7.38.17-34.06.1-68.13.17-102.2,0-2-1.25-4.75,2.2-5.47,1.38,2.2,1.13,4.66,1.13,7.08q0,51.59,0,103.16c0,2.48-.92,5.4,2.22,6.93.77,1.11,3.12,2.2.05,3.36A24.33,24.33,0,0,1,262.38,295.67Z" transform="translate(-49.9 -128.76)"/><path class="cls-181" d="M255.87,289.88a5,5,0,0,1,4.37,3.55A6.77,6.77,0,0,1,255.87,289.88Z" transform="translate(-49.9 -128.76)"/><path class="cls-223" d="M231.05,267.31a3.66,3.66,0,0,1-2.3-2.18c2.39-2.95-.89-5.35-.84-8.26.41-23.76.33-47.53.35-71.3a38,38,0,0,0-.62-4.95H231c2.05,9.36.63,18.85.88,28.27.5,18.74-.88,37.5.63,56.24C232.58,265.81,231.56,266.58,231.05,267.31Z" transform="translate(-49.9 -128.76)"/><path class="cls-224" d="M236.65,180.62V268.5c-2.31-1.9-2.26-4.53-2.26-7.18,0-25.08,0-50.15.06-75.23C234.46,184.12,233.21,181.34,236.65,180.62Z" transform="translate(-49.9 -128.76)"/><path class="cls-225" d="M347.1,300c-2.79-.4-2.23-2.58-2.23-4.36q0-55.1,0-110.21a10,10,0,0,1,1.15-4.85c3.71.91,2.18,3.95,2.19,6,.09,35.25.13,70.51-.08,105.76C348.08,294.87,350.55,298,347.1,300Z" transform="translate(-49.9 -128.76)"/><path class="cls-226" d="M377.54,180.62c4.44-.2,3.35,3.11,3.35,5.5q.08,38.2,0,76.41c0,2.82,2.2,6.5-2.22,8.23-1.9-1.87-1.06-4.26-1.06-6.4Q377.49,222.48,377.54,180.62Z" transform="translate(-49.9 -128.76)"/></svg>