<?xml version="1.0" standalone="no"?>
<!DOCTYPE svg PUBLIC "-//W3C//DTD SVG 20010904//EN"
 "http://www.w3.org/TR/2001/REC-SVG-20010904/DTD/svg10.dtd">
<svg version="1.0" xmlns="http://www.w3.org/2000/svg"
 width="980.000000pt" height="296.000000pt" viewBox="0 0 980.000000 296.000000"
 preserveAspectRatio="xMidYMid meet">

<g transform="translate(0.000000,296.000000) scale(0.100000,-0.100000)"
fill="#000000" stroke="none">
<path d="M8360 2733 c-260 -12 -563 -42 -591 -59 -15 -9 -11 -2318 3 -2332 9
-9 77 -12 244 -12 l232 0 6 23 c3 12 6 219 6 459 l0 438 26 6 c14 4 89 4 167
2 172 -6 207 -18 276 -94 61 -66 67 -82 188 -489 52 -176 99 -326 105 -332 8
-10 68 -13 239 -13 205 0 229 2 229 16 0 28 -191 735 -220 816 -38 104 -90
179 -163 235 -58 45 -59 47 -40 62 12 9 46 35 76 58 152 117 247 347 233 563
-7 111 -28 187 -78 289 -113 230 -340 342 -718 357 -80 3 -149 6 -155 7 -5 1
-35 1 -65 0z m303 -424 c80 -16 155 -64 194 -122 41 -62 53 -104 53 -194 0
-139 -65 -244 -187 -305 l-66 -32 -194 -4 c-144 -3 -197 -1 -208 8 -13 11 -15
58 -15 310 0 358 -6 340 116 351 96 9 229 4 307 -12z"/>
<path d="M196 2701 c-8 -12 2 -42 384 -1251 189 -597 350 -1093 358 -1102 13
-16 37 -18 217 -18 188 0 203 1 220 20 10 11 71 187 137 392 65 205 232 723
369 1150 138 428 249 785 247 795 -3 17 -22 18 -235 21 -232 2 -232 2 -247
-20 -8 -13 -112 -365 -231 -783 -118 -418 -220 -773 -227 -789 -11 -26 -13
-27 -20 -10 -4 10 -105 370 -224 799 -118 429 -220 785 -226 792 -8 10 -71 13
-264 13 -139 0 -255 -4 -258 -9z"/>
<path d="M2326 2694 c-3 -9 -6 -541 -6 -1183 0 -894 3 -1170 12 -1179 9 -9 77
-12 244 -12 198 0 235 2 248 16 14 14 16 135 16 1179 0 640 -3 1170 -6 1179
-5 14 -37 16 -254 16 -217 0 -249 -2 -254 -16z"/>
<path d="M3342 2698 c-9 -11 -29 -205 -38 -363 -3 -60 -20 -239 -39 -425 -8
-74 -17 -166 -20 -205 -3 -38 -12 -146 -20 -240 -8 -93 -24 -273 -35 -400 -11
-126 -27 -300 -35 -385 -30 -294 -33 -335 -28 -343 5 -8 424 -10 447 -1 21 8
23 20 52 449 39 581 42 635 58 848 15 198 22 233 36 206 5 -8 130 -340 280
-739 149 -399 278 -735 286 -748 9 -13 25 -22 39 -22 14 0 31 9 39 22 16 24
566 1462 566 1478 0 17 18 11 24 -7 2 -10 9 -108 15 -218 7 -110 16 -236 21
-280 5 -44 11 -150 15 -235 4 -133 15 -305 42 -678 l6 -82 237 0 c272 0 256
-6 241 94 -6 33 -17 142 -26 241 -17 197 -43 474 -50 545 -3 25 -14 149 -25
275 -65 739 -113 1211 -123 1217 -7 4 -112 8 -235 8 -218 0 -223 0 -245 -22
-14 -15 -108 -252 -256 -651 -129 -345 -239 -626 -244 -624 -6 2 -118 291
-250 642 -131 352 -244 643 -251 647 -6 4 -115 8 -242 8 -173 0 -234 -3 -242
-12z"/>
<path d="M6414 2702 c-14 -9 -119 -337 -692 -2167 -33 -104 -58 -193 -55 -197
2 -5 109 -8 237 -8 178 0 236 3 244 13 6 7 36 103 67 212 30 110 60 210 65
222 l10 23 324 0 c294 0 326 -2 344 -17 15 -13 35 -73 73 -218 28 -110 56
-208 61 -217 8 -16 31 -18 263 -18 140 0 255 3 255 6 0 14 -495 1631 -678
2214 l-49 155 -229 2 c-126 2 -234 0 -240 -5z m341 -1110 c58 -221 103 -407
100 -412 -4 -6 -97 -10 -231 -10 l-224 0 0 26 c0 14 42 173 94 353 52 179 102
355 111 391 23 94 25 99 36 75 5 -11 56 -201 114 -423z"/>
</g>
</svg>
