<?xml version="1.0" standalone="no"?>
<!DOCTYPE svg PUBLIC "-//W3C//DTD SVG 20010904//EN"
 "http://www.w3.org/TR/2001/REC-SVG-20010904/DTD/svg10.dtd">
<svg version="1.0" xmlns="http://www.w3.org/2000/svg"
 width="708.000000pt" height="851.000000pt" viewBox="0 0 708.000000 851.000000"
 preserveAspectRatio="xMidYMid meet">

<g transform="translate(0.000000,851.000000) scale(0.100000,-0.100000)"
fill="#000000" stroke="none">
<path d="M387 8389 c-77 -48 -162 -135 -194 -200 -57 -115 -53 170 -53 -3914
0 -4092 -4 -3809 56 -3927 14 -28 49 -75 76 -104 92 -97 175 -138 360 -175
160 -33 317 -24 1103 64 374 42 1153 128 1730 192 2180 240 2851 316 2893 326
184 42 332 215 357 419 6 48 13 60 48 90 107 94 175 168 199 220 49 104 50
128 33 828 -8 356 -37 1590 -65 2742 -27 1171 -54 2126 -60 2165 -13 86 -43
152 -104 229 l-46 58 0 97 c0 110 -20 208 -55 267 -44 75 -102 140 -159 178
-114 75 -49 67 -1461 177 -709 55 -1591 122 -1960 149 -368 28 -962 74 -1320
102 -564 45 -694 52 -980 55 l-330 4 -68 -42z m297 -481 c3 -106 17 -1709 31
-3563 13 -1853 27 -3497 30 -3652 l6 -283 -22 0 c-25 0 -132 26 -172 42 -16 6
-36 27 -48 49 -19 38 -19 91 -18 3761 0 2960 3 3730 13 3758 18 49 67 80 126
80 l48 0 6 -192z m853 127 c323 -24 1337 -101 2253 -170 916 -69 1845 -139
2065 -156 340 -25 406 -33 442 -50 62 -30 73 -66 73 -249 l0 -151 -62 6 c-35
3 -1010 73 -2168 155 -1158 83 -2175 155 -2260 162 -85 6 -236 12 -335 12
l-180 1 -55 -31 c-45 -25 -60 -42 -84 -88 l-30 -57 2 -317 c3 -525 22 -2766
37 -4447 13 -1399 16 -1585 30 -1627 20 -57 86 -122 141 -138 104 -30 309 -23
779 25 554 57 2804 291 3462 360 392 41 715 75 718 75 4 0 5 -63 3 -139 -3
-123 -6 -143 -24 -168 -11 -15 -32 -33 -45 -40 -13 -6 -292 -41 -619 -77 -327
-36 -1090 -119 -1695 -186 -605 -66 -1529 -168 -2054 -226 -524 -57 -962 -102
-972 -99 -11 4 -23 15 -29 25 -10 19 -76 7600 -66 7626 8 20 11 20 673 -31z
m2471 -780 c1269 -90 2330 -167 2359 -170 28 -4 57 -13 63 -20 9 -10 21 -411
45 -1427 19 -777 41 -1690 49 -2028 36 -1414 48 -2011 42 -2035 -4 -14 -16
-27 -29 -30 -20 -5 -1257 -135 -2557 -270 -294 -30 -877 -91 -1295 -134 -418
-44 -792 -83 -830 -86 -99 -10 -104 -3 -111 156 -3 68 -25 822 -50 1674 -24
853 -62 2167 -84 2920 -44 1519 -46 1585 -28 1603 7 7 36 12 66 12 30 0 1092
-74 2360 -165z m-2614 -57 c23 -721 42 -1345 91 -3008 30 -1031 61 -2122 70
-2425 8 -302 17 -587 19 -632 l5 -83 -59 0 c-79 0 -100 19 -100 93 0 28 -11
1330 -25 2892 -28 3166 -29 3365 -17 3365 5 0 12 -91 16 -202z"/>
</g>
</svg>
