<svg viewBox="0 0 1000 1000" xmlns="http://www.w3.org/2000/svg">
  <!-- Stile bold: contorni neri su sfondo trasparente. Bordi strutturali irrobustiti (~x1.5); marchi piccoli mantenuti leggibili. -->

  <defs>
    <clipPath id="fuoriTelaio">
      <path d="M0 0 H1000 V1000 H0 Z M167 57 H972 V808 H167 Z" clip-rule="evenodd"/>
    </clipPath>
  </defs>

  <!-- ====== STAFFE / CLIP (dietro al telaio) ====== -->
  <g clip-path="url(#fuoriTelaio)">
    <g fill="none" stroke="#000000" stroke-width="9">
      <rect x="28" y="113" width="174" height="144" rx="14"/>
      <circle cx="97" cy="185" r="28"/>
    </g>
    <rect x="608" y="26" width="164" height="58" rx="8" fill="none" stroke="#000000" stroke-width="9"/>
    <rect x="776" y="24" width="113" height="62" rx="8" fill="none" stroke="#000000" stroke-width="9"/>
    <polygon points="802,42 863,42 832,76" fill="none" stroke="#000000" stroke-width="9" stroke-linejoin="round"/>
    <g fill="none" stroke="#000000" stroke-width="9">
      <rect x="498" y="770" width="146" height="192" rx="14"/>
      <circle cx="571" cy="898" r="27"/>
    </g>
    <rect x="806" y="770" width="78" height="66" rx="8" fill="none" stroke="#000000" stroke-width="9"/>
    <polygon points="824,826 870,826 847,792" fill="none" stroke="#000000" stroke-width="9" stroke-linejoin="round"/>
  </g>

  <!-- ====== TELAIO ====== -->
  <rect x="167" y="57" width="805" height="751" rx="32" fill="none" stroke="#000000" stroke-width="18"/>
  <rect x="190" y="80" width="759" height="705" rx="22" fill="none" stroke="#000000" stroke-width="5"/>

  <!-- ====== CLIP LATERALI (slot pieni) ====== -->
  <rect x="164" y="317" width="34" height="234" rx="15" fill="#000000" stroke="#000000" stroke-width="9"/>
  <rect x="946" y="317" width="34" height="234" rx="15" fill="#000000" stroke="#000000" stroke-width="9"/>

  <!-- ====== SPIE / CONTATTI SUPERIORI ====== -->
  <circle cx="551" cy="135" r="14" fill="none" stroke="#000000" stroke-width="9"/>
  <rect x="705" y="131" width="33" height="30" rx="3" fill="none" stroke="#000000" stroke-width="6"/>
  <g stroke="#000000" stroke-width="4">
    <line x1="713" y1="131" x2="713" y2="161"/>
    <line x1="721" y1="131" x2="721" y2="161"/>
    <line x1="729" y1="131" x2="729" y2="161"/>
  </g>

  <!-- ====== MARCHI (lampada, CE, certificazione) ====== -->
  <g fill="none" stroke="#000000" stroke-width="7" stroke-linecap="round">
    <circle cx="430" cy="345" r="26"/>
    <line x1="417" y1="369" x2="443" y2="369"/>
    <line x1="420" y1="379" x2="440" y2="379"/>
    <line x1="430" y1="307" x2="430" y2="323"/>
  </g>
  <!-- CE: mantenuto a 10 per non fondere i due simboli -->
  <g fill="none" stroke="#000000" stroke-width="10" stroke-linecap="butt">
    <path d="M575 451 A24 24 0 1 0 575 489"/>
    <path d="M629 451 A24 24 0 1 0 629 489"/>
    <line x1="610" y1="470" x2="636" y2="470"/>
  </g>
  <g fill="none" stroke="#000000" stroke-width="9">
    <circle cx="690" cy="472" r="30"/>
    <path d="M676 487 v-30 l14 18 l14 -18 v30" stroke-linejoin="round"/>
  </g>

  <!-- ====== BANNER MORSETTI ====== -->
  <rect x="240" y="534" width="280" height="74" fill="none" stroke="#000000" stroke-width="9"/>
  <rect x="620" y="534" width="190" height="74" fill="none" stroke="#000000" stroke-width="9"/>

  <!-- ====== BLOCCHI MORSETTI ====== -->
  <rect x="240" y="619" width="280" height="111" rx="4" fill="none" stroke="#000000" stroke-width="9"/>
  <rect x="620" y="619" width="190" height="111" rx="4" fill="none" stroke="#000000" stroke-width="9"/>

  <!-- ====== VITI ====== -->
  <g fill="none" stroke="#000000" stroke-width="5">
    <circle cx="290" cy="675" r="40"/>
    <circle cx="382" cy="675" r="40"/>
    <circle cx="474" cy="675" r="40"/>
    <circle cx="668" cy="675" r="40"/>
    <circle cx="758" cy="675" r="40"/>
  </g>
  <g stroke="#000000" stroke-width="9" stroke-linecap="round">
    <line x1="265" y1="700" x2="315" y2="650"/>
    <line x1="357" y1="700" x2="407" y2="650"/>
    <line x1="449" y1="700" x2="499" y2="650"/>
    <line x1="643" y1="700" x2="693" y2="650"/>
    <line x1="733" y1="700" x2="783" y2="650"/>
  </g>
</svg>
