<?xml version="1.0" standalone="no"?>
<!DOCTYPE svg PUBLIC "-//W3C//DTD SVG 20010904//EN"
 "http://www.w3.org/TR/2001/REC-SVG-20010904/DTD/svg10.dtd">
<svg version="1.0" xmlns="http://www.w3.org/2000/svg"
 width="1280.000000pt" height="1024.000000pt" viewBox="0 0 1280.000000 1024.000000"
 preserveAspectRatio="xMidYMid meet">

<g transform="translate(0.000000,1024.000000) scale(0.100000,-0.100000)"
fill="#000000" stroke="none">
<path d="M7950 10016 c-41 -19 -657 -309 -1369 -645 l-1293 -610 -59 30 -59
29 -552 -276 -552 -276 -109 53 c-60 30 -111 57 -114 62 -2 4 18 35 46 68 45
54 51 66 51 108 l0 46 -146 73 -145 73 -182 -92 c-100 -50 -190 -98 -200 -107
-13 -12 -17 -28 -15 -61 3 -45 4 -47 60 -76 45 -23 57 -35 56 -51 -2 -15 -7
-20 -17 -16 -10 4 -12 1 -6 -8 5 -9 4 -11 -4 -6 -13 9 -41 -10 -41 -28 0 -6 4
-5 9 3 6 9 19 12 40 8 30 -6 31 -5 31 28 0 18 5 37 12 41 6 4 8 3 5 -3 -5 -7
110 -73 128 -73 3 0 5 19 5 43 0 23 4 47 8 53 6 10 264 144 277 144 3 0 5 -62
5 -137 l0 -138 -77 -40 c-42 -22 -81 -41 -85 -43 -4 -2 -8 19 -8 46 l0 50 -51
11 c-29 6 -54 9 -56 7 -3 -2 11 -7 29 -11 69 -14 68 -13 68 -68 l0 -52 985
-493 c542 -270 987 -492 990 -492 3 0 5 15 5 34 0 19 5 38 12 42 6 4 8 3 5 -3
-3 -5 27 -26 68 -46 l74 -36 -6 33 c-3 18 0 43 6 55 7 12 65 48 141 86 71 36
132 65 135 65 3 0 5 -62 5 -138 l0 -138 -85 -42 -85 -42 0 54 0 53 -50 10
c-27 6 -47 7 -45 3 3 -4 23 -10 45 -14 l40 -6 0 -53 c0 -47 3 -54 30 -69 26
-15 50 -61 37 -74 -6 -7 -2630 1305 -2639 1320 -6 8 -8 8 -8 -1 0 -6 5 -15 10
-18 26 -16 -2 -498 -31 -516 -8 -5 -88 -51 -179 -103 -91 -52 -176 -106 -189
-120 -18 -19 -26 -44 -35 -110 -9 -72 -15 -89 -40 -115 l-29 -30 -68 -823
c-38 -453 -68 -847 -69 -876 0 -72 20 -106 85 -143 30 -17 55 -34 55 -38 0 -4
-14 -20 -31 -37 -81 -77 -161 -208 -205 -337 -39 -116 -46 -199 -42 -547 3
-278 6 -331 21 -369 23 -60 60 -107 105 -132 l37 -22 -11 -135 c-6 -75 -15
-137 -20 -139 -43 -15 -132 -76 -146 -100 -15 -24 -31 -189 -93 -944 -42 -503
-75 -939 -73 -971 8 -109 -60 -69 1099 -648 742 -371 1049 -520 1072 -520 38
0 489 89 617 122 94 24 115 40 125 101 6 33 13 41 51 60 l45 21 124 -62 125
-62 0 -56 c0 -53 -3 -59 -55 -120 -30 -36 -58 -76 -61 -89 -14 -55 -2 -67 150
-142 l145 -72 174 84 c175 85 227 117 227 138 0 7 -5 5 -10 -5 -9 -14 -90 -68
-104 -68 -3 0 -6 39 -6 86 l0 86 33 -7 c17 -4 40 -9 50 -11 33 -10 17 6 -33
31 -27 14 -50 32 -50 40 0 9 37 34 89 59 49 25 91 52 95 61 3 9 6 110 6 223
l0 207 328 163 c391 196 472 243 472 277 0 18 9 29 33 41 17 9 73 46 122 82
66 49 487 276 1600 865 831 439 1525 810 1542 823 18 14 45 46 60 72 l28 47 3
337 c3 291 1 341 -13 368 -16 30 -30 38 -37 20 -4 -11 -2386 -1220 -2405
-1220 -7 0 -13 6 -12 13 0 6 542 282 1204 612 662 329 1203 601 1201 603 -2 2
-41 -15 -85 -38 l-82 -41 3 88 3 88 80 42 80 42 6 -87 5 -87 2 91 c2 86 4 93
27 108 25 16 25 18 25 153 l0 136 -35 33 -35 33 0 246 0 246 35 33 c31 30 35
39 35 86 0 47 -4 56 -35 84 l-35 32 0 253 0 252 -22 -6 c-19 -6 -21 -5 -10 6
6 7 24 13 40 14 16 0 26 6 24 14 -1 7 2 10 7 6 16 -9 31 30 31 78 0 39 -5 49
-35 76 l-35 30 0 256 0 256 -22 -6 c-21 -5 -21 -5 2 9 14 8 26 10 28 5 3 -6
10 -5 18 2 8 6 11 16 7 23 -3 6 -3 8 2 4 18 -17 35 16 35 67 0 48 -3 56 -35
84 l-35 30 0 251 0 251 35 30 c31 28 35 36 35 81 0 45 -4 54 -35 84 l-35 33 0
247 0 248 36 32 35 33 -3 253 -3 253 -28 60 c-35 74 -59 100 -119 131 -61 31
-85 30 -162 -5 -35 -16 -68 -26 -73 -22 -6 3 -12 31 -15 61 -7 89 -21 101
-220 201 -98 49 -186 89 -197 89 -10 0 -48 -14 -85 -30 -37 -17 -71 -28 -76
-25 -6 4 -10 23 -10 43 0 21 -10 58 -22 82 -22 43 -31 49 -203 137 -99 51
-187 92 -196 93 -9 0 -47 -14 -83 -31 -36 -17 -73 -28 -81 -25 -10 4 -15 20
-15 54 0 94 -3 96 -408 300 -250 125 -373 182 -395 182 -18 0 -66 -16 -107
-34z m475 -143 c214 -107 310 -160 300 -166 -9 -5 -120 45 -327 149 -172 86
-314 160 -316 165 -5 12 -49 12 -54 0 -1 -5 -610 -296 -1351 -645 -922 -435
-1353 -633 -1363 -628 -11 6 401 205 1318 637 733 346 1349 635 1368 642 19 7
52 11 73 8 21 -3 179 -76 352 -162z m272 -179 c-1 -1 -526 -257 -1167 -569
-641 -312 -1173 -574 -1182 -583 -28 -24 -23 -67 10 -90 55 -40 165 -54 233
-30 19 6 567 262 1219 569 l1185 557 149 -75 c81 -41 147 -76 145 -77 -2 -2
-528 -258 -1169 -570 -641 -312 -1173 -576 -1182 -588 -26 -29 -22 -53 12 -81
42 -36 129 -53 200 -39 37 7 453 198 1257 576 662 311 1212 566 1223 566 33 0
309 -144 283 -148 -12 -2 -82 27 -163 68 -78 39 -144 70 -146 68 -2 -2 60 -35
136 -73 77 -38 140 -72 140 -75 0 -3 -528 -262 -1173 -576 -1233 -600 -1215
-590 -1183 -639 33 -49 62 -60 164 -60 l97 0 1197 563 c658 310 1212 566 1231
569 19 3 43 0 53 -6 18 -10 18 -10 -1 -12 -26 -2 -26 -2 -50 6 -16 5 -17 5 -5
-4 8 -5 12 -13 8 -16 -9 -9 -2947 -1435 -2955 -1435 -5 0 -35 47 -68 103 -47
79 -68 106 -97 122 -37 19 -38 21 -38 76 0 53 -3 59 -35 88 -20 17 -167 97
-328 177 l-292 146 -63 -26 c-66 -28 -82 -27 -82 4 0 26 -49 50 -100 50 -31 0
-82 21 -220 90 l-180 90 0 43 c0 23 -7 53 -16 65 -9 13 -101 65 -210 120
l-194 97 1357 641 1358 641 322 -161 c177 -88 321 -161 320 -162z m105 -14
c27 -21 55 -76 44 -87 -4 -4 -543 -269 -1199 -588 -796 -388 -1199 -580 -1214
-577 -23 4 -33 32 -36 102 l-2 32 1165 568 c641 313 1177 569 1191 569 15 1
38 -8 51 -19z m48 -129 c0 -26 -8 -34 -76 -71 -42 -23 -83 -43 -93 -45 -32 -6
-470 -229 -465 -237 3 -4 -3 -5 -12 -1 -12 4 -15 3 -10 -5 5 -8 1 -10 -10 -5
-12 4 -15 3 -10 -5 5 -8 1 -10 -10 -5 -12 4 -15 3 -10 -5 5 -8 1 -10 -10 -5
-12 4 -15 3 -10 -5 5 -8 1 -10 -10 -5 -12 4 -15 3 -10 -5 5 -8 1 -10 -10 -5
-13 5 -15 3 -9 -7 5 -8 4 -11 -3 -6 -6 4 -102 -39 -214 -95 -244 -122 -1226
-585 -1285 -606 -23 -8 -58 -13 -79 -11 -33 3 106 73 1147 580 651 318 1185
578 1187 578 1 0 2 -13 2 -29z m345 -63 c102 -51 140 -75 128 -79 -12 -4 -72
21 -165 67 -82 41 -148 76 -148 79 0 17 58 -4 185 -67z m-325 17 c0 -5 -77
-45 -132 -68 -59 -25 -45 -11 35 33 66 36 97 48 97 35z m-270 -133 c-226 -106
-260 -121 -260 -117 0 10 336 172 345 167 5 -3 -33 -26 -85 -50z m799 11 c11
-10 27 -34 35 -53 l14 -35 -1189 -579 c-654 -319 -1188 -581 -1186 -583 2 -1
534 256 1183 572 648 316 1182 575 1187 575 4 0 7 -12 7 -27 0 -27 -16 -36
-315 -182 -173 -85 -312 -158 -309 -162 3 -5 -3 -6 -12 -2 -12 4 -15 3 -10 -5
5 -8 1 -10 -10 -5 -12 4 -15 3 -10 -5 5 -8 1 -10 -10 -5 -12 4 -15 3 -10 -5 5
-8 1 -10 -10 -5 -12 4 -15 3 -10 -5 5 -8 1 -10 -10 -5 -12 4 -15 3 -10 -5 5
-8 1 -10 -10 -5 -13 5 -15 3 -9 -7 5 -8 4 -11 -3 -6 -6 4 -109 -42 -229 -102
-416 -208 -1286 -611 -1333 -617 -25 -3 -65 -2 -90 2 l-44 8 -12 60 c-7 33 -9
63 -6 67 4 3 529 261 1167 572 755 368 1171 565 1191 565 18 1 41 -7 53 -16z
m-1099 -153 c-19 -11 -39 -19 -45 -19 -5 0 6 8 25 19 19 11 40 19 45 19 6 0
-6 -8 -25 -19z m1095 -60 c-104 -51 -132 -50 -35 0 41 21 84 39 95 39 11 -1
-16 -18 -60 -39z m-115 -48 c0 -7 -294 -148 -330 -159 -8 -2 59 34 150 81 169
87 180 92 180 78z m694 -26 c29 -12 67 -65 66 -93 -1 -4 -540 -271 -1200 -591
-861 -419 -1204 -582 -1219 -577 -22 7 -27 18 -36 85 l-7 45 1124 547 c1038
505 1228 598 1236 598 1 0 17 -6 36 -14z m66 -143 c0 -27 -15 -35 -305 -177
-167 -82 -302 -153 -299 -157 3 -5 -3 -6 -12 -2 -12 4 -15 3 -10 -5 5 -8 1
-10 -10 -5 -12 4 -15 3 -10 -5 5 -8 1 -10 -10 -5 -12 4 -15 3 -10 -5 5 -8 1
-10 -10 -5 -12 4 -15 3 -10 -5 5 -8 1 -10 -10 -5 -12 4 -15 3 -10 -5 5 -8 1
-10 -10 -5 -13 5 -15 3 -9 -7 5 -8 4 -11 -3 -6 -6 4 -109 -42 -229 -102 -120
-60 -461 -223 -757 -362 -459 -216 -547 -254 -595 -258 -31 -2 -53 -2 -50 2
10 10 2333 1144 2347 1145 7 1 12 -11 12 -26z m-1140 -18 c-14 -8 -29 -14 -35
-14 -5 0 1 6 15 14 14 8 30 14 35 14 6 0 -1 -6 -15 -14z m1450 -32 l32 -26
-26 -14 c-24 -13 -28 -11 -62 24 l-37 38 32 -39 c18 -21 31 -39 29 -41 -2 -1
-677 -330 -1502 -730 -1182 -574 -1500 -724 -1508 -714 -25 39 -39 72 -31 79
10 10 2907 1418 2953 1436 53 20 85 17 120 -13z m-326 -15 c-21 -10 -102 -48
-179 -84 -229 -108 -307 -144 -314 -143 -3 0 111 58 254 129 143 70 264 125
269 122 5 -3 -8 -14 -30 -24z m389 -85 c20 -44 22 -66 25 -286 2 -132 0 -246
-4 -255 -4 -10 -8 -20 -8 -24 -1 -3 -4 -9 -8 -13 -3 -4 -7 79 -8 184 0 145 2
191 12 191 7 0 6 4 -4 13 -9 6 -18 33 -21 58 -4 26 -18 73 -32 105 -20 45 -23
59 -13 66 26 16 40 7 61 -39z m-58 -28 c26 -58 48 -165 37 -177 -4 -4 -935
-479 -2070 -1056 l-2063 -1050 3 135 3 134 1933 983 c1063 541 1936 987 1940
991 8 10 -582 -289 -2458 -1244 l-1415 -720 -5 187 c-5 181 -14 232 -40 232
-6 0 -10 3 -10 8 0 4 205 115 455 246 250 132 453 241 452 243 -2 2 -209 -105
-460 -237 -251 -132 -462 -240 -469 -240 -7 1 -28 9 -47 19 l-35 19 35 17 c19
10 230 119 469 243 l434 225 45 -24 c39 -21 54 -41 129 -169 46 -80 88 -149
92 -154 4 -4 640 299 1412 674 771 376 1411 682 1421 682 9 0 15 3 12 8 -4 6
2 7 11 3 12 -4 15 -3 10 5 -5 8 -1 10 10 5 13 -5 15 -3 9 7 -5 8 -4 11 3 6 6
-4 37 7 69 23 32 17 59 30 61 31 2 0 14 -25 27 -55z m-4926 -94 c201 -101 250
-129 231 -134 -16 -4 -86 26 -264 115 -132 66 -243 122 -245 123 -5 5 9 25 17
24 4 0 121 -58 261 -128z m34 -228 c-92 -45 -165 -82 -161 -82 4 -1 87 37 184
84 98 47 190 85 205 85 36 0 59 -33 59 -86 l0 -41 -46 -7 c-26 -3 -73 -6 -106
-6 -51 0 -72 -7 -178 -60 l-119 -60 -4 43 -4 42 -1 -47 -2 -48 232 -116 c157
-78 227 -118 218 -124 -9 -5 -69 19 -173 72 -157 78 -161 79 -221 75 -34 -2
-71 -8 -83 -12 -23 -7 -23 -7 -23 109 0 112 1 116 19 106 11 -5 23 -10 28 -10
4 1 -3 7 -16 14 l-25 14 42 21 42 21 0 110 c0 71 -4 111 -12 116 -7 4 -8 3 -4
-5 5 -8 -123 -76 -398 -211 -223 -109 -406 -201 -406 -204 0 -8 817 -416 833
-416 7 0 189 88 406 195 234 116 405 195 422 195 32 0 79 -19 79 -32 0 -4
-206 -111 -457 -237 l-458 -229 -519 260 -519 260 164 80 c611 298 759 368
779 368 12 0 31 -5 43 -11 21 -10 21 -10 3 5 -11 9 -31 16 -44 16 -22 0 -981
-459 -1039 -498 -18 -11 -23 -24 -23 -58 0 -24 -2 -44 -5 -44 -3 0 -82 38
-175 85 l-170 85 0 50 c0 28 2 50 5 50 3 0 58 -26 123 -59 l117 -58 207 102
c113 57 203 106 200 110 -4 3 2 3 12 -1 13 -5 17 -4 12 4 -5 8 -1 10 10 5 12
-4 15 -3 10 5 -5 8 -1 10 10 5 12 -4 15 -3 10 5 -5 8 -1 10 10 5 12 -4 15 -3
10 5 -5 8 -1 10 10 5 12 -4 15 -3 10 5 -5 8 -1 10 10 5 12 -4 15 -3 10 5 -5 8
-1 10 10 5 12 -4 15 -3 10 5 -5 8 -1 10 10 5 12 -4 15 -3 10 5 -5 8 -1 10 10
5 12 -4 15 -3 10 5 -5 8 -1 10 10 5 12 -4 15 -3 10 5 -5 8 -1 10 10 5 12 -4
15 -3 10 5 -5 8 -1 10 10 5 12 -4 15 -3 10 5 -5 8 -1 10 10 5 12 -4 15 -3 10
5 -5 8 -1 10 10 5 12 -4 15 -3 10 5 -5 8 -1 10 10 5 12 -4 15 -3 10 5 -5 8 -1
10 10 5 12 -4 15 -3 10 5 -5 8 -1 10 10 5 12 -4 15 -3 10 5 -5 8 -1 10 10 5
12 -4 15 -3 10 5 -5 8 -1 10 10 5 12 -4 15 -3 10 5 -5 8 -1 10 10 5 12 -4 15
-3 10 5 -5 8 -1 10 10 5 12 -4 15 -3 10 5 -5 8 -1 10 10 5 12 -4 15 -3 10 5
-5 8 -1 10 10 5 12 -4 15 -3 10 5 -5 8 -1 10 10 5 12 -4 15 -3 10 5 -5 8 -1
10 10 5 12 -4 15 -3 10 5 -5 8 -1 10 10 5 12 -4 15 -3 10 5 -5 8 -1 10 10 5
12 -4 15 -3 10 5 -5 8 -1 10 10 5 12 -4 15 -3 10 5 -5 8 -1 10 10 5 12 -4 15
-3 10 5 -5 8 -1 10 10 5 12 -4 15 -3 10 5 -5 8 -1 10 10 5 12 -4 15 -3 10 5
-5 8 -1 10 10 5 12 -4 15 -3 10 6 -4 6 108 -46 249 -116 l257 -128 -169 -82z
m-1685 213 l124 -62 -42 -19 -41 -19 -130 64 -129 64 32 18 c18 9 40 17 48 17
8 0 71 -28 138 -63z m-103 -38 c69 -35 125 -65 125 -68 0 -3 -56 -33 -125 -68
l-125 -62 -125 62 c-69 35 -125 65 -125 68 0 5 227 126 242 129 4 0 64 -27
133 -61z m5831 17 c-11 -8 -25 -15 -30 -15 -6 1 0 7 14 15 32 19 40 18 16 0z
m-4189 -157 c-2 -29 -3 -6 -3 52 0 58 1 81 3 53 2 -29 2 -77 0 -105z m-17 44
l0 -98 -35 -17 -35 -17 0 -124 c0 -124 0 -124 -27 -145 -17 -12 -22 -20 -13
-21 8 0 -4 -19 -31 -47 -24 -27 -53 -59 -64 -73 -11 -14 11 8 48 47 l68 73
170 -85 c93 -47 169 -87 169 -88 0 -2 -48 -26 -106 -52 l-106 -49 -139 69
c-76 38 -139 73 -139 78 0 5 24 34 53 66 51 57 51 57 -8 -4 l-60 -62 -263 131
-263 131 388 192 c213 105 389 192 391 192 1 1 2 -43 2 -97z m-1370 24 c0 -37
-7 -52 -46 -100 -26 -31 -48 -56 -50 -56 -2 0 -4 36 -4 80 l0 80 38 19 c55 30
62 27 62 -23z m6470 -145 l0 -180 -267 -137 c-253 -130 -272 -141 -338 -208
-48 -49 -83 -96 -110 -150 l-40 -78 -765 -404 c-420 -222 -769 -409 -775 -415
-10 -10 24 8 320 164 l140 75 5 -47 c5 -44 6 -46 35 -45 19 1 -86 -55 -290
-156 -231 -114 -321 -154 -323 -144 -5 20 43 98 74 123 15 12 22 21 16 21 -13
0 -67 -62 -89 -103 -11 -21 -17 -55 -18 -98 0 -79 19 -109 69 -109 21 0 291
132 819 400 l789 399 34 -34 c37 -37 82 -51 144 -42 22 3 149 62 301 141 144
75 263 136 265 136 26 0 -38 -37 -258 -150 -249 -128 -267 -139 -339 -210 -56
-56 -86 -95 -114 -152 l-38 -77 -772 -408 c-753 -398 -772 -408 -734 -415 22
-4 53 -15 69 -25 l30 -17 -42 -23 c-24 -12 -61 -22 -83 -23 -22 0 -55 -4 -73
-9 -43 -13 -41 -1 10 57 l42 47 -38 -35 c-112 -102 -115 -290 -4 -290 11 0
375 180 810 401 l790 401 31 -30 c42 -39 69 -52 110 -52 51 0 81 13 350 153
137 71 251 126 255 123 8 -8 23 1 -261 -146 -142 -73 -278 -149 -303 -169 -56
-46 -119 -129 -155 -206 l-29 -60 -727 -384 c-726 -384 -843 -448 -810 -437
15 5 17 -2 17 -49 l0 -55 -71 -36 c-39 -19 -73 -34 -74 -32 -9 9 40 97 73 133
l37 40 -39 -35 c-50 -45 -86 -121 -86 -182 0 -38 6 -54 29 -80 26 -30 31 -31
64 -23 19 6 384 187 811 403 l777 394 38 -35 c44 -39 86 -52 139 -42 20 4 155
67 298 141 144 74 263 134 266 134 3 0 5 -7 5 -15 0 -8 -4 -12 -7 -10 -8 5
-447 -220 -523 -267 -66 -42 -131 -119 -178 -212 l-40 -80 -786 -415 c-470
-248 -800 -428 -818 -447 -43 -43 -68 -99 -73 -166 -4 -53 -2 -59 26 -88 17
-16 39 -30 49 -30 10 0 376 182 812 404 l795 403 23 -28 c13 -15 43 -35 68
-44 66 -26 106 -11 395 140 227 118 286 145 254 116 -5 -5 -126 -69 -269 -142
-236 -122 -266 -140 -325 -199 -43 -43 -80 -94 -110 -150 l-45 -84 -780 -412
c-571 -301 -791 -422 -821 -451 -99 -96 -97 -278 3 -275 18 0 333 155 818 400
l788 400 20 -24 c28 -36 70 -54 128 -54 47 0 77 13 326 140 l273 141 0 -98 -1
-98 -1146 -605 c-630 -332 -1148 -610 -1150 -617 -3 -7 -9 -10 -15 -7 -13 9
-55 -33 -86 -86 -22 -36 -27 -58 -27 -111 0 -78 19 -109 68 -109 21 0 371 172
1051 516 562 284 1085 550 1164 591 l142 74 0 -268 -1 -268 -2061 -1085
c-1133 -597 -2065 -1087 -2069 -1088 -5 -2 -8 1104 -7 2565 l3 2568 2065 1052
c1136 578 2066 1052 2068 1052 1 1 2 -80 2 -178z m-6986 77 c118 -58 123 -63
114 -84 -11 -23 -11 -23 -139 42 -117 58 -142 78 -122 97 11 12 20 9 147 -55z
m2971 25 c4 -21 9 -46 12 -55 5 -22 -1 -22 -32 -2 -27 18 -34 61 -13 82 20 20
27 14 33 -25z m-2865 -157 c0 -8 -7 -17 -16 -20 -10 -4 -13 -2 -8 6 5 8 2 9
-10 5 -11 -5 -15 -3 -10 5 5 8 2 9 -10 5 -11 -5 -15 -3 -10 5 5 8 2 9 -10 5
-11 -5 -15 -3 -10 5 5 8 2 9 -10 5 -9 -4 -15 -3 -12 2 7 11 -22 23 -36 14 -7
-4 -8 -1 -3 7 6 10 4 12 -9 7 -11 -5 -15 -3 -10 5 5 8 2 9 -10 5 -11 -5 -15
-3 -10 5 5 8 2 9 -10 5 -11 -5 -15 -3 -10 5 5 8 2 9 -10 5 -11 -5 -15 -3 -10
5 5 8 2 9 -10 5 -10 -4 -15 -3 -11 3 3 6 1 10 -4 10 -6 0 -11 9 -11 20 0 18
15 13 130 -45 73 -36 130 -71 130 -79z m2415 -43 c96 -48 175 -90 175 -93 0
-3 -78 -44 -173 -91 l-172 -87 -230 115 -230 115 110 56 c113 56 141 63 312
71 23 1 85 -25 208 -86z m-1930 -140 l174 -87 3 -61 3 -60 500 -252 c275 -139
510 -252 523 -252 12 -1 45 10 72 24 l50 25 85 -42 85 -43 -2 -49 -3 -50 50
-28 c28 -15 55 -26 60 -24 6 2 9 -12 7 -35 l-4 -38 -974 487 c-535 268 -970
490 -966 494 14 14 136 78 149 78 7 0 91 -39 188 -87z m-220 -145 l445 -223 0
-122 c0 -68 -2 -123 -5 -123 -3 0 -205 100 -450 222 l-445 223 0 122 c0 68 2
123 5 123 3 0 205 -100 450 -222z m3198 177 c12 -61 7 -71 -25 -45 -30 23 -34
40 -17 71 15 29 32 18 42 -26z m-1655 -587 l3 -97 -41 -21 -40 -20 0 95 0 95
38 20 c42 24 37 23 -32 -4 l-48 -20 -509 255 c-280 139 -509 256 -509 260 0 3
21 17 47 31 l47 26 520 -261 521 -262 3 -97z m4832 469 l-235 -122 3 -252 2
-253 -75 -37 c-41 -21 -75 -41 -75 -45 0 -4 17 -16 38 -27 33 -17 35 -20 17
-28 -35 -14 -113 -9 -131 8 -14 15 -13 17 20 23 19 4 38 11 41 15 2 5 -11 5
-30 1 -20 -5 -33 -4 -29 1 3 5 -9 9 -27 9 -19 0 -52 13 -82 32 l-49 32 -164
-82 c-90 -45 -166 -82 -169 -82 -3 0 -5 31 -5 69 l0 70 87 45 c85 44 88 45
113 29 91 -60 260 38 340 197 43 86 74 200 50 185 -6 -4 -8 -10 -5 -14 7 -12
-23 -108 -52 -166 -70 -138 -203 -232 -295 -207 l-33 9 28 8 c19 5 27 14 27
30 0 29 36 46 68 32 22 -10 30 -5 89 56 41 44 63 73 59 83 -4 10 -2 13 6 8 8
-5 9 -2 5 10 -5 11 -3 15 5 10 8 -5 9 -2 5 10 -4 9 -3 14 2 11 9 -5 27 32 23
48 -1 5 2 6 7 3 8 -6 18 9 19 28 0 13 85 96 93 90 10 -6 71 31 69 41 -2 9 448
245 465 245 6 0 -96 -55 -225 -123z m-3490 -28 c129 -65 227 -118 218 -118 -9
-1 -19 -5 -23 -10 -3 -6 6 -6 25 -1 17 5 28 5 26 1 -12 -18 -828 -403 -837
-394 -6 6 135 78 378 195 213 103 389 190 390 195 2 4 -105 62 -237 128 -146
73 -235 122 -227 127 18 11 32 5 287 -123z m3700 -124 c0 -221 -2 -245 -17
-245 -9 0 -44 -16 -79 -35 -34 -19 -65 -35 -68 -35 -3 0 -6 108 -6 240 l0 240
78 39 c42 22 80 40 85 41 4 0 7 -110 7 -245z m-4822 156 l156 -78 -39 -21 -40
-20 -160 80 c-212 106 -217 111 -125 115 47 2 67 -5 208 -76z m1054 -42 l241
-121 -139 -67 c-76 -37 -254 -122 -395 -190 l-256 -123 -71 36 c-39 20 -79 36
-89 36 -10 -1 -101 -43 -202 -95 l-184 -93 -82 41 -83 41 457 226 c268 133
458 233 458 241 0 8 2 49 3 91 2 43 7 75 11 72 4 -2 23 2 41 10 18 8 36 15 41
15 4 1 116 -53 249 -120z m-2405 -31 c-2 -29 -3 -8 -3 47 0 55 1 79 3 53 2
-26 2 -71 0 -100z m2043 46 l0 -95 -442 -220 c-244 -120 -446 -219 -450 -219
-5 0 -8 42 -8 93 l0 92 443 222 c243 122 445 222 450 222 4 1 7 -42 7 -95z
m-1545 -151 l475 -238 0 -97 0 -98 -480 240 -480 240 0 95 c0 52 2 95 5 95 3
0 219 -107 480 -237z m755 137 c157 -78 163 -83 140 -95 -23 -12 -39 -6 -203
77 -97 49 -175 94 -172 99 13 20 78 -2 235 -81z m4740 -194 c0 -129 2 -240 5
-248 4 -9 -35 -33 -120 -76 -69 -34 -127 -62 -130 -62 -3 0 -5 111 -5 248 l0
247 118 61 c64 34 120 62 125 63 4 0 7 -104 7 -233z m-6407 -87 c243 -122 442
-222 443 -223 1 0 -1 -18 -4 -39 -3 -28 -10 -39 -27 -43 -16 -4 -125 46 -396
181 l-373 187 -30 -17 c-17 -10 -45 -26 -61 -36 l-30 -18 8 102 c8 104 12 127
22 127 3 0 204 -99 448 -221z m3800 108 c5 -34 4 -36 -13 -27 -46 25 -56 70
-21 98 17 14 22 5 34 -71z m2316 80 c-2 -1 -13 -9 -24 -17 -19 -14 -19 -14 -6
3 7 9 18 17 24 17 6 0 8 -1 6 -3z m-2924 -53 c18 -8 42 -25 54 -38 l21 -22
-430 -232 c-236 -128 -432 -232 -434 -232 -3 0 -3 8 0 18 4 13 2 12 -7 -3 -7
-11 -34 -46 -61 -78 l-48 -58 0 85 0 86 50 25 c27 14 51 25 54 25 3 0 7 -15 9
-32 l4 -33 1 32 c2 29 -3 35 -42 55 l-44 23 412 197 c226 109 415 198 419 198
5 0 24 -7 42 -16z m75 -81 c-1 -20 -43 -45 -467 -273 -398 -215 -473 -260
-432 -260 6 0 7 4 4 10 -4 6 1 7 11 3 12 -4 15 -3 10 5 -5 8 -1 10 11 6 15 -5
16 -4 3 6 -12 9 -10 10 10 5 20 -5 22 -4 10 5 -12 9 -10 10 10 5 20 -5 22 -4
10 5 -12 9 -10 10 10 5 20 -5 22 -4 10 5 -12 9 -10 10 10 5 20 -5 22 -4 10 5
-13 10 -12 11 3 6 10 -3 16 -2 12 4 -4 6 1 7 11 3 12 -4 15 -3 10 5 -5 8 -1
10 11 6 15 -5 16 -4 3 6 -12 9 -10 10 10 5 20 -5 22 -4 10 5 -12 9 -10 10 10
5 20 -5 22 -4 10 5 -12 9 -10 10 10 5 20 -5 22 -4 10 5 -12 9 -10 10 10 5 20
-5 22 -4 10 5 -12 9 -10 10 10 5 20 -5 22 -4 10 5 -13 10 -12 11 3 6 12 -4
123 48 318 150 165 86 302 154 304 153 2 -2 -144 -80 -323 -173 -180 -93 -396
-205 -481 -249 l-154 -81 51 -25 c29 -14 52 -28 52 -31 0 -12 -98 -53 -109
-46 -17 11 -14 91 4 106 8 7 12 16 9 21 -3 5 3 6 12 2 12 -4 15 -3 10 5 -5 8
-1 10 11 5 15 -6 16 -4 5 9 -10 13 -9 19 5 37 15 18 882 497 906 500 4 1 7 -2
7 -6z m-3251 -187 c357 -179 363 -183 334 -195 -29 -12 -46 -5 -389 166 -198
98 -361 179 -363 181 -7 4 32 31 44 31 6 0 174 -82 374 -183z m611 74 c0 -3
-15 -12 -32 -20 -28 -13 -36 -26 -61 -103 -24 -72 -34 -90 -54 -98 -14 -5 -27
-8 -27 -7 -1 2 0 74 2 160 l4 157 84 -42 c46 -23 84 -44 84 -47z m-1026 62 c6
-10 -343 -212 -365 -212 -43 0 -14 22 153 117 179 101 202 111 212 95z m3654
-3 c-4 -12 -598 -323 -604 -316 -5 5 585 326 599 327 5 0 7 -5 5 -11z m-3489
-73 l123 -62 -43 -13 c-23 -7 -54 -17 -68 -23 l-26 -10 38 -19 38 -20 47 34
47 34 547 -273 c302 -151 551 -274 555 -273 5 0 -149 79 -341 175 -191 96
-346 177 -344 179 2 2 41 18 86 34 l83 31 344 -173 c190 -94 345 -175 345
-178 0 -4 -36 -19 -80 -35 -44 -15 -80 -31 -80 -36 0 -4 84 -50 188 -102 179
-90 186 -95 159 -105 -16 -6 -34 -11 -40 -11 -7 -1 -23 -7 -37 -14 l-25 -14
38 -18 37 -18 47 33 47 33 128 -63 c70 -35 124 -66 120 -70 -11 -10 -416 -169
-429 -169 -16 0 -303 143 -303 150 0 3 21 16 48 29 26 12 67 34 91 48 l45 26
-85 43 c-46 24 -92 43 -101 43 -9 1 -60 -19 -113 -44 l-96 -44 -495 247 -494
247 93 47 c50 26 89 47 84 47 -4 1 -44 -17 -88 -40 -45 -22 -83 -39 -85 -36
-2 2 -1 40 3 85 l6 81 78 -40 c43 -21 82 -39 86 -38 5 0 -31 20 -79 44 l-87
45 -107 -47 -106 -47 -155 78 -156 77 149 86 c82 47 163 94 179 104 17 10 37
19 45 18 8 0 71 -28 139 -63z m1511 -311 c0 -3 -144 67 -320 155 -176 88 -320
162 -320 165 0 3 144 -67 320 -155 176 -88 320 -162 320 -165z m-320 145 c260
-130 320 -164 320 -180 0 -17 -51 6 -344 152 -190 95 -342 176 -340 180 12 20
64 -2 364 -152z m5645 134 c46 -9 73 -86 40 -114 -9 -7 -16 -11 -18 -9 -26 46
-28 52 -18 62 13 13 15 44 3 51 -4 2 -8 -7 -7 -22 0 -24 -20 -36 -259 -160
l-259 -135 -41 20 -41 20 218 109 c119 60 217 113 217 119 0 16 113 75 130 69
8 -3 24 -7 35 -10z m-5676 -169 l350 -174 -26 -78 c-14 -43 -29 -82 -33 -86
-5 -6 -678 320 -698 338 -4 4 50 175 55 175 2 0 160 -79 352 -175z m531 73 l0
-98 -30 0 -30 0 0 98 0 97 30 0 30 0 0 -97z m4390 69 c0 -2 -16 -18 -35 -37
-31 -30 -35 -31 -35 -14 0 13 12 26 33 37 36 18 37 18 37 14z m-5940 -21 c0
-2 -17 -15 -38 -28 -33 -23 -40 -24 -57 -12 -10 8 -17 15 -14 18 16 14 109 33
109 22z m2325 -68 c69 -35 125 -65 125 -68 0 -3 -77 -44 -170 -90 l-170 -85
-133 66 -132 66 130 66 130 65 125 -64 c69 -34 130 -63 135 -63 6 0 -48 30
-120 66 l-129 65 34 19 c19 10 38 18 42 19 4 0 64 -28 133 -62z m3535 36 c0
-8 -5 -12 -10 -9 -6 4 -8 11 -5 16 9 14 15 11 15 -7z m843 -33 c4 -15 -37 -40
-237 -144 l-241 -126 -17 22 c-10 12 -18 24 -18 27 0 3 109 62 243 131 153 79
246 122 253 117 7 -5 14 -17 17 -27z m-7390 3 c11 -12 -16 -55 -31 -49 -19 7
-60 -20 -73 -48 -8 -18 -9 -16 -4 12 3 19 13 43 23 54 25 28 71 45 85 31z
m6457 -19 c0 -8 -11 -17 -25 -21 -37 -9 -42 2 -8 20 35 19 33 19 33 1z m970
-10 c-7 -9 -15 -13 -18 -10 -3 2 1 11 8 20 7 9 15 13 18 10 3 -2 -1 -11 -8
-20z m-7247 -56 c78 -39 143 -72 144 -73 2 -2 -3 -14 -9 -28 l-12 -26 -151 75
c-82 41 -152 77 -153 78 -9 8 11 45 24 45 8 0 78 -32 157 -71z m-49 -51 l168
-83 -6 -95 c-4 -51 -8 -96 -10 -98 -2 -2 -90 40 -196 93 l-192 96 4 66 c3 54
8 69 27 84 13 11 26 19 30 19 3 0 82 -37 175 -82z m7246 59 c-13 -10 -15 -50
-12 -264 2 -222 0 -253 -13 -253 -9 0 -47 -16 -85 -35 l-70 -35 0 239 0 240
80 42 c44 24 78 44 77 46 -2 2 -100 -47 -218 -108 l-214 -111 3 -254 3 -253
-93 -47 -92 -46 -56 12 c-30 7 -72 23 -92 36 -21 13 -42 24 -48 24 -6 0 -82
-36 -170 -80 -88 -44 -162 -80 -165 -80 -3 0 -5 31 -5 69 l0 70 84 46 c83 45
86 46 115 31 41 -22 107 -20 159 4 96 44 204 195 233 327 7 32 23 67 34 78 20
19 20 19 0 5 -20 -15 -20 -15 -2 7 11 13 25 19 35 16 9 -4 13 -2 8 5 -3 6 -1
14 5 18 8 4 9 3 5 -4 -4 -7 -4 -12 1 -12 14 0 35 17 33 26 -2 7 454 252 470
253 3 0 -2 -5 -10 -12z m-6834 -88 c-4 -51 -13 -90 -24 -105 -16 -23 -209
-130 -218 -121 -8 7 13 198 22 207 11 11 205 100 218 100 5 0 6 -35 2 -81z
m2109 -21 c69 -35 125 -67 125 -73 -1 -39 -19 -36 -138 24 -67 34 -125 61
-129 60 -5 0 49 -29 120 -65 121 -61 147 -84 111 -98 -10 -4 -13 -2 -8 6 5 8
2 9 -10 5 -11 -5 -15 -3 -10 5 5 8 2 9 -10 5 -11 -5 -15 -3 -10 5 5 8 2 9 -10
5 -11 -5 -15 -3 -10 5 5 8 2 9 -10 5 -9 -4 -15 -3 -12 2 7 11 -43 33 -56 25
-7 -5 -8 -2 -3 6 6 10 4 12 -9 7 -11 -5 -15 -3 -10 5 5 8 2 9 -10 5 -11 -5
-15 -3 -10 5 5 8 2 9 -10 5 -11 -5 -15 -3 -10 5 5 8 2 9 -10 5 -10 -4 -15 -3
-11 3 3 6 1 10 -6 10 -11 0 -5 62 7 82 7 12 4 13 139 -54z m3890 46 c-28 -21
-1526 -778 -1547 -782 -79 -14 83 73 760 410 427 212 784 387 792 387 11 0 10
-4 -5 -15z m41 -6 c5 -7 3 -8 -6 -3 -9 6 -11 4 -6 -4 5 -7 14 -10 22 -7 7 3
16 0 20 -6 5 -7 2 -8 -6 -3 -9 6 -11 4 -6 -4 5 -7 14 -10 22 -7 7 3 16 0 20
-6 5 -7 2 -8 -7 -3 -11 6 -12 5 -1 -6 9 -10 15 -10 24 -1 7 7 17 12 23 12 5 0
2 -5 -7 -11 -10 -5 -18 -15 -18 -20 0 -6 5 -7 11 -4 5 4 18 0 28 -9 27 -25 80
-30 129 -13 40 14 43 14 57 -6 21 -30 19 -34 -16 -46 -72 -25 -143 -10 -188
39 l-28 31 -544 -277 c-299 -152 -650 -330 -781 -395 l-236 -118 -43 38 -43
38 89 48 c50 26 403 206 785 400 382 194 696 353 697 354 1 0 5 -4 9 -11z
m-6699 -50 c-2 -13 -4 -5 -4 17 -1 22 1 32 4 23 2 -10 2 -28 0 -40z m6313 -18
l0 -70 -250 -125 c-176 -88 -250 -121 -250 -110 0 9 -11 21 -25 27 -20 9 -25
18 -23 37 3 23 35 43 273 168 149 79 271 143 273 143 1 0 2 -31 2 -70z m-3681
-179 c241 -121 442 -217 445 -214 3 4 6 -53 6 -125 0 -73 -2 -132 -5 -132 -3
0 -205 100 -450 222 l-445 223 0 122 c0 68 2 123 5 123 3 0 203 -99 444 -219z
m4671 -41 c0 -132 2 -240 5 -240 3 0 37 16 76 36 68 34 72 34 95 19 53 -34 35
-49 -239 -191 l-257 -134 -35 17 c-19 9 -35 19 -35 22 0 3 95 55 210 114 116
60 210 111 210 113 0 3 -61 -26 -136 -65 -75 -39 -138 -71 -140 -71 -2 0 -4
111 -4 248 l0 247 118 62 c64 34 120 63 125 63 4 0 7 -108 7 -240z m-7324 172
c-23 -23 -33 -6 -10 19 12 13 20 16 22 9 3 -7 -3 -19 -12 -28z m1117 -513
c595 -298 1084 -543 1085 -544 9 -8 -11 -45 -24 -45 -8 0 -502 244 -1098 542
l-1084 542 17 23 c9 12 17 23 19 23 1 0 489 -243 1085 -541z m54 263 l492
-247 -19 -23 -19 -23 -490 246 c-270 135 -491 248 -491 251 0 11 21 44 28 43
4 0 228 -111 499 -247z m-97 -318 c1098 -551 1105 -555 1040 -550 -63 4 -105
24 -1114 528 -576 289 -1041 519 -1032 513 9 -7 16 -25 16 -41 0 -47 -132
-1649 -136 -1653 -3 -3 -12 3 -21 12 -16 16 -13 67 51 850 70 850 74 897 85
896 3 0 503 -250 1111 -555z m1115 369 l-7 -72 -58 29 c-51 26 -62 28 -90 19
-17 -6 -29 -13 -27 -15 2 -3 16 0 31 6 24 9 67 -10 414 -184 227 -114 381
-196 372 -200 -8 -3 -35 -10 -60 -15 -43 -10 -46 -9 -71 22 -20 24 -118 77
-378 207 -211 105 -345 177 -338 182 7 4 46 19 88 34 l76 27 24 76 24 76 3
-60 c2 -33 1 -93 -3 -132z m-1555 125 c0 -13 -3 -33 -6 -45 l-6 -22 -39 19
c-21 11 -42 20 -46 20 -4 -1 13 -12 40 -26 44 -23 47 -27 47 -64 0 -22 -2 -40
-5 -40 -3 0 -41 18 -85 40 -44 22 -83 40 -87 39 -5 0 32 -20 80 -45 48 -24 92
-42 97 -39 6 4 10 27 10 53 0 26 3 64 6 84 l6 37 490 -245 490 -245 -7 -94 -7
-94 51 21 50 22 51 -24 c45 -21 50 -27 50 -56 0 -18 -4 -35 -10 -39 -5 -3 -46
13 -91 35 -44 23 -83 40 -85 38 -2 -2 39 -25 91 -51 52 -26 95 -46 96 -44 0 1
4 39 8 85 5 45 11 85 14 88 11 11 331 -161 352 -189 25 -36 37 -187 14 -186
-8 0 -412 199 -898 443 l-884 443 99 51 c54 28 102 51 107 52 4 0 7 -10 7 -22z
m371 -529 l1002 -500 -6 -57 c-3 -31 -33 -399 -67 -817 -34 -418 -63 -770 -66
-782 l-4 -23 -65 32 c-35 18 -66 30 -69 27 -2 -2 -20 -202 -40 -444 -20 -242
-38 -461 -41 -487 -6 -47 -5 -48 30 -65 23 -11 34 -22 30 -31 -3 -7 -5 -25 -5
-39 0 -20 -4 -24 -17 -18 -52 21 -47 50 -87 -452 -20 -257 -39 -478 -42 -490
-4 -19 6 -28 66 -58 38 -19 70 -41 70 -48 2 -43 -145 -1794 -150 -1800 -6 -6
-1979 970 -1999 989 -4 4 137 1765 145 1801 l4 23 65 -32 c35 -18 66 -30 69
-27 2 2 20 204 40 449 20 245 39 464 42 487 5 41 4 43 -31 60 -33 16 -35 19
-29 52 8 45 7 44 38 30 14 -7 28 -10 30 -8 2 2 20 213 40 469 20 256 39 475
42 487 4 19 -6 28 -66 58 -58 29 -70 39 -70 60 0 13 29 378 65 812 36 433 65
800 65 816 0 15 2 27 5 27 3 0 456 -225 1006 -501z m2368 465 c6 -15 10 -28 9
-29 -2 -1 -26 -14 -55 -29 l-52 -26 -15 32 c-9 17 -15 32 -14 33 14 12 87 44
99 45 9 0 21 -12 28 -26z m-159 -19 c0 -7 -158 -85 -172 -84 -7 0 25 20 72 44
84 43 100 50 100 40z m3705 -62 c-37 -129 -129 -253 -217 -293 -46 -21 -123
-26 -148 -10 -11 7 -7 10 18 10 27 0 32 4 32 25 0 19 10 29 40 45 33 17 40 18
40 6 0 -10 -6 -13 -17 -10 -15 5 -16 4 -3 -5 8 -6 19 -11 24 -11 17 0 127 120
120 132 -4 6 -3 8 3 5 9 -6 39 60 35 76 -1 5 2 6 8 2 9 -6 14 8 11 28 -1 5 3
6 9 2 5 -3 11 -1 11 4 1 6 2 15 3 20 0 5 5 13 10 18 5 5 6 2 2 -7 -4 -8 1 -5
10 8 25 34 28 20 9 -45z m-3661 12 c5 -18 -6 -27 -77 -62 l-83 -41 -17 30
c-10 17 -16 32 -15 33 2 2 39 21 83 43 84 42 95 42 109 -3z m-601 -186 c243
-122 443 -222 444 -223 0 0 -64 -678 -143 -1506 -79 -828 -144 -1513 -144
-1523 0 -15 -12 -11 -81 23 l-81 41 6 47 c9 67 66 676 66 699 0 13 -20 28 -65
51 -36 17 -65 36 -65 41 0 6 21 16 46 23 85 24 74 -51 163 1043 66 809 78 988
69 1023 l-11 43 -333 167 c-328 164 -334 167 -334 197 0 31 10 75 16 75 2 0
203 -99 447 -221z m727 -2992 l0 -3203 -141 -69 c-77 -39 -143 -69 -147 -67
-4 2 -10 -7 -13 -20 -5 -23 -19 -26 -51 -13 -16 6 -18 1 -18 -44 l0 -51 -130
65 -130 65 0 53 0 52 -170 85 -171 85 2 41 c2 31 6 41 17 37 8 -4 10 -8 3 -12
-13 -8 614 -323 652 -327 l27 -4 0 128 c1 95 -36 475 -146 1522 l-147 1396
147 1539 c147 1548 165 1787 134 1798 -11 3 254 145 275 146 4 1 7 -1440 7
-3202z m2380 3198 c0 -2 -10 -9 -22 -15 -22 -11 -22 -10 -4 4 21 17 26 19 26
11z m-4 -40 c-11 -8 -25 -15 -30 -15 -6 0 -2 7 8 15 11 8 25 15 30 15 6 0 2
-7 -8 -15z m44 -10 c0 -2 -17 -13 -37 -24 -21 -11 -33 -20 -28 -20 6 0 21 6
35 14 14 8 32 14 40 14 8 0 -1 -9 -20 -20 -19 -11 -27 -18 -17 -15 9 3 25 9
35 12 13 4 12 2 -3 -7 -25 -16 -67 -18 -77 -4 -13 18 -9 32 15 43 23 11 57 15
57 7z m1770 -191 c0 -26 -25 -67 -33 -53 -26 47 -28 51 -16 65 7 8 8 25 4 41
l-7 28 26 -24 c18 -17 26 -35 26 -57z m-840 11 c-26 -28 -40 -32 -40 -12 0 8
10 19 23 25 36 18 42 14 17 -13z m-4865 -82 c-5 -70 -11 -93 -28 -112 -19 -20
-191 -111 -211 -111 -10 0 5 171 16 194 8 15 196 114 222 115 4 1 5 -38 1 -86z
m99 50 c41 -20 73 -41 70 -45 -3 -5 -42 -27 -86 -49 l-81 -41 6 63 c4 34 7 73
7 85 0 13 2 24 5 24 2 0 38 -17 79 -37z m386 12 c0 -3 -18 -16 -39 -31 -37
-24 -41 -25 -62 -10 -17 11 -19 16 -8 20 8 2 28 9 44 14 33 11 65 15 65 7z
m5169 -28 c9 -23 2 -27 -352 -209 l-127 -66 -15 27 -14 28 242 125 c133 69
246 124 250 121 5 -3 12 -15 16 -26z m-929 -22 c0 -10 -10 -15 -27 -15 l-28 1
25 14 c31 18 30 18 30 0z m975 -4 c-3 -6 -11 -11 -17 -11 -6 0 -6 6 2 15 14
17 26 13 15 -4z m-65 -325 c0 -137 -3 -247 -6 -243 -4 3 -42 -12 -85 -34 l-79
-39 2 242 3 243 70 37 c39 21 67 38 63 38 -4 0 -98 -47 -208 -104 l-201 -103
1 -254 1 -254 -96 -48 c-86 -44 -99 -48 -127 -38 -17 6 -41 11 -53 11 -12 0
-41 14 -63 30 l-42 30 -170 -85 -171 -86 3 73 3 73 84 44 c82 42 85 43 112 27
121 -72 328 94 384 309 18 72 19 88 3 79 -10 -5 -10 -4 -1 6 7 8 18 15 25 16
25 4 95 49 92 59 -5 14 405 223 433 221 l23 -1 0 -249z m-4820 204 l36 -39 64
15 c49 11 65 12 71 2 13 -20 21 -80 12 -89 -7 -7 -557 -229 -568 -229 -3 0 -5
8 -5 18 0 38 -33 114 -64 147 l-33 34 221 90 c122 49 223 90 225 90 2 1 21
-17 41 -39z m4005 11 c-15 -14 -1551 -791 -1564 -791 -53 0 81 72 767 413 695
346 830 410 797 378z m-4665 -76 l151 -75 -18 -24 -18 -23 -152 76 c-84 41
-153 80 -153 86 0 13 20 35 32 35 5 0 76 -34 158 -75z m4684 63 c-5 -8 -2 -9
9 -5 9 3 19 1 23 -5 5 -7 2 -8 -6 -3 -9 6 -11 4 -6 -4 5 -7 14 -10 22 -7 7 3
16 0 20 -6 5 -7 2 -8 -7 -3 -8 4 -3 -3 11 -16 14 -14 30 -23 36 -21 7 2 15 -1
18 -7 15 -23 81 -31 127 -16 34 11 36 13 9 7 -48 -9 -94 -6 -121 9 -22 12 -21
13 25 26 45 13 53 13 88 -3 36 -16 78 -56 78 -74 0 -10 -72 -30 -109 -30 -39
0 -66 13 -108 52 l-31 30 -778 -395 -778 -395 -43 35 c-24 20 -43 38 -43 42 0
5 1554 798 1568 800 2 1 0 -4 -4 -11z m-374 -66 l0 -67 -475 -238 -475 -237
-51 29 -51 29 104 55 c394 211 934 496 941 496 4 1 7 -29 7 -67z m-4515 -11
c-4 -23 -8 -41 -11 -41 -10 0 -74 34 -74 40 0 7 83 49 88 44 2 -1 1 -21 -3
-43z m5003 40 c10 -6 9 -10 -7 -14 -21 -5 -36 5 -24 17 8 8 15 7 31 -3z m502
-244 c0 -139 4 -237 10 -243 6 -6 -37 -33 -125 -77 l-135 -67 0 250 0 250 118
59 c64 33 120 60 125 60 4 1 7 -104 7 -232z m-2147 178 c20 -20 37 -37 37 -40
0 -3 -15 -5 -34 -5 -37 0 -51 12 -61 53 -10 38 11 35 58 -8z m-2374 -835 c-37
-448 -68 -820 -68 -827 -1 -7 -7 -10 -15 -7 -8 3 -64 -2 -125 -11 -96 -15
-110 -20 -115 -39 -7 -24 -8 -106 -2 -106 11 0 176 74 212 95 l42 24 -5 -67
c-3 -37 -8 -85 -12 -106 l-6 -39 -299 -84 c-164 -46 -300 -82 -302 -80 -2 2
27 383 65 847 64 774 71 844 90 864 11 12 23 43 26 72 l7 51 287 115 c157 63
286 114 287 114 0 -1 -30 -368 -67 -816z m-579 760 c29 -32 60 -107 60 -147 0
-20 -4 -24 -26 -21 -23 3 -29 10 -39 51 -7 26 -24 60 -39 76 -29 30 -32 41
-14 59 18 18 27 15 58 -18z m4800 -4 c0 -2 -12 -11 -27 -20 l-28 -17 24 20
c23 21 31 25 31 17z m-105 -151 c-44 -169 -185 -315 -304 -315 -22 0 -48 3
-58 7 -15 6 -13 8 12 13 21 4 31 12 33 28 5 31 38 47 68 33 22 -10 30 -5 81
47 56 55 108 143 95 158 -4 4 -2 4 4 1 11 -7 40 40 35 58 -2 6 1 7 5 3 4 -5
14 1 22 13 21 31 23 18 7 -46z m-4639 -68 c-8 -50 -9 -51 -38 -44 -21 6 -23
11 -20 50 4 42 5 43 34 39 29 -4 30 -6 24 -45z m-32 -56 c17 -7 17 -9 -9 -29
-43 -34 -53 -30 -33 13 12 27 13 27 42 16z m5273 -15 c7 -1 22 -11 33 -21 18
-16 20 -28 17 -68 -5 -50 -12 -65 -24 -53 -4 4 -1 12 7 17 12 9 12 10 -2 5
-11 -3 -18 0 -18 8 0 7 -7 19 -15 26 -14 11 -13 14 1 24 10 8 14 21 11 37 -4
24 -4 24 -6 -2 -1 -25 -24 -39 -263 -162 l-262 -135 -40 20 -40 21 212 106
c116 58 211 110 211 115 -1 16 124 76 146 70 11 -3 25 -6 32 -8z m-5365 -41
l77 0 -5 -40 c-5 -40 -134 -1618 -134 -1636 0 -12 -136 -11 -182 1 -37 11 -37
11 -32 53 4 35 134 1617 134 1633 0 3 15 2 33 -3 17 -4 67 -8 109 -8z m4588
-5 c-15 -28 -50 -46 -50 -26 0 9 12 22 28 30 35 19 35 19 22 -4z m-60 -30 c0
-5 -5 -10 -11 -10 -5 0 -7 5 -4 10 3 6 8 10 11 10 2 0 4 -4 4 -10z m839 -33
c8 -20 -10 -31 -232 -146 l-240 -123 -18 23 c-10 13 -15 26 -13 29 16 15 480
248 487 243 5 -3 12 -15 16 -26z m-929 -22 c0 -10 -10 -15 -32 -15 l-33 1 25
14 c32 18 40 18 40 0z m-1400 -100 c-78 -41 -82 -41 -71 -12 9 24 58 46 106
46 26 0 22 -4 -35 -34z m2310 -220 l-1 -240 -76 -35 c-41 -19 -80 -36 -84 -38
-5 -2 -9 104 -9 235 l0 239 70 34 c38 18 68 35 66 37 -2 2 -37 -12 -77 -32
l-74 -37 2 -96 c2 -54 4 -168 5 -254 l3 -157 -127 -66 -128 -66 0 250 0 250
120 62 c65 35 118 65 116 67 -2 2 -61 -27 -130 -64 -70 -36 -129 -65 -131 -62
-8 8 409 216 431 214 l24 -1 0 -240z m-812 214 c-2 -5 -356 -189 -786 -407
l-783 -397 46 -40 c47 -40 50 -55 10 -55 -33 0 -59 35 -61 84 l-2 42 782 392
c429 215 785 391 789 391 5 1 7 -4 5 -10z m16 -21 c-5 -8 -2 -9 9 -5 9 3 19 1
23 -5 5 -7 2 -8 -6 -3 -9 6 -11 4 -6 -4 5 -7 14 -10 22 -7 7 3 16 0 20 -6 5
-7 2 -8 -7 -4 -8 4 -3 -2 11 -14 14 -12 21 -23 15 -26 -5 -2 -359 -181 -785
-397 l-775 -393 -40 35 c-22 19 -41 37 -43 41 -2 4 1553 799 1566 800 2 0 0
-5 -4 -12z m-374 -66 l0 -67 -416 -208 c-282 -141 -414 -202 -410 -190 4 10
12 41 18 68 l10 50 391 207 c216 114 395 208 400 208 4 0 7 -30 7 -68z m494
29 c3 -5 -3 -11 -14 -14 -20 -5 -35 5 -23 17 9 9 31 7 37 -3z m128 -17 c24
-12 28 -18 17 -25 -19 -12 -106 -11 -132 2 -22 10 -22 10 -2 -6 20 -17 103
-17 152 0 16 5 24 2 33 -16 16 -28 -3 -44 -61 -54 -52 -9 -93 1 -129 32 -37
30 -38 51 -5 59 14 3 23 9 21 13 -9 14 77 10 106 -5z m-1742 -86 c0 -10 -51
-10 -66 0 -18 12 -36 53 -30 68 5 12 16 7 51 -23 25 -20 45 -41 45 -45z m1814
-39 c-4 -8 0 -9 15 -4 l21 6 0 -248 0 -249 -75 -37 c-41 -20 -75 -41 -75 -45
0 -5 17 -16 38 -26 33 -17 35 -19 17 -27 -32 -12 -98 -10 -125 5 l-24 14 42
11 c49 14 52 18 15 19 -61 2 -110 16 -150 44 l-42 28 -171 -85 -170 -85 0 72
0 73 88 46 87 46 30 -19 c106 -64 288 64 363 257 21 54 39 145 26 132 -4 -4
-9 -23 -11 -43 -5 -44 -43 -142 -74 -186 -84 -123 -206 -192 -286 -161 -16 6
-15 8 7 13 16 4 26 14 28 28 5 30 38 47 66 34 19 -8 30 -2 82 48 54 52 114
149 106 173 -1 5 2 6 8 2 5 -3 11 -1 11 4 1 6 2 15 3 20 0 5 5 13 10 18 5 5 6
2 1 -7 -6 -11 -5 -12 4 -4 7 6 13 19 15 28 3 23 56 75 71 70 7 -3 16 0 21 7 5
8 3 10 -6 4 -8 -5 -11 -4 -6 3 4 6 13 9 22 5 8 -3 14 -2 13 3 -2 14 0 24 7 24
3 0 2 -5 -2 -11z m-7174 -286 c0 -31 -6 -29 -25 7 -20 38 -19 43 5 28 11 -7
20 -23 20 -35z m5664 10 c-4 -21 -13 -54 -21 -73 -13 -35 -13 -30 8 63 13 56
23 64 13 10z m-31 -44 c-14 -56 -30 -85 -41 -75 -5 6 29 120 41 134 17 21 17
8 0 -59z m-5500 -44 c-2 -16 -19 -228 -38 -470 -20 -242 -38 -446 -40 -452 -3
-10 -10 -10 -30 -1 -28 12 -29 16 -15 38 10 16 11 15 28 -20 l12 -25 -7 25
c-9 31 -10 7 28 490 25 319 36 409 48 425 15 18 15 19 -1 6 -31 -24 -108 19
-108 60 0 19 5 18 63 -13 57 -30 62 -36 60 -63z m7511 83 c-5 -7 -2 -9 9 -5
24 9 67 -37 67 -71 0 -16 -7 -35 -15 -42 -12 -10 -18 -8 -34 11 -17 21 -18 26
-5 40 16 17 19 45 5 53 -4 3 -6 -5 -4 -18 6 -30 13 -26 -282 -179 l-239 -125
-40 20 -39 20 216 111 c120 60 217 115 217 122 0 12 100 62 148 74 2 1 0 -4
-4 -11z m-2040 -25 c-22 -88 -28 -97 -100 -135 -38 -21 -72 -38 -76 -38 -5 0
-8 24 -8 53 l0 53 88 47 c48 26 90 47 95 47 4 0 4 -12 1 -27z m1296 -16 c0 -2
-13 -16 -30 -32 -23 -22 -30 -25 -30 -12 0 9 12 23 28 31 29 17 32 18 32 13z
m-70 -47 c0 -5 -4 -10 -10 -10 -5 0 -10 5 -10 10 0 6 5 10 10 10 6 0 10 -4 10
-10z m834 -22 c9 -12 12 -25 8 -29 -4 -4 -112 -62 -241 -129 l-235 -122 -17
23 c-10 13 -15 26 -13 29 8 7 468 248 476 249 4 1 14 -9 22 -21z m-7580 -115
c-6 -95 -11 -116 -42 -178 -19 -38 -50 -89 -68 -112 -37 -45 -84 -137 -84
-165 0 -9 -3 -23 -6 -32 -5 -14 -9 -14 -35 0 -33 16 -33 15 -19 104 27 168
109 337 223 458 17 17 33 32 35 32 2 0 0 -48 -4 -107z m7628 84 c-7 -8 -10
-16 -7 -19 3 -3 -3 -11 -12 -19 -16 -12 -17 -12 -6 2 7 9 10 19 6 22 -3 4 0
13 7 22 7 9 15 13 18 10 3 -2 0 -11 -6 -18z m-972 -2 c0 -10 -10 -15 -32 -15
l-33 1 25 14 c32 18 40 18 40 0z m830 -101 l-105 -56 5 -252 c3 -138 5 -251 5
-252 0 0 -90 -47 -200 -103 -110 -57 -204 -107 -209 -111 -4 -5 9 -17 30 -28
l39 -20 -28 -11 c-39 -15 -72 -14 -115 5 l-37 17 44 8 c59 11 66 21 8 13 -38
-6 -53 -2 -91 20 -25 14 -48 31 -51 36 -3 5 75 50 174 100 l181 90 2 177 3
177 120 63 c66 34 116 63 111 63 -5 0 -65 -29 -134 -66 -68 -36 -126 -63 -128
-61 -5 5 457 246 471 246 6 0 -37 -25 -95 -55z m80 -216 l-1 -243 -76 -35
c-41 -19 -80 -36 -84 -38 -5 -2 -9 104 -9 235 l0 238 78 42 c42 24 80 43 85
43 4 0 7 -109 7 -242z m-810 214 c0 -9 -1532 -788 -1560 -794 -28 -6 -12 81
23 126 l23 28 44 -22 44 -23 -74 -38 c-41 -21 -72 -38 -68 -39 3 0 354 173
780 384 425 211 776 385 781 385 4 1 7 -3 7 -7z m-360 -85 l0 -74 -459 -225
-459 -226 -67 20 -67 21 133 70 c74 39 310 164 524 278 215 114 391 208 393
208 1 1 2 -32 2 -72z m396 61 c5 -7 3 -8 -6 -3 -9 6 -11 4 -6 -4 5 -7 14 -10
22 -7 7 3 16 0 20 -6 5 -7 2 -8 -7 -4 -8 4 -5 0 6 -9 11 -9 42 -28 69 -42 50
-25 99 -28 163 -8 16 5 24 1 33 -14 16 -30 7 -38 -54 -52 -51 -11 -58 -10
-102 12 -40 20 -56 36 -70 67 -1 2 -353 -175 -781 -392 -429 -218 -784 -396
-790 -396 -5 0 -24 16 -43 35 -19 19 -37 35 -42 35 -4 0 12 -18 35 -39 38 -36
40 -40 23 -47 -26 -10 -69 16 -80 49 -5 14 -8 28 -5 30 2 2 350 179 772 393
638 323 800 403 834 413 1 1 5 -4 9 -11z m99 -37 c3 -6 -6 -8 -20 -7 -34 4
-40 11 -10 14 13 1 27 -2 30 -7z m-6925 -326 c-11 -131 -20 -246 -20 -257 0
-10 -4 -18 -10 -18 -6 0 -10 77 -10 210 0 208 0 210 27 265 15 31 29 52 31 47
1 -5 -6 -116 -18 -247z m7110 177 c-53 -37 -72 -60 -21 -27 29 19 57 35 62 35
5 0 9 -75 9 -168 l0 -167 -181 -90 c-99 -50 -187 -89 -194 -87 -8 1 -86 -34
-174 -78 -89 -44 -163 -80 -166 -80 -3 0 -5 31 -5 68 l0 68 88 47 c78 41 89
44 106 31 106 -78 312 67 379 266 19 58 32 127 22 118 -5 -5 -10 -21 -11 -37
-6 -49 -34 -123 -70 -183 -70 -115 -187 -189 -272 -173 l-37 8 28 9 c19 7 27
17 27 32 0 30 36 47 68 33 20 -9 29 -4 78 44 55 54 119 160 106 174 -4 5 -1 5
6 1 11 -7 17 5 13 27 -1 5 3 6 8 3 8 -6 20 11 17 26 -3 15 114 119 133 117 3
0 -5 -8 -19 -17z m-7182 -471 c-29 -24 -38 -129 -14 -166 15 -23 45 -38 31
-15 -8 13 5 13 25 0 13 -8 13 -10 -1 -10 -14 0 -17 -22 -23 -147 -4 -82 -11
-166 -14 -188 l-8 -40 -29 49 c-16 27 -35 72 -42 99 -15 59 -26 76 -17 26 9
-47 40 -117 69 -155 25 -33 32 -54 17 -54 -24 0 -92 63 -111 102 -21 44 -47
156 -38 165 3 2 14 0 25 -6 12 -6 25 -11 31 -11 6 0 11 110 13 303 l3 302 27
58 c15 32 38 71 50 86 l23 27 3 -204 c2 -199 2 -204 -20 -221z m2896 330 c8
-12 -45 -44 -141 -86 l-78 -34 -4 42 -5 42 -6 -45 -7 -45 -1 40 c-1 22 2 46 6
52 4 7 46 19 92 27 104 17 137 19 144 7z m-2994 -406 c0 -146 -2 -265 -5 -265
-2 0 -16 5 -30 12 l-25 11 0 269 0 269 30 -16 30 -16 0 -264z m7822 244 c28
-33 19 -99 -12 -99 -14 0 -31 53 -20 64 12 12 13 43 2 50 -4 2 -8 -8 -7 -22 0
-29 -16 -39 -369 -219 l-149 -76 -39 19 -39 19 215 110 c119 61 216 115 216
120 0 6 24 23 53 37 63 32 122 31 149 -3z m-792 -2 c0 -2 -16 -18 -35 -37 -25
-24 -35 -29 -35 -18 0 9 15 25 33 36 36 23 37 23 37 19z m-80 -57 c0 -5 -2
-10 -4 -10 -3 0 -8 5 -11 10 -3 6 -1 10 4 10 6 0 11 -4 11 -10z m-1333 -35
c12 1 20 -2 17 -7 -3 -4 1 -8 8 -8 7 -1 -9 -12 -35 -26 -26 -14 -53 -22 -59
-18 -7 5 -8 3 -3 -6 5 -8 3 -11 -6 -8 -8 3 -14 10 -14 16 0 5 -3 14 -7 18 -13
12 -9 62 5 67 6 2 26 -3 42 -13 17 -10 40 -17 52 -15z m2171 11 c11 -24 8 -27
-171 -119 -100 -52 -210 -109 -244 -126 l-61 -30 -16 24 c-12 18 -13 26 -3 32
32 21 463 242 473 243 6 0 16 -11 22 -24z m-4821 -29 c-12 -19 -63 -36 -308
-105 -162 -45 -297 -82 -301 -82 -4 0 -3 11 3 24 10 21 42 32 268 96 141 39
276 77 301 85 25 7 47 11 49 9 2 -2 -3 -14 -12 -27z m2533 8 c0 -9 -6 -12 -15
-9 -8 4 -12 10 -9 15 8 14 24 10 24 -6z m1357 -10 c-4 -8 -18 -15 -34 -15
l-28 0 30 20 c32 21 41 20 32 -5z m979 -172 c-3 -7 -10 -13 -16 -13 -15 0 -13
183 3 199 10 10 13 -6 15 -80 1 -51 1 -98 -2 -106z m-2320 146 c3 -5 2 -9 -1
-9 -9 0 -65 30 -65 35 0 7 60 -16 66 -26z m-5382 -37 c2 -4 -4 -18 -14 -31
l-18 -24 -6 21 c-4 12 -4 26 -1 32 7 12 32 13 39 2z m1998 -77 c3 -14 3 -25 1
-25 -16 0 -65 35 -92 65 -17 20 -31 32 -31 27 0 -13 73 -79 107 -96 31 -15 32
-18 27 -64 -3 -26 -18 -203 -33 -393 -16 -191 -31 -352 -35 -358 -4 -6 -24
-11 -45 -11 -21 0 -52 -5 -70 -11 -18 -6 -34 -10 -35 -8 -5 5 72 930 79 947 3
9 20 5 64 -17 44 -23 60 -36 63 -56z m559 -6 c-90 -43 -166 -79 -168 -79 -2 0
-3 17 -1 37 l3 37 145 42 c80 23 154 42 165 42 11 0 -54 -35 -144 -79z m229
32 l55 -29 -170 -85 -170 -85 -65 33 -65 33 165 81 c91 44 172 80 180 80 8 0
40 -13 70 -28z m4040 12 c0 -8 -1535 -789 -1561 -795 -21 -4 -15 54 11 108 26
53 53 74 183 143 l97 52 0 -58 0 -59 -150 -74 c-82 -41 -148 -76 -146 -78 8
-7 314 153 309 162 -3 5 -1 6 5 2 6 -3 285 131 619 298 334 168 614 305 621
305 6 1 12 -2 12 -6z m-6850 -48 c0 -13 -3 -30 -6 -39 -11 -28 -24 -6 -24 41
0 39 2 44 15 33 8 -7 15 -23 15 -35z m6881 28 c12 -16 12 -17 -1 -8 -9 6 -4 0
10 -13 14 -12 31 -20 38 -17 8 3 10 0 6 -7 -5 -8 -2 -9 10 -5 13 5 15 3 8 -9
-13 -24 -1580 -815 -1615 -816 -33 -1 -67 31 -67 63 0 29 22 23 60 -16 19 -19
37 -35 42 -35 4 0 -11 17 -34 39 l-41 38 389 198 c376 191 1178 601 1180 604
1 0 8 -7 15 -16z m-399 -135 c-9 -9 -144 26 -164 42 -4 3 32 27 80 52 l87 47
3 -66 c2 -36 -1 -70 -6 -75z m-4325 114 c91 -4 91 -4 81 -27 -12 -26 -35 -35
-89 -35 -48 0 -97 18 -109 40 -16 29 -12 43 8 35 9 -5 58 -10 109 -13z m243
-57 c0 -49 -1 -50 -31 -35 -12 7 -19 21 -19 40 0 26 8 33 43 39 4 0 7 -19 7
-44z m467 -7 c-3 -29 -14 -137 -23 -239 l-18 -186 -112 -56 -112 -56 -91 -163
c-52 -94 -91 -174 -90 -188 1 -22 2 -22 8 6 17 70 168 310 185 293 8 -7 -25
-383 -34 -393 -5 -4 -39 9 -77 29 -76 42 -70 33 30 -49 78 -63 57 -64 210 9
43 21 79 36 81 34 4 -4 46 -390 46 -417 0 -7 -96 -60 -214 -119 -222 -110
-268 -124 -351 -109 -47 9 -112 68 -139 126 -20 43 -21 64 -24 413 -4 416 1
452 75 611 46 98 85 153 165 234 56 56 87 75 268 167 113 57 209 104 214 105
5 0 6 -24 3 -52z m-537 -2 c0 -19 5 -38 10 -41 17 -10 11 -19 -25 -43 l-35
-22 0 64 c0 65 2 69 43 75 4 0 7 -14 7 -33z m4728 -16 c14 0 43 5 65 12 35 11
41 10 53 -7 19 -26 18 -30 -11 -43 -65 -30 -177 -4 -204 46 -15 29 -5 32 37
11 20 -11 47 -19 60 -19z m-4908 15 c55 0 55 0 72 -40 l17 -40 0 48 c1 35 5
47 16 47 12 0 15 -14 15 -64 0 -38 -5 -68 -12 -72 -6 -4 -8 -3 -4 4 3 6 0 14
-8 19 -8 4 -20 24 -28 43 -15 35 -15 35 -21 -54 -6 -83 -9 -93 -45 -145 -87
-125 -92 -141 -92 -325 l0 -164 -37 -15 c-21 -8 -39 -14 -39 -13 -2 1 63 778
65 784 1 2 11 0 24 -5 12 -4 47 -8 77 -8z m4235 -39 l70 -23 -400 -200 c-374
-186 -402 -199 -432 -190 -28 8 -33 15 -33 41 0 31 5 34 343 213 188 100 351
182 362 182 11 0 52 -10 90 -23z m-3917 -95 c-52 -34 -128 -108 -179 -176 -78
-104 -159 -315 -159 -417 l0 -39 -30 16 -30 16 0 160 c0 152 1 162 26 212 57
112 158 231 249 291 24 16 33 26 22 26 -9 0 -17 5 -17 10 0 6 36 -8 81 -30
l81 -41 -44 -28z m-2413 47 c-3 -24 -21 -232 -40 -463 -18 -231 -37 -428 -40
-437 -6 -16 -13 -14 -66 12 -33 17 -59 37 -59 46 0 40 65 119 91 109 10 -4 13
-20 11 -63 -2 -31 1 -68 7 -82 8 -21 9 -17 5 20 -3 25 8 212 25 415 40 485 40
485 57 485 10 0 12 -11 9 -42z m2192 -39 c1 -9 -9 -27 -23 -40 -25 -24 -28
-20 -18 29 7 33 39 42 41 11z m5253 -62 l0 -82 -308 -154 -308 -154 -44 23
c-25 12 -47 26 -50 30 -3 4 -14 11 -24 17 -18 10 -18 12 10 26 16 9 182 97
369 196 187 99 343 181 348 181 4 0 7 -37 7 -83z m220 -36 c16 -30 12 -76 -8
-94 -15 -14 -1430 -735 -2094 -1068 l-236 -118 -43 38 -43 38 90 47 c129 69
2308 1174 2316 1175 4 1 12 -8 18 -18z m5 -628 c-2 -7 -9 -13 -15 -13 -16 0
-14 522 3 539 10 10 13 -41 15 -251 1 -144 0 -268 -3 -275z m-4914 264 c-7
-60 -9 -135 -5 -168 l7 -59 -104 -49 c-57 -26 -105 -48 -106 -47 -1 1 5 77 13
171 14 157 14 170 -2 182 -14 10 -1 20 92 66 128 65 122 71 105 -96z m2819
123 c12 -8 9 -10 -12 -10 -16 0 -28 5 -28 10 0 13 20 13 40 0z m1141 -59 c13
-10 42 -27 64 -39 l40 -20 -795 -397 c-600 -299 -796 -392 -798 -381 -2 9 6
33 18 54 20 36 60 57 750 402 401 200 727 366 726 368 -2 2 -166 -78 -365
-177 -230 -116 -367 -179 -378 -175 -15 5 -16 4 -3 -6 12 -9 10 -10 -10 -5
-20 5 -22 4 -10 -5 12 -9 10 -10 -10 -5 -20 5 -22 4 -10 -5 12 -9 10 -10 -10
-5 -16 4 -20 3 -12 -3 9 -6 -3 -16 -40 -33 -28 -13 -58 -23 -66 -21 -8 2 -11
-1 -7 -7 4 -7 0 -8 -11 -4 -12 4 -15 3 -10 -5 5 -8 1 -10 -10 -5 -12 4 -15 3
-10 -5 5 -8 1 -10 -10 -5 -12 4 -15 3 -10 -5 4 -7 5 -12 2 -12 -3 0 -8 4 -11
10 -7 12 85 59 104 52 8 -3 11 0 7 7 -5 7 -1 9 10 4 12 -4 15 -3 10 5 -5 8 -1
10 10 5 12 -4 15 -3 10 5 -5 8 -1 10 10 5 12 -4 15 -3 10 5 -8 14 82 62 103
54 8 -3 11 0 7 7 -5 7 -1 9 10 4 12 -4 15 -3 10 5 -5 8 -1 10 10 5 12 -4 15
-3 10 5 -5 8 -1 10 10 5 12 -4 15 -3 10 5 -8 14 82 62 103 54 8 -3 11 0 7 7
-5 7 -1 9 10 4 12 -4 15 -3 10 5 -5 8 -1 10 10 5 12 -4 15 -3 10 5 -5 8 -1 10
10 5 13 -5 15 -3 9 7 -5 9 -4 11 3 6 11 -6 72 19 72 30 0 2 -13 -2 -30 -11
-16 -9 -30 -13 -30 -11 0 11 55 33 69 28 8 -3 11 0 7 7 -5 7 -1 9 10 4 12 -4
15 -3 10 5 -5 8 -1 10 10 5 12 -4 15 -3 10 5 -5 8 -1 10 10 5 12 -4 15 -3 10
5 -5 8 -1 10 10 5 13 -5 15 -3 9 7 -5 9 -4 11 3 6 11 -6 72 19 72 30 0 2 -13
-2 -30 -11 -16 -9 -30 -13 -30 -11 0 11 55 33 69 28 8 -3 11 0 7 7 -5 7 -1 9
10 4 12 -4 15 -3 10 5 -5 8 -1 10 10 5 12 -4 15 -3 10 5 -5 8 -1 10 10 5 13
-5 15 -3 9 7 -5 8 -4 11 2 7 6 -4 17 0 24 9 14 17 78 53 95 54 6 0 22 -8 35
-19z m-4154 -47 c-3 -3 -12 -4 -19 -1 -8 3 -5 6 6 6 11 1 17 -2 13 -5z m353
-228 c0 -16 278 -2657 284 -2703 l5 -32 -252 126 -252 125 -1 47 -1 47 78 36
c56 26 82 44 91 63 10 22 -2 158 -71 803 -45 427 -85 791 -87 807 -5 29 -2 32
55 60 39 18 61 35 61 46 0 20 -57 567 -65 627 l-6 43 80 -41 c45 -22 81 -46
81 -54z m-3010 44 c0 -5 -11 -12 -25 -16 -17 -4 -25 -12 -23 -24 2 -9 -12 -33
-29 -54 -18 -20 -36 -48 -39 -61 -3 -14 -9 -25 -13 -25 -15 0 -31 25 -31 50 1
43 26 73 87 107 63 35 73 38 73 23z m2170 -285 c0 -146 -2 -265 -5 -265 -2 0
-16 5 -30 12 l-25 11 0 269 0 269 30 -16 30 -16 0 -264z m-70 196 c0 -73 -3
-90 -16 -95 -22 -8 -31 1 -16 16 18 18 15 25 -34 78 l-46 50 28 10 c16 6 38
14 49 19 11 6 23 10 28 10 4 1 7 -39 7 -88z m-2100 49 c0 -22 -8 -25 -30 -10
-13 9 -13 11 0 20 22 15 30 12 30 -10z m1950 -10 c0 -3 -7 -15 -16 -26 -15
-18 -15 -18 -10 6 5 23 4 24 -9 7 -10 -15 -18 -16 -32 -9 -17 10 -16 11 7 20
27 11 60 11 60 2z m65 -31 c25 -23 45 -45 45 -50 0 -4 -27 1 -60 13 -33 11
-60 21 -60 23 0 8 23 55 27 55 2 0 24 -19 48 -41z m847 -55 l3 -50 -109 -52
c-119 -55 -115 -55 -176 -1 l-35 31 32 -16 c41 -21 63 -12 63 26 0 27 7 32
103 77 56 27 105 46 109 42 3 -3 8 -29 10 -57z m-808 -15 c15 -13 -61 -40
-102 -37 -32 3 -37 7 -40 31 -6 55 1 58 70 35 35 -11 67 -24 72 -29z m5711 9
c-8 -35 -34 -92 -40 -86 -7 7 18 103 29 110 17 12 18 10 11 -24z m-42 -30 c-4
-18 -7 -43 -8 -55 0 -12 -2 -20 -3 -18 -2 2 -16 -9 -30 -25 -17 -17 -798 -434
-2007 -1070 -1089 -573 -2004 -1055 -2032 -1070 l-53 -28 0 62 0 62 2063 1087
c1134 598 2065 1087 2069 1087 4 0 4 -15 1 -32z m-5823 -37 c19 -12 47 -21 63
-21 34 0 34 31 -3 -415 -16 -198 -30 -365 -30 -372 0 -7 -36 -31 -80 -54 -45
-23 -79 -43 -77 -45 2 -2 37 15 79 36 65 34 80 39 100 29 l24 -11 -33 -33
c-18 -18 -36 -47 -39 -64 -4 -17 -9 -31 -13 -31 -3 0 -33 15 -66 33 -57 30
-60 34 -57 67 1 19 18 227 37 462 19 235 35 437 35 450 0 19 1 20 13 6 6 -9
28 -26 47 -37z m-2039 26 c14 -11 9 -92 -57 -897 -40 -487 -73 -898 -74 -915
l0 -29 -22 21 -22 22 74 906 c41 498 77 905 80 905 3 0 12 -6 21 -13z m2029 3
c8 -5 12 -11 10 -14 -3 -2 -14 2 -24 10 -22 15 -10 19 14 4z m166 -12 c4 -7 4
-10 -1 -6 -4 4 -20 1 -36 -7 -32 -17 -75 -20 -84 -5 -4 6 8 10 27 11 18 0 42
4 53 9 28 12 33 12 41 -2z m44 -258 c0 -177 4 -266 11 -278 8 -13 9 -49 3
-127 l-9 -108 -78 -30 c-42 -17 -75 -32 -73 -34 2 -2 38 10 79 26 l76 30 50
-23 51 -23 -91 -27 c-76 -23 -95 -26 -124 -16 -18 6 -38 17 -45 24 -8 10 -2
118 22 413 l32 400 41 15 c22 9 43 16 48 17 4 0 7 -116 7 -259z m3656 148 c4
-7 4 -10 -1 -6 -4 4 -29 -4 -56 -18 -27 -13 -49 -22 -49 -19 0 3 85 52 97 55
1 0 5 -6 9 -12z m-156 -73 c0 -3 -31 -21 -70 -40 -38 -19 -70 -33 -70 -30 0 4
126 72 138 75 1 0 2 -2 2 -5z m-180 -99 c0 -2 -7 -7 -16 -10 -8 -3 -12 -2 -9
4 6 10 25 14 25 6z m-3277 -77 c21 -9 25 -20 31 -70 7 -71 28 -124 64 -163
l27 -28 -45 22 c-25 12 -60 33 -77 47 -33 24 -33 24 -33 114 0 49 2 89 5 89 2
0 15 -5 28 -11z m3230 -164 c20 -20 37 -37 37 -40 0 -3 -15 -5 -34 -5 -37 0
-51 12 -61 53 -10 38 11 35 58 -8z m-2497 -772 c46 -428 84 -781 84 -784 0 -8
-311 -151 -317 -145 -2 2 21 308 51 679 31 371 56 697 56 724 0 56 -24 108
-63 137 l-27 20 -98 -32 c-54 -18 -101 -32 -105 -32 -4 0 -7 14 -7 31 0 24 5
32 23 37 12 3 87 38 167 78 80 39 147 70 149 68 2 -1 41 -353 87 -781z m-612
633 c16 -26 27 -49 24 -52 -3 -3 -26 5 -52 17 -44 22 -47 22 -82 5 l-37 -17 7
38 c3 21 6 55 6 76 l0 37 53 -29 c34 -20 62 -45 81 -75z m106 -53 c0 -33 -4
-43 -21 -48 -25 -8 -20 -14 -55 60 -15 33 -30 63 -31 66 -2 4 21 -3 51 -15 55
-21 56 -21 56 -63z m70 13 c0 -19 5 -36 12 -38 6 -2 -5 -4 -25 -4 -36 0 -37 1
-37 38 0 34 3 38 25 38 22 0 25 -4 25 -34z m259 0 c18 -14 41 -69 41 -99 0
-22 -18 -29 -292 -117 -161 -51 -298 -95 -304 -97 -7 -2 -14 11 -18 30 -4 19
-18 51 -31 71 -17 26 -21 38 -12 41 185 59 245 81 240 89 -4 5 -1 6 6 1 19
-11 106 15 89 27 -9 7 -8 8 5 4 23 -7 69 3 62 14 -3 5 5 6 17 2 13 -3 19 -1
15 5 -5 7 1 9 15 5 13 -3 19 -1 15 5 -5 7 1 9 15 5 13 -3 19 -1 15 5 -5 7 1 9
15 5 13 -3 19 -1 15 5 -4 6 4 8 21 6 22 -4 24 -2 12 7 -12 8 -8 9 15 4 17 -4
36 -12 44 -18z m-458 -6 c22 -12 44 -18 50 -15 5 4 9 3 8 -2 -1 -4 2 -17 6
-27 6 -13 4 -21 -3 -24 -7 -2 -10 -7 -7 -12 3 -4 -5 -6 -17 -2 -13 3 -19 1
-15 -5 5 -7 -1 -9 -15 -5 -13 3 -19 1 -15 -5 8 -13 -44 -2 -85 17 -21 10 -28
20 -28 41 0 21 8 32 28 43 36 20 46 20 93 -4z m496 -197 c-4 -38 -7 -85 -7
-105 l0 -38 -58 0 c-70 0 -173 -18 -188 -34 -15 -14 -28 -116 -15 -116 14 0
170 68 210 91 18 11 36 18 38 15 4 -4 -122 -1572 -133 -1650 -3 -21 -10 -46
-16 -55 -12 -20 -114 -47 -383 -101 -110 -22 -209 -42 -221 -45 l-20 -4 19 42
20 43 299 59 c165 33 295 61 289 63 -5 2 -138 -22 -296 -54 -157 -31 -287 -55
-290 -52 -5 5 142 1809 149 1815 6 6 579 191 595 192 11 1 13 -12 8 -66z
m-667 12 c17 -10 50 -85 50 -114 0 -23 -1 -23 -92 -19 -121 5 -131 11 -113 63
20 57 55 84 104 80 21 -1 44 -6 51 -10z m-42 -143 l93 -4 -6 -52 c-3 -28 -37
-435 -75 -905 -39 -470 -73 -857 -76 -860 -10 -11 -138 -5 -175 8 -35 11 -37
14 -33 49 7 57 144 1741 144 1764 0 15 4 18 18 13 9 -5 59 -10 110 -13z m692
-32 c0 -9 -161 -90 -206 -104 -18 -6 -20 -3 -17 26 3 36 -2 29 -12 -16 -3 -15
-8 -26 -11 -24 -2 3 1 28 7 55 12 51 12 51 63 61 69 13 176 14 176 2z m1889
-654 c-47 -46 -215 -143 -574 -332 -380 -200 -483 -248 -437 -202 8 8 999 535
1011 537 2 1 2 -1 0 -3z m-4877 -151 c5 -40 -4 -37 -26 9 -22 47 -21 64 3 42
10 -10 21 -32 23 -51z m1011 -472 l993 -496 10 -42 10 -43 -998 499 c-620 310
-1001 506 -1008 518 -10 20 -14 61 -5 61 3 0 452 -223 998 -497z m3627 446 c0
-5 -64 -41 -142 -79 -79 -38 -138 -70 -133 -70 6 0 70 29 144 65 74 36 135 64
137 62 2 -2 -23 -16 -56 -32 -32 -15 -57 -32 -54 -37 3 -4 -3 -5 -12 -1 -12 4
-15 3 -10 -5 5 -8 1 -10 -10 -5 -12 4 -15 3 -10 -5 5 -8 1 -10 -10 -5 -12 4
-15 3 -10 -5 5 -8 1 -10 -10 -5 -12 4 -15 3 -10 -5 5 -8 1 -10 -10 -5 -12 4
-15 3 -10 -5 5 -8 1 -10 -10 -5 -12 4 -15 3 -10 -5 5 -8 1 -10 -10 -5 -12 4
-15 3 -10 -5 5 -8 1 -10 -10 -5 -12 4 -15 3 -10 -5 5 -8 1 -10 -10 -5 -12 4
-15 3 -10 -5 5 -8 1 -10 -10 -5 -12 4 -15 3 -10 -5 5 -8 1 -10 -10 -5 -11 4
-15 3 -11 -4 5 -7 -1 -9 -15 -6 -15 3 -19 2 -11 -4 8 -6 -61 -45 -204 -116
-118 -60 -218 -106 -221 -103 -3 4 1 6 9 6 10 0 11 2 2 8 -8 5 47 38 147 87
87 43 157 82 154 87 -3 4 3 5 12 1 12 -4 15 -3 10 5 -5 8 -1 10 10 5 12 -4 15
-3 10 5 -5 8 -1 10 10 5 12 -4 15 -3 10 5 -5 8 -1 10 10 5 12 -4 15 -3 10 5
-5 8 -1 10 10 5 12 -4 15 -3 10 5 -5 8 -1 10 10 5 12 -4 15 -3 10 5 -5 8 -1
10 10 5 12 -4 15 -3 10 5 -5 8 -1 10 10 5 12 -4 15 -3 10 5 -5 8 -2 10 9 6 9
-4 15 -2 13 5 -2 6 60 45 137 85 161 86 145 79 145 65z m-1410 -217 c0 -10 -6
-26 -12 -35 -12 -16 -309 -158 -316 -152 -2 2 -1 17 2 32 6 26 22 37 159 100
84 39 155 72 160 72 4 1 7 -7 7 -17z m-172 -185 c-1 -14 -5 -24 -9 -21 -13 8
-139 -49 -132 -59 3 -6 1 -7 -5 -3 -7 4 -12 21 -12 37 0 27 6 32 73 63 77 35
89 33 85 -17z m512 -426 c0 -107 -3 -130 -15 -135 -9 -3 -148 61 -333 154
-174 87 -314 159 -309 159 4 1 147 -69 317 -154 170 -85 313 -155 317 -154 5
0 -144 76 -330 170 -186 93 -336 173 -333 177 3 5 6 34 7 65 1 31 6 54 10 52
12 -8 39 7 32 18 -3 6 -1 7 6 3 15 -9 53 3 46 15 -3 5 2 6 11 2 11 -4 15 -3
11 4 -5 7 1 9 15 5 15 -3 19 -2 14 7 -4 7 114 -49 263 -124 l271 -135 0 -129z
m-659 89 c27 -15 24 -27 -11 -45 l-30 -16 0 36 c0 37 8 42 41 25z m929 -138
c0 -10 -91 -55 -97 -48 -3 2 17 16 44 30 56 29 53 28 53 18z m-110 -57 c0 -8
-162 -87 -167 -81 -3 2 30 23 73 45 78 39 94 46 94 36z m-1621 -36 c29 -6 71
-7 92 -4 l39 7 -11 -32 c-17 -46 -49 -63 -110 -58 -59 6 -85 27 -95 77 -6 31
-5 34 12 27 10 -4 43 -12 73 -17z m1551 -138 l0 -119 -136 -66 c-75 -36 -141
-63 -146 -60 -6 4 -8 24 -5 45 4 28 21 58 61 106 53 63 56 71 56 121 0 49 1
52 20 42 16 -8 31 -4 77 19 32 17 61 30 66 31 4 0 7 -54 7 -119z m-199 -49
c-11 -15 -33 -42 -49 -61 l-28 -33 -133 66 -132 67 51 59 51 59 130 -65 130
-65 -20 -27z m258 112 c14 -12 -19 -1 -35 12 -18 14 -18 14 6 3 14 -6 27 -13
29 -15z m-474 -146 l126 -63 -6 -35 c-4 -19 -11 -39 -17 -45 -8 -7 -8 -6 -3 4
6 11 4 13 -9 8 -11 -5 -15 -3 -10 5 5 8 2 9 -10 5 -11 -5 -15 -3 -10 5 5 8 2
9 -10 5 -11 -5 -15 -3 -10 5 5 8 2 9 -10 5 -11 -5 -15 -3 -10 5 5 8 2 9 -10 5
-11 -5 -15 -3 -10 5 5 8 2 9 -10 5 -11 -5 -15 -3 -10 5 5 8 2 9 -10 5 -11 -5
-15 -3 -10 5 5 8 2 9 -10 5 -11 -5 -15 -3 -10 5 5 8 2 9 -10 5 -11 -5 -15 -3
-10 5 5 8 2 9 -10 5 -11 -5 -15 -3 -10 5 5 8 2 9 -10 5 -9 -4 -15 -3 -12 2 3
5 -1 11 -9 15 -14 5 -22 36 -10 36 3 0 60 -27 126 -61 67 -33 123 -59 125 -57
2 2 -55 33 -125 68 -87 43 -127 68 -124 77 3 7 7 13 9 13 2 0 60 -28 129 -62z"/>
<path d="M5760 8270 c118 -60 220 -109 225 -109 6 0 -87 49 -205 109 -118 60
-219 109 -225 109 -5 0 87 -49 205 -109z"/>
<path d="M9824 7898 l-19 -23 23 19 c21 18 27 26 19 26 -2 0 -12 -10 -23 -22z"/>
<path d="M2855 6466 c-13 -9 -19 -26 -19 -51 0 -30 7 -44 32 -66 27 -24 36
-27 52 -19 41 22 33 103 -14 135 -25 18 -28 18 -51 1z m44 -6 c41 -21 52 -110
16 -124 -8 -3 -27 5 -42 18 -20 18 -27 33 -27 60 0 22 6 41 15 47 18 11 17 11
38 -1z"/>
<path d="M3115 6333 c-32 -32 -11 -108 36 -134 16 -8 25 -7 40 7 24 22 24 60
0 100 -22 37 -55 48 -76 27z m70 -34 c30 -57 9 -113 -34 -89 -26 14 -41 41
-41 77 0 57 48 65 75 12z"/>
<path d="M3372 6198 c-23 -23 -14 -77 17 -109 35 -34 42 -35 66 -9 34 38 0
130 -50 130 -11 0 -26 -5 -33 -12z m67 -12 c19 -22 25 -84 11 -101 -17 -21
-27 -19 -55 10 -24 23 -35 82 -18 98 11 12 50 7 62 -7z"/>
<path d="M3632 6068 c-23 -23 -14 -77 17 -109 16 -16 34 -29 40 -29 20 0 41
32 41 64 0 62 -63 109 -98 74z m72 -20 c20 -28 21 -82 2 -97 -18 -15 -50 -1
-66 29 -11 21 -13 73 -3 83 14 15 53 6 67 -15z"/>
<path d="M3889 5929 c-15 -28 -4 -77 23 -106 40 -42 78 -24 78 38 0 70 -73
120 -101 68z m76 -13 c22 -33 17 -100 -8 -104 -39 -8 -77 60 -62 108 9 29 51
26 70 -4z"/>
<path d="M4149 5799 c-15 -29 -3 -81 25 -108 30 -28 57 -24 74 11 32 67 -64
162 -99 97z m84 -30 c13 -28 15 -43 7 -63 -25 -66 -104 8 -86 80 10 40 56 29
79 -17z"/>
<path d="M4414 5665 c-13 -20 -14 -31 -5 -57 24 -68 68 -88 97 -43 19 30 12
70 -18 103 -28 29 -54 28 -74 -3z m69 -2 c38 -43 28 -117 -16 -111 -32 4 -63
72 -48 104 12 28 41 31 64 7z"/>
<path d="M4680 5545 c-30 -37 2 -126 47 -133 33 -5 56 26 49 66 -10 63 -67
102 -96 67z m63 -13 c23 -26 32 -78 17 -97 -27 -32 -63 -13 -79 42 -17 59 25
96 62 55z"/>
<path d="M4380 5453 c-24 -9 -70 -55 -87 -86 -37 -72 -33 -202 11 -301 29 -65
105 -150 158 -177 48 -24 114 -24 154 0 125 76 111 336 -26 485 -64 69 -149
101 -210 79z m114 -17 c45 -19 116 -84 110 -101 -3 -7 0 -16 7 -21 8 -5 10 -3
4 6 -5 8 -4 11 3 6 6 -4 8 -14 5 -23 -4 -11 -3 -14 5 -9 8 5 10 1 5 -10 -4
-12 -3 -15 5 -10 8 5 10 1 5 -10 -4 -12 -3 -15 5 -10 8 5 10 1 5 -10 -4 -11
-3 -15 4 -11 7 5 9 -1 5 -15 -3 -13 -1 -19 5 -15 6 4 8 -4 5 -20 -3 -14 -1
-23 4 -20 5 3 9 -35 9 -87 -1 -78 -4 -98 -24 -129 -60 -97 -181 -89 -280 18
-120 130 -140 360 -39 451 12 12 30 24 38 27 28 10 81 7 114 -7z"/>
<path d="M4456 5413 c20 -4 21 -6 8 -32 -57 -114 8 -310 127 -384 46 -28 49
-32 33 -44 -45 -33 -130 -8 -188 57 -53 59 -78 121 -84 206 -5 86 9 134 49
169 17 14 26 25 21 25 -20 0 -71 -70 -78 -106 -10 -55 1 -155 24 -206 25 -58
96 -137 139 -154 72 -31 136 -8 163 56 7 17 11 32 9 33 -2 1 -47 23 -100 49
-95 46 -96 47 -110 95 -18 62 -17 160 2 198 18 37 39 35 94 -7 35 -28 37 -28
16 -5 -30 33 -81 57 -118 56 -21 -1 -23 -3 -7 -6z m204 -413 c-13 -25 -15 -25
-66 5 -37 22 -84 71 -84 89 0 3 36 -12 80 -34 73 -37 79 -42 70 -60z"/>
<path d="M2944 4355 c-15 -23 -15 -30 -2 -63 8 -20 26 -43 41 -52 27 -14 29
-14 48 10 25 29 19 73 -13 107 -28 30 -54 29 -74 -2z m69 -3 c24 -27 31 -73
14 -97 -21 -28 -61 -8 -77 39 -20 62 24 102 63 58z"/>
<path d="M3212 4238 c-22 -22 -14 -86 13 -113 28 -29 47 -31 69 -9 24 23 19
68 -10 103 -27 33 -52 39 -72 19z m67 -24 c49 -62 4 -137 -49 -84 -20 20 -28
88 -13 103 14 15 43 6 62 -19z"/>
<path d="M3472 4108 c-21 -21 -14 -83 13 -112 63 -68 120 21 59 93 -27 33 -52
39 -72 19z m67 -24 c50 -64 5 -140 -49 -82 -19 21 -28 86 -13 101 14 15 43 6
62 -19z"/>
<path d="M3730 3971 c-34 -64 36 -162 85 -121 19 16 19 63 0 99 -22 44 -67 55
-85 22z m64 -7 c35 -34 34 -107 0 -112 -40 -6 -73 51 -60 103 7 29 36 33 60 9z"/>
<path d="M3997 3842 c-47 -52 26 -165 78 -122 24 20 19 83 -10 114 -28 31 -46
33 -68 8z m63 -14 c22 -23 28 -92 9 -103 -19 -12 -55 4 -67 30 -33 71 10 125
58 73z"/>
<path d="M4254 3705 c-19 -30 -12 -70 18 -102 28 -30 54 -29 74 2 13 20 14 30
4 60 -11 35 -43 65 -67 65 -7 0 -20 -11 -29 -25z m56 5 c26 -14 44 -73 30
-100 -21 -39 -71 -16 -85 42 -7 27 8 68 26 68 6 0 19 -4 29 -10z"/>
<path d="M3195 2862 c-69 -24 -133 -63 -177 -109 -286 -297 -203 -972 167
-1362 261 -274 562 -316 764 -107 108 113 159 251 168 457 4 95 1 152 -12 230
-20 120 -72 292 -85 284 -6 -3 -7 0 -4 8 14 36 -129 267 -232 377 -185 196
-415 282 -589 222z m238 -8 c123 -32 246 -111 355 -230 39 -42 68 -82 66 -89
-3 -7 0 -16 7 -21 8 -5 10 -3 4 6 -5 8 -4 11 3 6 6 -4 9 -13 6 -20 -3 -8 0
-17 7 -22 8 -5 10 -3 4 6 -5 8 -4 11 3 6 6 -4 9 -13 6 -20 -3 -8 0 -17 7 -22
8 -5 10 -3 4 6 -5 9 -4 11 4 6 6 -4 9 -12 6 -17 -8 -12 20 -51 29 -42 4 4 4
-1 0 -11 -5 -13 -4 -17 4 -12 8 5 10 1 5 -10 -4 -12 -3 -15 5 -10 8 5 10 2 6
-8 -8 -20 -7 -20 -54 4 -22 11 -40 18 -40 15 0 -10 101 -56 110 -50 6 4 7 -1
3 -11 -4 -12 -3 -15 5 -10 8 5 10 1 5 -10 -4 -11 -3 -15 4 -11 7 5 9 0 6 -13
-5 -18 -12 -16 -96 27 -89 44 -90 45 -66 59 29 16 20 18 -14 3 -19 -9 -31 -7
-58 6 l-33 18 45 22 44 23 13 -24 c7 -13 15 -24 18 -24 2 0 0 9 -6 21 -6 11
-10 49 -9 85 1 35 -1 67 -4 71 -4 3 -7 -21 -7 -55 l0 -62 -51 -26 c-49 -24
-52 -25 -91 -10 -36 15 -44 15 -96 0 -31 -9 -63 -19 -69 -21 -22 -8 -17 187 7
286 11 46 24 90 28 97 12 21 121 -52 207 -140 38 -39 59 -56 47 -38 -62 86
-222 199 -330 232 -65 20 -182 25 -232 11 -14 -5 16 -6 66 -3 75 4 105 1 163
-17 39 -12 71 -23 71 -24 0 -1 -11 -47 -25 -101 -20 -81 -25 -123 -25 -232 0
-73 4 -135 9 -138 5 -3 28 1 51 9 23 8 48 15 54 15 6 0 19 -35 28 -77 8 -43
32 -121 52 -173 21 -52 39 -102 42 -110 4 -12 -60 -45 -271 -139 -152 -68
-278 -128 -282 -133 -9 -16 104 -173 178 -247 121 -121 235 -183 379 -205 56
-9 69 -14 50 -19 -113 -28 -226 -11 -352 55 -96 49 -227 171 -298 277 -83 124
-151 285 -192 451 -20 85 -18 368 5 449 39 143 118 259 213 313 30 16 54 32
54 35 0 2 -23 -8 -51 -24 -98 -53 -186 -179 -226 -324 -23 -81 -25 -364 -5
-449 41 -166 109 -327 192 -451 24 -35 84 -105 134 -154 308 -306 670 -257
798 109 15 45 27 90 27 101 0 16 -50 44 -247 142 l-247 121 78 36 78 36 172
-86 c95 -48 173 -87 174 -88 1 -1 4 -27 7 -57 3 -44 2 -48 -5 -19 -6 26 -7 18
-4 -32 11 -176 -110 -397 -259 -472 -395 -200 -926 317 -975 947 -23 299 70
556 239 655 104 62 214 77 333 46z m415 -548 c95 -47 172 -91 172 -97 0 -5 4
-8 9 -5 5 4 7 -4 3 -16 -3 -14 -1 -19 6 -14 8 4 10 2 6 -8 -5 -12 -48 6 -209
87 -204 101 -204 101 -247 90 -24 -6 -51 -15 -60 -18 -15 -6 -18 -2 -16 18 1
14 6 23 10 21 4 -3 19 -2 33 2 20 5 24 9 13 16 -8 5 -2 6 16 2 19 -5 27 -3 22
4 -4 6 2 8 16 4 14 -3 19 -2 14 6 -11 18 19 5 212 -92z m201 -162 c4 3 6 -7 4
-22 -4 -21 -2 -24 6 -12 8 11 10 7 5 -20 -4 -27 -3 -31 5 -20 8 11 9 7 4 -19
-4 -21 -2 -32 3 -28 6 3 8 -10 6 -31 -2 -23 0 -32 5 -24 6 7 8 -12 7 -50 -2
-50 -1 -57 6 -33 7 23 8 16 3 -25 -3 -30 -7 -56 -8 -58 -2 -2 -79 35 -173 82
l-170 85 -30 73 c-38 92 -68 190 -77 252 l-7 47 201 -101 c111 -55 206 -98
210 -96z m-216 -385 c133 -67 244 -123 245 -124 2 -2 1 -17 -3 -34 l-6 -30
-275 137 c-151 75 -274 140 -274 143 0 7 41 27 58 28 6 1 121 -54 255 -120z
m-48 -56 c261 -131 293 -152 269 -176 -4 -3 -142 62 -307 144 -216 108 -296
153 -286 160 8 5 22 9 31 9 10 0 142 -62 293 -137z m-348 35 c20 -22 50 -23
94 -3 19 8 31 14 27 15 -3 0 -14 3 -24 7 -13 5 -15 3 -9 -7 5 -9 4 -11 -3 -6
-7 4 -12 14 -12 22 0 9 90 -31 270 -121 250 -125 270 -137 260 -155 -10 -19
-21 -15 -200 75 -104 52 -192 95 -195 95 -3 0 -5 -16 -5 -35 0 -19 -2 -35 -5
-35 -3 0 -61 28 -130 62 l-125 63 0 37 c0 25 6 40 18 47 14 8 18 5 20 -17 2
-15 11 -35 19 -44z m10 25 c-3 -10 -5 -2 -5 17 0 19 2 27 5 18 2 -10 2 -26 0
-35z m37 31 c24 -9 21 -54 -4 -54 -16 0 -20 7 -20 30 0 32 1 33 24 24z m-114
-39 l0 -35 -35 17 -36 17 33 18 c18 9 34 17 36 18 1 0 2 -16 2 -35z m141 -115
c197 -99 224 -110 256 -104 31 6 52 -1 144 -46 l108 -54 -29 -41 c-50 -73
-113 -123 -164 -130 -136 -21 -318 59 -460 201 -61 62 -185 229 -175 238 8 7
84 45 92 46 4 0 106 -50 228 -110z m307 -81 c2 -5 9 -6 15 -2 7 3 9 3 5 -1
-15 -17 -113 -14 -150 5 -33 17 -38 24 -38 54 l0 35 83 -41 c45 -23 84 -45 85
-50z m127 -67 c44 -23 77 -41 73 -42 -18 -1 -176 85 -171 93 3 5 8 5 12 -1 3
-5 42 -28 86 -50z"/>
<path d="M2527 2532 c-24 -27 -21 -66 9 -101 43 -52 84 -36 84 31 0 28 -7 46
-25 63 -29 30 -46 31 -68 7z m64 -13 c29 -29 24 -103 -7 -107 -44 -6 -84 84
-52 116 17 17 35 15 59 -9z"/>
<path d="M4349 1606 c-15 -32 -5 -71 26 -102 28 -28 34 -29 60 -10 42 30 7
128 -48 134 -21 3 -30 -3 -38 -22z m83 -26 c28 -56 3 -104 -41 -80 -25 13 -45
64 -37 95 10 40 56 31 78 -15z"/>
<path d="M9819 5713 c-13 -16 -12 -17 4 -4 16 13 21 21 13 21 -2 0 -10 -8 -17
-17z"/>
<path d="M8207 4619 c7 -7 15 -10 18 -7 3 3 -2 9 -12 12 -14 6 -15 5 -6 -5z"/>
<path d="M2709 4533 c-13 -16 -12 -17 4 -4 9 7 17 15 17 17 0 8 -8 3 -21 -13z"/>
<path d="M8880 3595 c-25 -13 -41 -24 -37 -25 11 0 87 39 87 45 0 7 0 7 -50
-20z"/>
<path d="M6470 1250 c-107 -54 -190 -99 -185 -99 6 0 98 45 205 99 107 54 191
99 185 99 -5 0 -98 -45 -205 -99z"/>
<path d="M6182 460 c0 -19 2 -27 5 -17 2 9 2 25 0 35 -3 9 -5 1 -5 -18z"/>
</g>
</svg>
